<svg width="28" height="28" viewBox="0 0 28 28" fill="none" xmlns="http://www.w3.org/2000/svg">
<circle cx="14" cy="14" r="14" fill="#2F6CAD"/>
<path d="M13.32 12.826V10.072C13.32 9.334 13.734 8.812 14.4 8.812C15.066 8.812 15.48 9.334 15.48 10.072V12.826H18.234C18.99 12.826 19.494 13.258 19.494 13.906C19.494 14.554 18.99 14.986 18.234 14.986H15.48V17.74C15.48 18.478 15.066 19 14.4 19C13.734 19 13.32 18.478 13.32 17.74V14.986H10.566C9.81 14.986 9.306 14.446 9.306 13.906C9.306 13.258 9.81 12.826 10.566 12.826H13.32Z" fill="white"/>
</svg>
