<svg width="24" height="31" viewBox="0 0 24 31" fill="none" xmlns="http://www.w3.org/2000/svg">
<path d="M1.78201 14.1686H3.6535V8.52658C3.6535 6.18192 4.59237 4.04877 6.10546 2.50447C7.61729 0.960271 9.70468 0 12.0013 0C14.2766 0 16.3487 0.944828 17.8581 2.46712L17.8972 2.50321C19.409 4.04741 20.3492 6.1795 20.3492 8.52532V14.1673H22.2206C22.709 14.1673 23.1532 14.3722 23.4763 14.7009C23.8006 15.0322 24 15.4872 24 15.986V29.1825C24 29.6801 23.7993 30.1364 23.4763 30.4651C23.157 30.795 22.7103 31 22.2206 31H1.78062C1.28973 31 0.844257 30.7951 0.522457 30.4664L0.480811 30.4187C0.182988 30.0938 0 29.6569 0 29.1825V15.986C0 15.4872 0.20065 15.0335 0.522453 14.7035C0.846774 14.3722 1.29224 14.1686 1.78061 14.1686L1.78201 14.1686ZM12.0014 16.9824C12.9037 16.9824 13.7214 17.3562 14.3133 17.962C14.9089 18.5704 15.2749 19.4057 15.2749 20.3273C15.2749 21.0182 15.0679 21.6614 14.7158 22.1951C14.5038 22.516 14.2375 22.797 13.9309 23.0252L13.9662 23.1089C14.0773 23.3745 14.1391 23.6632 14.1391 23.9622V27.5237C14.1391 27.8885 13.8501 28.1836 13.493 28.1836H10.5059C10.1488 28.1836 9.85982 27.8885 9.85982 27.5237V23.9622C9.85982 23.6477 9.92923 23.3422 10.0516 23.0651L10.068 23.0251C9.76139 22.797 9.49513 22.5147 9.28311 22.195C8.92974 21.6614 8.72405 21.0182 8.72405 20.3273C8.72405 19.4031 9.09127 18.5666 9.68315 17.962C10.275 17.3575 11.094 16.9824 11.9988 16.9824L12.0014 16.9824ZM13.4047 18.8939C13.0463 18.5292 12.5504 18.3023 12.0014 18.3023C11.4537 18.3023 10.959 18.5292 10.5994 18.8952C10.241 19.2613 10.0189 19.7679 10.0189 20.3273C10.0189 20.7475 10.1438 21.1367 10.3558 21.459C10.5766 21.7928 10.8909 22.0571 11.2581 22.2079C11.349 22.2453 11.4335 22.3046 11.5029 22.3858C11.7364 22.659 11.7099 23.0754 11.4424 23.3138C11.3528 23.3938 11.2796 23.4956 11.2291 23.6077C11.1799 23.7147 11.1534 23.8346 11.1534 23.9635V26.865H12.8482V23.9635C12.8482 23.8462 12.8267 23.7353 12.7876 23.6374L12.7725 23.6064C12.7245 23.4982 12.6551 23.4015 12.5718 23.3228C12.491 23.2545 12.4267 23.1669 12.3863 23.0612C12.2551 22.7235 12.4141 22.3406 12.7447 22.2053C13.1119 22.0532 13.4262 21.7902 13.647 21.4564C13.859 21.1342 13.984 20.7449 13.984 20.3247C13.984 19.764 13.7619 19.2574 13.4047 18.8913L13.4047 18.8939ZM4.94567 14.1687H19.057V8.52668C19.057 6.54552 18.2619 4.74348 16.9836 3.43775L16.952 3.40424C15.6762 2.11785 13.9246 1.31996 12.0001 1.31996C10.0605 1.31996 8.29624 2.13201 7.01789 3.43776C5.73954 4.74349 4.94449 6.54679 4.94449 8.52669V14.1687L4.94567 14.1687ZM22.222 15.4886H1.78324C1.64821 15.4886 1.52579 15.5453 1.43872 15.6342C1.35165 15.7245 1.29612 15.8495 1.29612 15.9861V29.1826C1.29612 29.3089 1.34155 29.4237 1.41475 29.5087L1.43872 29.5319C1.52706 29.6222 1.64947 29.6789 1.78323 29.6789H22.2233C22.357 29.6789 22.4794 29.6222 22.5678 29.5319C22.6574 29.4443 22.7116 29.3193 22.7116 29.1813V15.9848C22.7116 15.8469 22.6561 15.7219 22.569 15.6329C22.4807 15.544 22.3583 15.4873 22.2245 15.4873L22.222 15.4886Z" fill="#2F6CAD"/>
</svg>
