<svg xmlns="http://www.w3.org/2000/svg" width="12.072" height="6.645" viewBox="0 0 12.072 6.645">
  <g id="Group_6058" data-name="Group 6058" transform="translate(-8.897 -982.316)">
    <path id="Path_3627" data-name="Path 3627" d="M14.984,988.958a.556.556,0,0,0,.335-.161l5.434-5.3a.711.711,0,0,0,.207-.634.644.644,0,0,0-.393-.51.539.539,0,0,0-.585.144l-5.048,4.926-5.048-4.926a.539.539,0,0,0-.585-.144.644.644,0,0,0-.393.51.711.711,0,0,0,.207.634l5.434,5.3a.546.546,0,0,0,.436.161Z" transform="translate(0 0)" fill="#2f6cad"/>
  </g>
</svg>
