<svg width="24" height="23" viewBox="0 0 24 23" fill="none" xmlns="http://www.w3.org/2000/svg">
<path d="M22.3212 3.64787C20.0825 1.3746 16.4414 1.3746 14.2028 3.64787L5.61769 12.3658C4.96897 13.0246 4.61273 13.8994 4.61273 14.8313C4.61273 15.7624 4.96991 16.6382 5.61769 17.2969C6.26547 17.9556 7.12794 18.3174 8.04566 18.3174C8.96249 18.3174 9.82496 17.9547 10.4736 17.2969L19.0588 8.57893C19.4984 8.13247 19.4984 7.40897 19.0588 6.96251C18.6191 6.51605 17.9066 6.51605 17.467 6.96251L8.88183 15.6804C8.65871 15.907 8.36153 16.0327 8.04654 16.0327C7.73062 16.0327 7.43344 15.908 7.21126 15.6804C6.98815 15.4539 6.86441 15.1521 6.86441 14.8322C6.86441 14.5124 6.98721 14.2097 7.21126 13.984L15.7964 5.2661C17.1576 3.88385 19.371 3.88385 20.731 5.2661C22.0922 6.64835 22.0922 8.89604 20.731 10.2771L12.144 18.997C9.88378 21.2922 6.20619 21.2922 3.94693 18.997C2.85198 17.8851 2.2492 16.4077 2.2492 14.835C2.2492 13.2634 2.85198 11.7849 3.94693 10.6731L12.5321 1.95127C12.9717 1.50481 12.9717 0.781308 12.5321 0.334846C12.0924 -0.111615 11.3799 -0.111615 10.9403 0.334846L2.35321 9.05376C-0.784404 12.2399 -0.784404 17.4234 2.35321 20.6106C3.92252 22.2042 5.98305 23 8.04359 23C10.105 23 12.1647 22.2042 13.734 20.6106L22.321 11.8907C24.5597 9.61742 24.5597 5.92 22.321 3.64675L22.3212 3.64787Z" fill="#333333"/>
</svg>
