<svg width="12" height="24" viewBox="0 0 12 24" fill="none" xmlns="http://www.w3.org/2000/svg">
<path d="M1.74414 21.0961C1.537 21.0957 1.33613 21.1672 1.17578 21.2983C1.01544 21.4295 0.905548 21.6121 0.864854 21.8152C0.82416 22.0184 0.85518 22.2293 0.952622 22.4121C1.05007 22.5949 1.20791 22.7382 1.39922 22.8177C1.59053 22.8971 1.80346 22.9077 2.00173 22.8477C2.19999 22.7877 2.37128 22.6608 2.48642 22.4886C2.60156 22.3164 2.65341 22.1096 2.63312 21.9034C2.61283 21.6973 2.52164 21.5045 2.37514 21.3581C2.20779 21.1907 1.98087 21.0964 1.74414 21.0961Z" fill="#008080"/>
<path d="M2.63805 19.1451C2.63805 19.3217 2.58568 19.4944 2.48755 19.6412C2.38943 19.7881 2.24997 19.9025 2.0868 19.9701C1.92362 20.0377 1.74406 20.0554 1.57084 20.0209C1.39761 19.9865 1.2385 19.9014 1.11361 19.7765C0.988719 19.6516 0.903664 19.4925 0.869207 19.3193C0.834751 19.1461 0.852445 18.9665 0.920034 18.8033C0.987623 18.6402 1.10208 18.5007 1.24894 18.4026C1.39579 18.3045 1.56844 18.2521 1.74506 18.2521C1.9819 18.2521 2.20903 18.3462 2.3765 18.5136C2.54397 18.6811 2.63805 18.9082 2.63805 19.1451Z" fill="#008080"/>
<path d="M2.63805 16.308C2.63805 16.4847 2.58568 16.6573 2.48755 16.8042C2.38943 16.951 2.24997 17.0655 2.0868 17.1331C1.92362 17.2006 1.74406 17.2183 1.57084 17.1839C1.39761 17.1494 1.2385 17.0644 1.11361 16.9395C0.988719 16.8146 0.903664 16.6555 0.869207 16.4822C0.834751 16.309 0.852445 16.1295 0.920034 15.9663C0.987623 15.8031 1.10208 15.6636 1.24894 15.5655C1.39579 15.4674 1.56844 15.415 1.74506 15.415C1.9819 15.415 2.20903 15.5091 2.3765 15.6766C2.54397 15.844 2.63805 16.0712 2.63805 16.308Z" fill="#008080"/>
<path d="M1.74411 11.522C1.95126 11.5224 2.15212 11.451 2.31246 11.3198C2.4728 11.1887 2.58269 11.006 2.62339 10.8029C2.66408 10.5998 2.63306 10.3888 2.53562 10.206C2.43818 10.0232 2.28035 9.87991 2.08904 9.80047C1.89773 9.72104 1.68479 9.71043 1.48653 9.77044C1.28827 9.83046 1.11696 9.95738 1.00182 10.1296C0.886681 10.3018 0.834844 10.5086 0.855137 10.7147C0.87543 10.9209 0.966596 11.1136 1.1131 11.2601C1.28039 11.4276 1.50737 11.5218 1.74411 11.522Z" fill="#008080"/>
<path d="M2.63805 7.78813C2.63805 7.96475 2.58568 8.1374 2.48755 8.28426C2.38943 8.43111 2.24997 8.54557 2.0868 8.61316C1.92362 8.68075 1.74406 8.69843 1.57084 8.66397C1.39761 8.62951 1.2385 8.54447 1.11361 8.41959C0.988719 8.2947 0.903664 8.13558 0.869207 7.96236C0.834751 7.78913 0.852445 7.60957 0.920034 7.4464C0.987623 7.28322 1.10208 7.14376 1.24894 7.04564C1.39579 6.94751 1.56844 6.89514 1.74506 6.89514C1.9819 6.89514 2.20903 6.98922 2.3765 7.15669C2.54397 7.32416 2.63805 7.55129 2.63805 7.78813Z" fill="#008080"/>
<path d="M1.74402 3.34012C1.9509 3.34043 2.15148 3.26897 2.31157 3.13794C2.47166 3.0069 2.58135 2.8244 2.62195 2.62155C2.66254 2.41869 2.63153 2.20803 2.53419 2.02549C2.43686 1.84294 2.27921 1.6998 2.08815 1.62047C1.89709 1.54114 1.68443 1.53052 1.48642 1.59044C1.28841 1.65035 1.11729 1.77709 1.00226 1.94904C0.887228 2.12099 0.835394 2.32751 0.85559 2.5334C0.875786 2.73929 0.966772 2.9318 1.11302 3.07812C1.28031 3.24565 1.50727 3.33989 1.74402 3.34012Z" fill="#008080"/>
<path d="M10.6982 11.4181H4.63223C4.3378 11.4203 4.05346 11.5256 3.82871 11.7158C3.60395 11.906 3.45304 12.1691 3.40225 12.4591C3.39081 12.5268 3.38513 12.5954 3.38526 12.6641V14.2721C3.38552 14.6025 3.51688 14.9193 3.75049 15.1529C3.9841 15.3865 4.30088 15.5179 4.63126 15.5181H10.6993C11.0295 15.5176 11.3462 15.3861 11.5797 15.1526C11.8133 14.919 11.9447 14.6024 11.9453 14.2721V12.6641C11.945 12.3337 11.8137 12.0168 11.5801 11.783C11.3465 11.5492 11.0297 11.4176 10.6993 11.4171L10.6982 11.4181Z" fill="#008080"/>
<path d="M9.22012 2.48409C9.20984 2.07837 9.04145 1.69273 8.75085 1.40941C8.46026 1.1261 8.07046 0.967529 7.66461 0.967529C7.25877 0.967529 6.86899 1.1261 6.5784 1.40941C6.28781 1.69273 6.11942 2.07837 6.10913 2.48409V11.1411H9.22012V2.48409Z" fill="#008080"/>
<path d="M6.10815 21.8481C6.11844 22.2538 6.28683 22.6395 6.57742 22.9228C6.86801 23.2061 7.25779 23.3647 7.66364 23.3647C8.06948 23.3647 8.45929 23.2061 8.74988 22.9228C9.04047 22.6395 9.20886 22.2538 9.21915 21.8481V15.7961H6.10815V21.8481Z" fill="#008080"/>
<path d="M1.74408 14.3621C1.97882 14.3606 2.20345 14.2664 2.36908 14.1001C2.35695 14.0496 2.35058 13.998 2.35009 13.9461V12.9911C2.35057 12.9392 2.35695 12.8875 2.36908 12.8371C2.26496 12.7343 2.13711 12.6587 1.99685 12.617C1.85658 12.5753 1.7082 12.5688 1.56482 12.5981C1.42145 12.6273 1.28749 12.6915 1.17478 12.7848C1.06207 12.8781 0.974091 12.9978 0.918598 13.1332C0.863106 13.2686 0.841823 13.4156 0.856617 13.5612C0.871411 13.7067 0.921826 13.8465 1.00342 13.9679C1.08502 14.0894 1.19527 14.1889 1.32445 14.2576C1.45363 14.3264 1.59775 14.3623 1.74408 14.3621Z" fill="#008080"/>
<path d="M3.11322 12.5751H3.04321C2.93306 12.5751 2.82741 12.6188 2.74942 12.6966C2.67143 12.7744 2.62746 12.8799 2.6272 12.9901V13.9451C2.62746 14.0552 2.67143 14.1608 2.74942 14.2386C2.82741 14.3164 2.93306 14.3601 3.04321 14.3601H3.1102C3.1102 14.3301 3.1102 14.3011 3.1102 14.2711V12.6631C3.1062 12.6341 3.11122 12.6051 3.11322 12.5751Z" fill="#008080"/>
</svg>
