<svg width="22" height="16" viewBox="0 0 22 16" fill="none" xmlns="http://www.w3.org/2000/svg">
<path d="M11.5711 8.7214L15.3357 6.5479L14.3722 4.87907L10.6076 7.05257L10.1241 6.21513L3.96662 9.77013C3.72466 9.91723 3.53798 10.14 3.43548 10.404C3.33299 10.668 3.32041 10.9584 3.3997 11.2302L0.597222 13.0942L1.33372 14.3698L4.35093 12.8738C4.54703 13.0761 4.8041 13.2085 5.08269 13.2506C5.36127 13.2927 5.64598 13.2422 5.89312 13.1069L12.0506 9.55192L11.5711 8.7214Z" fill="#008080"/>
<path d="M16.5449 3.62451L17.5079 5.29248L15.9491 6.19248L14.9861 4.52451L16.5449 3.62451Z" fill="#008080"/>
<path d="M18.6792 4.61733L18.5543 4.29911L20.3182 3.6722L20.6375 2.92321L20.1948 2.09451L19.3551 2.002L17.9146 3.22508L17.701 2.957L17.1597 3.2695L18.1232 4.93833L18.6792 4.61733Z" fill="#008080"/>
</svg>
