<svg width="24" height="21" viewBox="0 0 24 21" fill="none" xmlns="http://www.w3.org/2000/svg">
<path d="M4.05583 6.77251C4.54149 6.84213 5.75351 6.89932 8.09836 6.378C11.02 5.72829 12.0042 6.13268 12.7266 6.62456C12.7521 6.79032 12.7768 6.90819 12.7893 6.9647C12.7803 6.99863 12.7644 7.05895 12.742 7.1401C12.7414 7.14139 12.7408 7.14367 12.7405 7.14506C12.6977 7.12803 12.6548 7.1113 12.6117 7.09587C12.6105 7.09596 12.6092 7.09536 12.608 7.09475C12.5698 7.08113 12.5317 7.0687 12.4936 7.05677C12.4884 7.05515 12.4834 7.05364 12.4783 7.05192C12.4448 7.0417 12.4114 7.03218 12.3777 7.02375C12.3711 7.02182 12.3639 7.0197 12.3573 7.01797C12.3191 7.00833 12.2811 6.99957 12.2435 6.99212C12.1979 6.98312 12.1522 6.97423 12.1059 6.96583C11.4108 6.83972 10.6109 6.80197 9.36683 7.41555C8.70532 7.74179 7.96646 8.22459 7.10737 8.89104C6.92937 9.02887 6.75358 9.16114 6.57332 9.29389C6.56085 9.30277 6.54868 9.31174 6.53631 9.32081C4.90275 8.66051 4.25509 7.30813 4.05583 6.77251Z" fill="#2F6CAD"/>
<path d="M9.61653 12.2477L9.63019 12.0026L9.40924 12.1081C6.14339 13.6616 4.07761 11.9497 3.50661 11.3695C3.6945 11.313 3.98848 11.2059 4.39495 11.0054C5.04569 10.6845 5.77864 10.2284 6.57963 9.64855L6.57993 9.64865L6.64367 9.6021C6.6742 9.58011 6.70303 9.55771 6.73296 9.53602C6.80069 9.48602 6.86842 9.43651 6.93716 9.38502C7.04062 9.30749 7.14358 9.22897 7.24665 9.14916C7.25962 9.13929 7.27229 9.12982 7.28516 9.11976C8.12869 8.46544 8.8516 7.99299 9.49536 7.67549C10.5862 7.13748 11.2875 7.1275 11.9198 7.22763C12.01 7.24183 12.0989 7.25821 12.1872 7.27608C12.2278 7.28455 12.27 7.29422 12.313 7.30618C12.3207 7.30831 12.3284 7.31024 12.3359 7.31247C12.4724 7.35067 12.6194 7.40502 12.7753 7.47602L12.7869 7.48095C12.8369 7.50408 12.8872 7.5281 12.9371 7.55301C12.9416 7.55552 12.946 7.55803 12.9509 7.56034C13.057 7.61477 13.162 7.67297 13.2649 7.73444C13.2693 7.73695 13.2741 7.74005 13.2789 7.74236C13.3281 7.77164 13.3766 7.80221 13.4245 7.83258C13.4318 7.83739 13.4386 7.8415 13.4463 7.84611C13.5417 7.90704 13.6341 7.96924 13.7223 8.03103C13.7298 8.03624 13.7377 8.04174 13.7449 8.04685C13.7868 8.07649 13.828 8.10572 13.8673 8.13465C13.8752 8.14016 13.8821 8.14566 13.8898 8.15127C13.9269 8.1783 13.9631 8.20532 13.9984 8.23174C14.0018 8.23474 14.0056 8.23685 14.009 8.24015C14.0456 8.26817 14.0808 8.29489 14.1146 8.3213C14.1224 8.32741 14.1301 8.33301 14.1376 8.33872C14.1701 8.36453 14.2009 8.38924 14.2305 8.41304C14.236 8.41675 14.2409 8.42105 14.246 8.42545C14.2732 8.44746 14.2996 8.46837 14.324 8.48907C14.3273 8.49137 14.3305 8.49377 14.3336 8.49717C14.3595 8.51787 14.3829 8.53777 14.4048 8.55647C14.4099 8.56087 14.4149 8.56507 14.4203 8.56937C14.4409 8.58648 14.4595 8.60257 14.4759 8.61677C14.4787 8.61907 14.4811 8.62137 14.4839 8.62347C14.4986 8.63627 14.5119 8.64807 14.5228 8.65727C14.5249 8.65946 14.5275 8.66167 14.5293 8.66326C14.5396 8.67226 14.5477 8.67946 14.5537 8.68466C14.5626 8.69266 14.5678 8.69775 14.5687 8.69806C14.5697 8.69905 14.5722 8.70155 14.5745 8.70385C14.6546 8.78824 15.6376 9.89447 13.9367 11.7978C13.8896 11.8505 13.8398 11.9023 13.7881 11.953C13.7755 11.9657 13.7616 11.9777 13.7488 11.9905C13.7083 12.0293 13.6669 12.068 13.6239 12.1058C13.6104 12.1177 13.596 12.129 13.5824 12.1412C13.5364 12.1795 13.49 12.2185 13.4413 12.2569C13.4306 12.2653 13.4194 12.2733 13.4084 12.2817C13.3535 12.3239 13.2974 12.365 13.2389 12.4055C13.2334 12.4094 13.2277 12.4135 13.2224 12.4173C12.8901 12.6461 12.5034 12.8509 12.0673 13.0306C12.0517 13.0371 12.0361 13.0435 12.0203 13.0503C11.9514 13.0778 11.881 13.1049 11.8101 13.1314C11.779 13.1426 11.7484 13.1544 11.7172 13.1656C11.6594 13.1864 11.6003 13.2067 11.541 13.2265C11.4925 13.2427 11.4444 13.2588 11.396 13.2742C11.3526 13.2882 11.309 13.3016 11.2645 13.3148C11.1981 13.3354 11.1309 13.3549 11.0643 13.3736C11.038 13.3814 11.0117 13.3885 10.9851 13.3959C10.9011 13.4187 10.8172 13.4415 10.7336 13.4619C10.7251 13.4644 10.7164 13.4662 10.708 13.4684C9.70567 13.7162 8.75173 13.8142 8.17834 13.8525C9.53469 12.9507 9.61205 12.3225 9.61653 12.2477Z" fill="#2F6CAD"/>
<path d="M17.83 5.30146L17.8629 5.43905C19.2097 11.0885 15.8477 14.0723 12.7894 15.5806C11.3857 16.2729 10.2374 16.5403 10.2259 16.543L10.1996 16.549L10.1771 16.5636C8.89845 17.4236 6.88342 19.3876 5.78147 20.4964C6.95869 18.6136 8.88572 16.3716 8.90841 16.3453C8.90841 16.3453 7.49462 17.1216 6.79885 17.4648C6.24554 17.7376 5.74388 17.9023 5.3662 18.0004C6.10444 17.4847 7.45748 16.4637 9.12926 14.8579C9.40253 14.5958 9.67786 14.2836 9.94855 13.9304C10.8056 13.7747 11.778 13.5174 12.642 13.0913C12.8402 12.9935 13.0254 12.8893 13.1995 12.7792C13.2003 12.7788 13.2013 12.7783 13.2021 12.7779C13.2721 12.7335 13.3402 12.6887 13.4061 12.6426C13.4132 12.6374 13.4207 12.6324 13.4276 12.627C13.4862 12.586 13.5431 12.5438 13.5984 12.5012C13.6102 12.4914 13.6232 12.4825 13.6346 12.4731C13.6845 12.4337 13.7322 12.3938 13.7793 12.3535C13.7941 12.341 13.8093 12.3285 13.8239 12.3159C13.8683 12.2769 13.9109 12.2368 13.9524 12.1963C13.967 12.1827 13.9821 12.169 13.9961 12.1554C14.0501 12.1015 14.1024 12.0468 14.1519 11.9911C16.0981 9.81355 14.7826 8.50292 14.7669 8.48764C14.7644 8.48514 14.7587 8.48004 14.7517 8.47335C14.7511 8.47314 14.7511 8.47314 14.7506 8.47264C14.6265 8.36069 13.8488 7.67486 13.0081 7.2649C13.0546 7.09754 13.0789 7.00279 13.0789 7.00279L13.0878 6.96796L13.0792 6.93255C13.0703 6.89732 12.2508 3.41859 14.5495 2.28489C14.859 2.13228 15.2163 2.02614 15.6134 1.96929C15.6279 1.96708 17.0847 1.76113 18.0599 3.42907L18.0782 3.46067L20.106 4.70088L17.83 5.30146Z" fill="#2F6CAD"/>
</svg>
