<svg width="37" height="32" viewBox="0 0 37 32" fill="none" xmlns="http://www.w3.org/2000/svg">
<path d="M6.20637 10.3622C6.94946 10.4687 8.80391 10.5563 12.3916 9.75861C16.8618 8.76452 18.3677 9.38325 19.473 10.1359C19.512 10.3895 19.5498 10.5698 19.569 10.6563C19.5552 10.7082 19.5309 10.8005 19.4967 10.9246C19.4957 10.9266 19.4948 10.9301 19.4943 10.9322C19.4288 10.9062 19.3631 10.8806 19.2973 10.857C19.2955 10.8571 19.2935 10.8562 19.2915 10.8553C19.2331 10.8344 19.1748 10.8154 19.1166 10.7972C19.1085 10.7947 19.1009 10.7924 19.0932 10.7897C19.0419 10.7741 18.9907 10.7595 18.9393 10.7466C18.9291 10.7437 18.918 10.7404 18.908 10.7378C18.8496 10.723 18.7914 10.7096 18.7339 10.6982C18.6642 10.6845 18.5941 10.6709 18.5234 10.658C17.4599 10.4651 16.236 10.4073 14.3324 11.3461C13.3203 11.8453 12.1898 12.584 10.8754 13.6037C10.603 13.8146 10.3341 14.0169 10.0583 14.22C10.0392 14.2336 10.0206 14.2474 10.0016 14.2612C7.5022 13.251 6.51125 11.1817 6.20637 10.3622Z" fill="#2F6CAD"/>
<path d="M14.7139 18.739L14.7348 18.3641L14.3967 18.5256C9.39981 20.9024 6.23908 18.283 5.36542 17.3953C5.6529 17.3089 6.1027 17.1451 6.72461 16.8383C7.72028 16.3473 8.84173 15.6494 10.0673 14.7623L10.0677 14.7624L10.1653 14.6912C10.212 14.6575 10.2561 14.6233 10.3019 14.5901C10.4055 14.5136 10.5091 14.4378 10.6143 14.359C10.7726 14.2404 10.9301 14.1203 11.0878 13.9982C11.1077 13.9831 11.1271 13.9686 11.1468 13.9532C12.4374 12.9521 13.5435 12.2292 14.5285 11.7434C16.1976 10.9202 17.2706 10.9049 18.238 11.0581C18.376 11.0799 18.5119 11.1049 18.6471 11.1323C18.7092 11.1452 18.7737 11.16 18.8396 11.1783C18.8514 11.1816 18.8631 11.1845 18.8747 11.1879C19.0835 11.2464 19.3084 11.3296 19.5469 11.4382L19.5646 11.4457C19.6412 11.4811 19.7181 11.5179 19.7945 11.556C19.8013 11.5598 19.8081 11.5637 19.8156 11.5672C19.9779 11.6505 20.1386 11.7395 20.296 11.8336C20.3028 11.8374 20.3101 11.8422 20.3175 11.8457C20.3927 11.8905 20.4669 11.9373 20.5402 11.9837C20.5514 11.9911 20.5617 11.9974 20.5736 12.0044C20.7196 12.0977 20.8609 12.1928 20.9958 12.2874C21.0074 12.2953 21.0195 12.3038 21.0305 12.3116C21.0946 12.3569 21.1576 12.4017 21.2177 12.4459C21.2298 12.4544 21.2404 12.4628 21.2522 12.4714C21.309 12.5127 21.3642 12.5541 21.4183 12.5945C21.4236 12.5991 21.4294 12.6023 21.4345 12.6073C21.4905 12.6502 21.5444 12.6911 21.5962 12.7315C21.608 12.7408 21.6198 12.7494 21.6313 12.7582C21.6811 12.7976 21.7282 12.8355 21.7734 12.8719C21.7819 12.8775 21.7893 12.8841 21.7972 12.8909C21.8388 12.9245 21.8792 12.9565 21.9164 12.9882C21.9216 12.9917 21.9264 12.9954 21.9313 13.0006C21.9708 13.0323 22.0066 13.0627 22.0401 13.0913C22.0479 13.0981 22.0557 13.1045 22.0638 13.1111C22.0953 13.1372 22.1238 13.1619 22.1489 13.1836C22.1533 13.1871 22.1569 13.1906 22.1611 13.1938C22.1837 13.2134 22.2039 13.2315 22.2207 13.2456C22.2239 13.2489 22.2278 13.2523 22.2306 13.2547C22.2465 13.2685 22.2587 13.2795 22.2679 13.2875C22.2816 13.2997 22.2896 13.3075 22.2909 13.308C22.2924 13.3095 22.2962 13.3133 22.2999 13.3168C22.4223 13.4459 23.9264 15.1385 21.3239 18.0507C21.2518 18.1313 21.1757 18.2105 21.0965 18.2882C21.0773 18.3076 21.056 18.326 21.0365 18.3455C20.9744 18.4049 20.9112 18.4642 20.8453 18.522C20.8247 18.5402 20.8026 18.5575 20.7818 18.5761C20.7114 18.6347 20.6404 18.6944 20.5659 18.7531C20.5495 18.7661 20.5324 18.7783 20.5157 18.7911C20.4315 18.8557 20.3458 18.9185 20.2562 18.9805C20.2478 18.9865 20.2391 18.9927 20.231 18.9986C19.7226 19.3486 19.1309 19.6621 18.4637 19.9369C18.4398 19.9468 18.4158 19.9567 18.3918 19.9671C18.2863 20.0092 18.1786 20.0506 18.0702 20.0912C18.0225 20.1083 17.9757 20.1264 17.9281 20.1435C17.8396 20.1754 17.7491 20.2063 17.6583 20.2367C17.5842 20.2615 17.5106 20.2861 17.4366 20.3097C17.3702 20.3311 17.3033 20.3515 17.2353 20.3718C17.1337 20.4033 17.0309 20.4332 16.9291 20.4618C16.8887 20.4737 16.8485 20.4845 16.8079 20.4958C16.6792 20.5308 16.5509 20.5657 16.423 20.5969C16.4101 20.6007 16.3967 20.6035 16.3839 20.6067C14.8503 20.986 13.3907 21.1358 12.5134 21.1944C14.5887 19.8146 14.707 18.8535 14.7139 18.739Z" fill="#2F6CAD"/>
<path d="M27.2807 8.11118L27.3311 8.32169C29.3918 16.9656 24.2478 21.531 19.5685 23.8388C17.4208 24.898 15.6638 25.307 15.6462 25.3112L15.606 25.3204L15.5715 25.3427C13.6151 26.6585 10.5321 29.6637 8.84602 31.3601C10.6472 28.4793 13.5957 25.049 13.6304 25.0088C13.6304 25.0088 11.4672 26.1965 10.4026 26.7216C9.55606 27.1391 8.78851 27.391 8.21063 27.5411C9.34018 26.7521 11.4104 25.1899 13.9683 22.7329C14.3864 22.3319 14.8077 21.8543 15.2218 21.3139C16.5332 21.0757 18.021 20.6819 19.3429 20.0299C19.6462 19.8803 19.9296 19.7209 20.1959 19.5524C20.1971 19.5518 20.1987 19.551 20.1999 19.5504C20.307 19.4825 20.4112 19.414 20.512 19.3434C20.5229 19.3354 20.5343 19.3279 20.545 19.3196C20.6346 19.2568 20.7217 19.1923 20.8063 19.127C20.8243 19.1121 20.8442 19.0985 20.8617 19.0842C20.9381 19.0238 21.0111 18.9628 21.083 18.9011C21.1058 18.882 21.129 18.8629 21.1513 18.8436C21.2192 18.7839 21.2845 18.7226 21.3479 18.6606C21.3702 18.6397 21.3933 18.6189 21.4148 18.598C21.4974 18.5156 21.5773 18.4318 21.6532 18.3467C24.6309 15.0149 22.6182 13.0096 22.5941 12.9862C22.5904 12.9823 22.5816 12.9745 22.5709 12.9643C22.5699 12.964 22.5699 12.964 22.5692 12.9632C22.3793 12.7919 21.1895 11.7426 19.903 11.1153C19.9742 10.8593 20.0115 10.7143 20.0115 10.7143L20.025 10.661L20.0119 10.6068C19.9982 10.5529 18.7444 5.2303 22.2616 3.49569C22.735 3.2622 23.2818 3.09979 23.8893 3.01281C23.9115 3.00944 26.1404 2.69432 27.6325 5.24634L27.6605 5.29469L30.7632 7.19226L27.2807 8.11118Z" fill="#2F6CAD"/>
</svg>
