<svg width="13" height="21" viewBox="0 0 13 21" fill="none" xmlns="http://www.w3.org/2000/svg">
<path d="M6.4481 20.2231C6.33831 20.2226 6.22965 20.2008 6.1281 20.1591C5.99204 20.0983 5.87589 20.0004 5.79294 19.8765C5.70998 19.7527 5.6636 19.6081 5.6591 19.4591V11.8491L1.99411 15.1491C1.96486 15.1759 1.93058 15.1966 1.89326 15.2101C1.85595 15.2235 1.81633 15.2295 1.77672 15.2275C1.7371 15.2255 1.69827 15.2158 1.66246 15.1987C1.62665 15.1816 1.59457 15.1576 1.5681 15.1281L0.929105 14.4041C0.902316 14.3749 0.881587 14.3406 0.868131 14.3033C0.854675 14.266 0.848753 14.2263 0.850706 14.1867C0.852659 14.1471 0.862454 14.1083 0.879514 14.0725C0.896575 14.0367 0.920565 14.0046 0.950101 13.9781L5.27611 10.1001L0.950101 6.20011C0.920565 6.17363 0.896575 6.14156 0.879514 6.10575C0.862454 6.06994 0.852659 6.03111 0.850706 5.99149C0.848753 5.95187 0.854675 5.91226 0.868131 5.87495C0.881587 5.83763 0.902316 5.80336 0.929105 5.77411L1.5681 5.05011C1.59457 5.02057 1.62665 4.99658 1.66246 4.97952C1.69827 4.96246 1.7371 4.95267 1.77672 4.95071C1.81633 4.94876 1.85595 4.95468 1.89326 4.96814C1.93058 4.9816 1.96486 5.00232 1.99411 5.02911L5.6591 8.32911V0.768107C5.65938 0.618148 5.70408 0.471631 5.78755 0.347049C5.87102 0.222468 5.98951 0.125404 6.1281 0.0681073C6.26449 0.00844893 6.41504 -0.0111942 6.56218 0.0114696C6.70931 0.0341333 6.84698 0.0981688 6.9591 0.196107L12.1591 4.86311C12.2397 4.93577 12.3041 5.02455 12.3482 5.12368C12.3923 5.22282 12.415 5.33011 12.415 5.43861C12.415 5.5471 12.3923 5.65439 12.3482 5.75353C12.3041 5.85267 12.2397 5.94144 12.1591 6.01411L7.61911 10.1011L12.1581 14.1921C12.2387 14.2648 12.3031 14.3535 12.3472 14.4527C12.3913 14.5518 12.414 14.6591 12.414 14.7676C12.414 14.8761 12.3913 14.9834 12.3472 15.0825C12.3031 15.1817 12.2387 15.2704 12.1581 15.3431L6.9801 20.0311C6.83093 20.1565 6.64195 20.2246 6.4471 20.2231H6.4481ZM7.2361 11.8491V17.6881L10.4751 14.7691L7.2361 11.8491ZM7.2361 2.51611V8.35511L10.4751 5.43611L7.2361 2.51611Z" fill="#008080"/>
</svg>
