<svg width="11" height="9" viewBox="0 0 11 9" fill="none" xmlns="http://www.w3.org/2000/svg">
<path d="M5.5 9C5.35097 9 5.20371 8.95396 5.07597 8.86358C4.99081 8.8022 4.88613 8.72888 4.76371 8.64362C3.33903 7.64778 0 5.31338 0 3.06934C0 1.37779 1.43177 0 3.19355 0C4.06645 0 4.90032 0.347859 5.5 0.946381C6.09968 0.347859 6.93355 0 7.80645 0C9.56823 0 11 1.37779 11 3.06934C11 5.31338 7.66097 7.64778 6.23629 8.64532C6.11387 8.73058 6.00919 8.8039 5.92403 8.86529C5.79629 8.95566 5.64903 9 5.5 9ZM3.19355 0.682077C1.82387 0.682077 0.709677 1.75294 0.709677 3.06934C0.709677 4.96722 3.95823 7.23854 5.18064 8.09284C5.30484 8.1798 5.41306 8.25654 5.5 8.31792C5.58339 8.25483 5.69161 8.1798 5.81758 8.09284C7.04177 7.23683 10.2903 4.96552 10.2903 3.06934C10.2903 1.75294 9.17613 0.682077 7.80645 0.682077C7.00984 0.682077 6.25581 1.05381 5.78742 1.67791C5.72 1.76658 5.61355 1.81944 5.5 1.81944C5.38645 1.81944 5.27823 1.76658 5.21258 1.67791C4.74419 1.05381 3.99016 0.682077 3.19355 0.682077Z" fill="#2F6CAD"/>
</svg>
