<svg xmlns="http://www.w3.org/2000/svg" width="27.273" height="26.167" viewBox="0 0 27.273 26.167">
  <g id="Group_79" data-name="Group 79" transform="translate(0)">
    <g id="Group_78" data-name="Group 78" transform="translate(8.473 7.695)">
      <path id="Path_328" data-name="Path 328" d="M1038.559,1013.734c.019.012.04.023.059.032a.676.676,0,0,0,.792-.137l0,0a1.908,1.908,0,0,0,.453-1.159,3.39,3.39,0,0,0-.54-2.138,1.776,1.776,0,0,0-.743-.683.922.922,0,0,0-.963.111,1.236,1.236,0,0,0-.33.841,3.929,3.929,0,0,0,.781,2.669A1.767,1.767,0,0,0,1038.559,1013.734Z" transform="translate(-1030.301 -1009.117)" fill="#fff"/>
      <path id="Path_329" data-name="Path 329" d="M846.924,989.661a1.936,1.936,0,0,0,.632.376c.024.008.047.014.07.019a.734.734,0,0,0,.807-.337l0,0a2.08,2.08,0,0,0,.2-1.339,3.682,3.682,0,0,0-1.09-2.137,1.921,1.921,0,0,0-.953-.546,1,1,0,0,0-1,.351,1.349,1.349,0,0,0-.146.972A4.277,4.277,0,0,0,846.924,989.661Z" transform="translate(-842.019 -985.676)" fill="#fff"/>
      <path id="Path_330" data-name="Path 330" d="M691.971,1108.819c0-.025,0-.049,0-.073a1.9,1.9,0,0,0-.2-.708,4.271,4.271,0,0,0-2.17-2.109,1.35,1.35,0,0,0-.977-.111,1,1,0,0,0-.6.87,1.925,1.925,0,0,0,.28,1.063,3.68,3.68,0,0,0,1.781,1.606,2.089,2.089,0,0,0,1.345.154h0A.735.735,0,0,0,691.971,1108.819Z" transform="translate(-687.547 -1103.53)" fill="#fff"/>
      <path id="Path_331" data-name="Path 331" d="M907.6,1252.286a6.074,6.074,0,0,0-3.394-.622,1.642,1.642,0,0,0-1.263.969,6.071,6.071,0,0,0-.279,3.438,2.863,2.863,0,0,0,.823,1.535,1.462,1.462,0,0,0,1.641.238c.67-.394.745-1.327,1.406-1.835s1.582-.337,2.137-.882a1.459,1.459,0,0,0,.2-1.646A2.874,2.874,0,0,0,907.6,1252.286Z" transform="translate(-898.069 -1246.671)" fill="#fff"/>
      <path id="Path_332" data-name="Path 332" d="M666.144,1300.541a3.925,3.925,0,0,0-2.375-1.446,1.24,1.24,0,0,0-.9.1.925.925,0,0,0-.358.9,1.776,1.776,0,0,0,.468.895,3.382,3.382,0,0,0,1.925,1.075,1.907,1.907,0,0,0,1.237-.136l0,0a.676.676,0,0,0,.338-.729c0-.021-.01-.043-.016-.065A1.758,1.758,0,0,0,666.144,1300.541Z" transform="translate(-662.503 -1293.225)" fill="#fff"/>
    </g>
    <path id="Path_338" data-name="Path 338" d="M192.608,210.517a8.177,8.177,0,0,0-1.553-4.615,6.521,6.521,0,0,0-5.526-2.646,6.9,6.9,0,0,0-4.56,2.02,8.712,8.712,0,0,0-1.474,1.949l-.118-.136a10.383,10.383,0,0,0-4.523-3.15c-2.787-.875-6.226-.319-7.983,2.2a5.747,5.747,0,0,0-.314.5,9.518,9.518,0,0,0-1.2,5.166c.375,7.55,8.54,15.38,15.43,17.61A27.776,27.776,0,0,1,168.862,218.6c-1.947-3.3-3.156-7.579-1.14-11.113a4.345,4.345,0,0,1,1.137-1.353,6.21,6.21,0,0,1,5.83-.638,10.143,10.143,0,0,1,4.256,3.483c.014.017.9,1.292.942,1.347l.5-1.416.015-.043.021-.055A6.917,6.917,0,0,1,180.8,208a5.725,5.725,0,0,1,5.074-3.327,5.324,5.324,0,0,1,4.469,2.443,8.464,8.464,0,0,1,1.083,5.648c-.619,4.777-4.183,10.218-7.518,13.617a26.045,26.045,0,0,0,2.683-2.589c2.611-2.929,5.04-6.686,5.824-10.586A11.87,11.87,0,0,0,192.608,210.517Z" transform="translate(-165.345 -203.243)" fill="#fff"/>
  </g>
</svg>
