<svg width="10" height="9" viewBox="0 0 10 9" fill="none" xmlns="http://www.w3.org/2000/svg">
<path d="M9.14684 0.662279V0.52941C9.14684 0.237308 8.90954 0 8.61743 0C8.32533 0 8.08802 0.237308 8.08802 0.52941V0.661763H7.50537V0.52941C7.50537 0.237308 7.26806 0 6.97596 0C6.68386 0 6.44655 0.237308 6.44655 0.52941V0.661763H5.86389V0.52941C5.86389 0.237308 5.62658 0 5.33448 0C5.04238 0 4.80507 0.237308 4.80507 0.52941V0.661763H4.22242V0.52941C4.22242 0.237308 3.98511 0 3.69301 0C3.4009 0 3.1636 0.237308 3.1636 0.52941V0.661763H2.58094V0.52941C2.58094 0.237308 2.34363 0 2.05153 0C1.75943 0 1.52212 0.237308 1.52212 0.52941V0.662279C1.05113 0.666415 0.669067 1.05055 0.669067 1.52205V8.10196C0.669067 8.59725 1.07182 9 1.56711 9H9.10194C9.59723 9 9.99998 8.59725 9.99998 8.10196V1.52205C9.99998 1.05003 9.61784 0.665892 9.14684 0.662279ZM8.48508 0.52941C8.48508 0.456513 8.54454 0.397058 8.61743 0.397058C8.69033 0.397058 8.74979 0.456513 8.74979 0.52941V1.19117C8.74979 1.26407 8.69033 1.32353 8.61743 1.32353C8.54454 1.32353 8.48508 1.26407 8.48508 1.19117V0.52941ZM6.84365 0.52941C6.84365 0.456513 6.9031 0.397058 6.976 0.397058C7.04889 0.397058 7.10835 0.456513 7.10835 0.52941V1.19117C7.10835 1.26407 7.04889 1.32353 6.976 1.32353C6.9031 1.32353 6.84365 1.26407 6.84365 1.19117V0.52941ZM5.20221 0.52941C5.20221 0.456513 5.26166 0.397058 5.33456 0.397058C5.40746 0.397058 5.46691 0.456513 5.46691 0.52941V1.19117C5.46691 1.26407 5.40746 1.32353 5.33456 1.32353C5.26166 1.32353 5.20221 1.26407 5.20221 1.19117V0.52941ZM3.56077 0.52941C3.56077 0.456513 3.62023 0.397058 3.69312 0.397058C3.76602 0.397058 3.82548 0.456513 3.82548 0.52941V1.19117C3.82548 1.26407 3.76602 1.32353 3.69312 1.32353C3.62023 1.32353 3.56077 1.26407 3.56077 1.19117V0.52941ZM1.91934 0.52941C1.91934 0.456513 1.97879 0.397058 2.05169 0.397058C2.12459 0.397058 2.18404 0.456513 2.18404 0.52941V1.19117C2.18404 1.26407 2.12459 1.32353 2.05169 1.32353C1.97879 1.32353 1.91934 1.26407 1.91934 1.19117V0.52941ZM1.06628 1.52205C1.06628 1.26923 1.26999 1.06348 1.52228 1.05934V1.19117C1.52228 1.48327 1.75959 1.72058 2.05169 1.72058C2.34379 1.72058 2.5811 1.48327 2.5811 1.19117V1.05882H3.16375V1.19117C3.16375 1.48327 3.40106 1.72058 3.69316 1.72058C3.98527 1.72058 4.22257 1.48327 4.22257 1.19117V1.05882H4.80523V1.19117C4.80523 1.48327 5.04254 1.72058 5.33464 1.72058C5.62674 1.72058 5.86405 1.48327 5.86405 1.19117V1.05882H6.44671V1.19117C6.44671 1.48327 6.68401 1.72058 6.97612 1.72058C7.26822 1.72058 7.50553 1.48327 7.50553 1.19117V1.05882H8.08818V1.19117C8.08818 1.48327 8.32549 1.72058 8.61759 1.72058C8.90969 1.72058 9.147 1.48327 9.147 1.19117V1.05934C9.39878 1.06347 9.603 1.26872 9.603 1.52205V2.31617H1.06626L1.06628 1.52205ZM9.60302 8.10196C9.60302 8.37804 9.37813 8.60294 9.10204 8.60294H1.56721C1.29114 8.60294 1.06623 8.37805 1.06623 8.10196V2.71323H9.60297L9.60302 8.10196Z" fill="black"/>
<path d="M3.84544 4.36773H4.83808C4.94769 4.36773 5.03661 4.2788 5.03661 4.1692V3.17656C5.03661 3.06695 4.94769 2.97803 4.83808 2.97803H3.84544C3.73584 2.97803 3.64691 3.06695 3.64691 3.17656V4.1692C3.64691 4.2788 3.73584 4.36773 3.84544 4.36773ZM4.04397 3.37509H4.63956V3.97067H4.04397V3.37509Z" fill="black"/>
<path d="M5.83073 4.36773H6.82338C6.93298 4.36773 7.0219 4.2788 7.0219 4.1692V3.17656C7.0219 3.06695 6.93298 2.97803 6.82338 2.97803H5.83073C5.72113 2.97803 5.6322 3.06695 5.6322 3.17656V4.1692C5.6322 4.2788 5.72113 4.36773 5.83073 4.36773ZM6.02926 3.37509H6.62485V3.97067H6.02926V3.37509Z" fill="black"/>
<path d="M7.81608 4.36773H8.80873C8.91833 4.36773 9.00726 4.2788 9.00726 4.1692V3.17656C9.00726 3.06695 8.91833 2.97803 8.80873 2.97803H7.81608C7.70648 2.97803 7.61755 3.06695 7.61755 3.17656V4.1692C7.61755 4.2788 7.70648 4.36773 7.81608 4.36773ZM8.01461 3.37509H8.6102V3.97067H8.01461V3.37509Z" fill="black"/>
<path d="M1.86021 6.35284H2.85286C2.96246 6.35284 3.05138 6.26391 3.05138 6.15431V5.16166C3.05138 5.05206 2.96246 4.96313 2.85286 4.96313H1.86021C1.75061 4.96313 1.66168 5.05206 1.66168 5.16166V6.15431C1.66168 6.26391 1.75061 6.35284 1.86021 6.35284ZM2.05874 5.36019H2.65433V5.95578H2.05874V5.36019Z" fill="black"/>
<path d="M3.84544 6.35284H4.83808C4.94769 6.35284 5.03661 6.26391 5.03661 6.15431V5.16166C5.03661 5.05206 4.94769 4.96313 4.83808 4.96313H3.84544C3.73584 4.96313 3.64691 5.05206 3.64691 5.16166V6.15431C3.64691 6.26391 3.73584 6.35284 3.84544 6.35284ZM4.04397 5.36019H4.63956V5.95578H4.04397V5.36019Z" fill="black"/>
<path d="M5.83073 6.35284H6.82338C6.93298 6.35284 7.0219 6.26391 7.0219 6.15431V5.16166C7.0219 5.05206 6.93298 4.96313 6.82338 4.96313H5.83073C5.72113 4.96313 5.6322 5.05206 5.6322 5.16166V6.15431C5.6322 6.26391 5.72113 6.35284 5.83073 6.35284ZM6.02926 5.36019H6.62485V5.95578H6.02926V5.36019Z" fill="black"/>
<path d="M7.81608 6.35284H8.80873C8.91833 6.35284 9.00726 6.26391 9.00726 6.15431V5.16166C9.00726 5.05206 8.91833 4.96313 8.80873 4.96313H7.81608C7.70648 4.96313 7.61755 5.05206 7.61755 5.16166V6.15431C7.61755 6.26391 7.70648 6.35284 7.81608 6.35284ZM8.01461 5.36019H8.6102V5.95578H8.01461V5.36019Z" fill="black"/>
<path d="M1.86021 8.33819H2.85286C2.96246 8.33819 3.05138 8.24926 3.05138 8.13966V7.14702C3.05138 7.03741 2.96246 6.94849 2.85286 6.94849H1.86021C1.75061 6.94849 1.66168 7.03741 1.66168 7.14702V8.13966C1.66168 8.24926 1.75061 8.33819 1.86021 8.33819ZM2.05874 7.34554H2.65433V7.94113H2.05874V7.34554Z" fill="black"/>
<path d="M3.84544 8.33819H4.83808C4.94769 8.33819 5.03661 8.24926 5.03661 8.13966V7.14702C5.03661 7.03741 4.94769 6.94849 4.83808 6.94849H3.84544C3.73584 6.94849 3.64691 7.03741 3.64691 7.14702V8.13966C3.64691 8.24926 3.73584 8.33819 3.84544 8.33819ZM4.04397 7.34554H4.63956V7.94113H4.04397V7.34554Z" fill="black"/>
<path d="M5.83073 8.33819H6.82338C6.93298 8.33819 7.0219 8.24926 7.0219 8.13966V7.14702C7.0219 7.03741 6.93298 6.94849 6.82338 6.94849H5.83073C5.72113 6.94849 5.6322 7.03741 5.6322 7.14702V8.13966C5.6322 8.24926 5.72113 8.33819 5.83073 8.33819ZM6.02926 7.34554H6.62485V7.94113H6.02926V7.34554Z" fill="black"/>
</svg>
