<svg xmlns="http://www.w3.org/2000/svg" width="19.27" height="16.465" viewBox="0 0 19.27 16.465">
  <path id="Path_3630" data-name="Path 3630" d="M8.112,16.678h.965a.482.482,0,0,1,.478.482v.965a.482.482,0,0,1-.478.482H8.112a.485.485,0,0,1-.482-.482V17.16A.485.485,0,0,1,8.112,16.678ZM4.876,11.147h.36V10a.23.23,0,1,1,.46,0v1.152H8.773V10a.23.23,0,1,1,.46,0v1.152h3.073V10a.232.232,0,1,1,.464,0v1.152h3.072V10a.232.232,0,1,1,.464,0v1.152h3.073V10a.232.232,0,1,1,.464,0v1.152H20.2a1.98,1.98,0,0,1,1.976,1.976v11.13A1.983,1.983,0,0,1,20.2,26.228H4.876A1.982,1.982,0,0,1,2.9,24.252V13.123a1.979,1.979,0,0,1,1.972-1.976Zm.82.464v.856a.621.621,0,1,1-.461,0v-.856h-.36a1.516,1.516,0,0,0-1.511,1.511V14.48H21.71V13.123A1.514,1.514,0,0,0,20.2,11.611h-.355v.856a.623.623,0,1,1-.464,0v-.856H16.306v.856a.624.624,0,1,1-.465,0v-.856H12.769v.856a.628.628,0,0,1,.391.578.621.621,0,1,1-.856-.578v-.856H9.232v.856a.629.629,0,0,1,.392.578.622.622,0,1,1-.852-.578v-.856ZM21.71,14.944H3.364v9.309a1.516,1.516,0,0,0,1.511,1.511H20.2a1.513,1.513,0,0,0,1.511-1.511ZM16,22.1h.965a.482.482,0,0,1,.478.483v.965a.482.482,0,0,1-.478.483H16a.485.485,0,0,1-.482-.483v-.965A.485.485,0,0,1,16,22.1Zm0,.464h.965a.019.019,0,0,1,.018.018v.965a.019.019,0,0,1-.018.018H16a.019.019,0,0,1-.018-.018v-.965A.019.019,0,0,1,16,22.564ZM13.37,22.1h.965a.486.486,0,0,1,.482.483v.965a.486.486,0,0,1-.482.483H13.37a.485.485,0,0,1-.482-.483v-.965A.485.485,0,0,1,13.37,22.1Zm0,.464h.965a.019.019,0,0,1,.018.018v.965a.02.02,0,0,1-.018.018H13.37a.02.02,0,0,1-.018-.018v-.965A.02.02,0,0,1,13.37,22.564ZM10.744,22.1H11.7a.486.486,0,0,1,.482.483v.965a.486.486,0,0,1-.482.483h-.961a.483.483,0,0,1-.483-.483v-.965A.483.483,0,0,1,10.744,22.1Zm0,.464H11.7a.017.017,0,0,1,.018.018v.965a.017.017,0,0,1-.018.018h-.961a.02.02,0,0,1-.022-.018v-.965C10.721,22.573,10.73,22.564,10.744,22.564ZM8.112,22.1h.965a.482.482,0,0,1,.478.483v.965a.482.482,0,0,1-.478.483H8.112a.485.485,0,0,1-.482-.483v-.965A.486.486,0,0,1,8.112,22.1Zm0,.464h.965a.02.02,0,0,1,.018.018v.965a.02.02,0,0,1-.018.018H8.112a.019.019,0,0,1-.018-.018v-.965A.02.02,0,0,1,8.112,22.564ZM5.482,22.1h.965a.486.486,0,0,1,.482.483v.965a.486.486,0,0,1-.482.483H5.482A.485.485,0,0,1,5,23.548v-.965A.485.485,0,0,1,5.482,22.1Zm0,.464h.965a.019.019,0,0,1,.018.018v.965a.019.019,0,0,1-.018.018H5.482a.019.019,0,0,1-.018-.018v-.965A.019.019,0,0,1,5.482,22.564Zm0-3.173h.965a.485.485,0,0,1,.482.482v.961a.483.483,0,0,1-.482.483H5.482A.483.483,0,0,1,5,20.833v-.961A.485.485,0,0,1,5.482,19.391Zm0,.464h.965a.017.017,0,0,1,.018.018v.961a.02.02,0,0,1-.018.022H5.482a.02.02,0,0,1-.018-.022v-.961A.017.017,0,0,1,5.482,19.855Zm2.63-.464h.965a.482.482,0,0,1,.478.482v.961a.479.479,0,0,1-.478.483H8.112a.483.483,0,0,1-.482-.483v-.961A.486.486,0,0,1,8.112,19.391Zm0,.464h.965a.017.017,0,0,1,.018.018v.961a.021.021,0,0,1-.018.022H8.112a.02.02,0,0,1-.018-.022v-.961A.017.017,0,0,1,8.112,19.855Zm2.632-.464H11.7a.485.485,0,0,1,.482.482v.961a.483.483,0,0,1-.482.483h-.961a.48.48,0,0,1-.483-.483v-.961A.483.483,0,0,1,10.744,19.391Zm0,.464H11.7c.013,0,.018,0,.018.018v.961c0,.014,0,.022-.018.022h-.961a.021.021,0,0,1-.022-.022v-.961C10.721,19.86,10.73,19.855,10.744,19.855Zm2.626-.464h.965a.485.485,0,0,1,.482.482v.961a.483.483,0,0,1-.482.483H13.37a.483.483,0,0,1-.482-.483v-.961A.485.485,0,0,1,13.37,19.391Zm0,.464h.965a.017.017,0,0,1,.018.018v.961a.021.021,0,0,1-.018.022H13.37a.021.021,0,0,1-.018-.022v-.961A.017.017,0,0,1,13.37,19.855ZM16,19.391h.965a.482.482,0,0,1,.478.482v.961a.479.479,0,0,1-.478.483H16a.483.483,0,0,1-.482-.483v-.961A.485.485,0,0,1,16,19.391Zm0,.464h.965a.017.017,0,0,1,.018.018v.961a.02.02,0,0,1-.018.022H16a.02.02,0,0,1-.018-.022v-.961A.016.016,0,0,1,16,19.855Zm2.63-.464h.961a.486.486,0,0,1,.483.482v.961a.483.483,0,0,1-.483.483h-.961a.48.48,0,0,1-.482-.483v-.961A.483.483,0,0,1,18.632,19.391Zm0,.464h.961c.014,0,.018,0,.018.018v.961c0,.014,0,.022-.018.022h-.961a.021.021,0,0,1-.022-.022v-.961C18.61,19.86,18.619,19.855,18.632,19.855Zm0-3.177h.961a.486.486,0,0,1,.483.482v.965a.486.486,0,0,1-.483.482h-.961a.482.482,0,0,1-.482-.482V17.16A.482.482,0,0,1,18.632,16.678Zm0,.464h.961a.017.017,0,0,1,.018.018v.965a.016.016,0,0,1-.018.018h-.961a.02.02,0,0,1-.022-.018V17.16A.022.022,0,0,1,18.632,17.142ZM16,16.678h.965a.482.482,0,0,1,.478.482v.965a.482.482,0,0,1-.478.482H16a.485.485,0,0,1-.482-.482V17.16A.485.485,0,0,1,16,16.678Zm0,.464h.965a.02.02,0,0,1,.018.018v.965a.019.019,0,0,1-.018.018H16a.019.019,0,0,1-.018-.018V17.16A.019.019,0,0,1,16,17.142Zm-2.632-.464h.965a.485.485,0,0,1,.482.482v.965a.485.485,0,0,1-.482.482H13.37a.485.485,0,0,1-.482-.482V17.16A.485.485,0,0,1,13.37,16.678Zm0,.464h.965a.02.02,0,0,1,.018.018v.965a.02.02,0,0,1-.018.018H13.37a.02.02,0,0,1-.018-.018V17.16A.021.021,0,0,1,13.37,17.142Zm-2.626-.464H11.7a.485.485,0,0,1,.482.482v.965a.485.485,0,0,1-.482.482h-.961a.483.483,0,0,1-.483-.482V17.16A.483.483,0,0,1,10.744,16.678Zm0,.464H11.7a.018.018,0,0,1,.018.018v.965a.017.017,0,0,1-.018.018h-.961a.02.02,0,0,1-.022-.018V17.16C10.721,17.151,10.73,17.142,10.744,17.142Zm-2.632,0h.965a.02.02,0,0,1,.018.018v.965a.02.02,0,0,1-.018.018H8.112a.019.019,0,0,1-.018-.018V17.16A.021.021,0,0,1,8.112,17.142Z" transform="translate(-2.904 -9.763)" fill="#2f6cad" fill-rule="evenodd"/>
</svg>
