<svg id="vuesax_bold_call" data-name="vuesax/bold/call" xmlns="http://www.w3.org/2000/svg" width="21.848" height="21.848" viewBox="0 0 21.848 21.848">
  <g id="call">
    <path id="Vector" d="M8.239,11.789,6.554,13.473a.915.915,0,0,1-1.284.009c-.1-.1-.2-.191-.3-.291a25.866,25.866,0,0,1-2.54-2.977A16.229,16.229,0,0,1,.646,7.11,7.816,7.816,0,0,1,0,4.133,4.709,4.709,0,0,1,.328,2.376,4.19,4.19,0,0,1,1.375.856,2.667,2.667,0,0,1,3.268,0a1.711,1.711,0,0,1,.737.164,1.484,1.484,0,0,1,.61.51L6.727,3.65a3.115,3.115,0,0,1,.364.637,1.439,1.439,0,0,1,.127.555,1.236,1.236,0,0,1-.191.646,3.1,3.1,0,0,1-.51.646l-.692.719a.487.487,0,0,0-.146.364.827.827,0,0,0,.027.209c.027.073.055.127.073.182a7.554,7.554,0,0,0,.847,1.165c.41.473.847.956,1.32,1.438.091.091.191.182.282.273A.912.912,0,0,1,8.239,11.789Z" transform="translate(1.821 1.821)" fill="#fff"/>
    <path id="Vector-2" data-name="Vector" d="M11.261,3.905a2.312,2.312,0,0,1-.137.774,2.223,2.223,0,0,1-.091.218,3.756,3.756,0,0,1-.619.929A4.1,4.1,0,0,1,8.921,6.9c-.009,0-.018.009-.027.009a4.6,4.6,0,0,1-1.748.337,7.586,7.586,0,0,1-2.968-.665,15.989,15.989,0,0,1-3.132-1.8C.692,4.515.337,4.251,0,3.969L2.977.992a5.115,5.115,0,0,0,.674.437c.046.018.1.046.164.073a.629.629,0,0,0,.228.036.5.5,0,0,0,.373-.155L5.107.7a2.793,2.793,0,0,1,.655-.51A1.212,1.212,0,0,1,6.409,0a1.453,1.453,0,0,1,.555.118A3.521,3.521,0,0,1,7.6.473l3.013,2.139a1.381,1.381,0,0,1,.5.583A1.868,1.868,0,0,1,11.261,3.905Z" transform="translate(8.739 12.781)" fill="#fff"/>
    <path id="Vector-3" data-name="Vector" d="M0,0H21.848V21.848H0Z" transform="translate(21.848 21.848) rotate(180)" fill="none" opacity="0"/>
  </g>
</svg>
