<svg width="16" height="16" viewBox="0 0 16 16" fill="none" xmlns="http://www.w3.org/2000/svg">
<path d="M6.06353 4.4715C6.63816 3.87528 6.64279 3.15201 6.06631 2.56041C5.36378 1.839 4.64548 1.13151 3.93368 0.419378C3.76315 0.250616 3.56388 0.119878 3.33124 0.0540291C2.81869 -0.0934043 2.3868 0.0707195 2.01887 0.426784C1.61293 0.818079 1.23385 1.23907 0.815853 1.61645C0.239366 2.14127 -0.026634 2.78203 0.00209903 3.45151C0.00209903 4.15159 0.116099 4.76915 0.348722 5.45717C0.963196 7.27088 1.93637 8.87495 3.14586 10.3476C4.96057 12.5527 7.16089 14.2523 9.79408 15.3779C10.6171 15.7294 11.4735 15.9621 12.3753 15.9973C13.063 16.0233 13.6942 15.862 14.2002 15.3687C14.6673 14.9125 15.1252 14.4451 15.5812 13.9778C15.7971 13.7543 15.9491 13.4937 15.989 13.1776C16.0483 12.7167 15.8629 12.3467 15.5497 12.0315C15.0585 11.5354 14.5626 11.0439 14.0668 10.5506C13.8156 10.3012 13.5755 10.0378 13.3049 9.81437C12.785 9.38505 12.1538 9.39896 11.6366 9.83106C11.5365 9.91451 11.4466 10.0063 11.354 10.099C10.9768 10.4764 10.6014 10.8538 10.2242 11.2312C10.1482 11.3073 10.0722 11.3759 9.95632 11.3119C9.6171 11.1292 9.26583 10.9679 8.94331 10.7611C7.69026 9.95902 6.65127 8.92141 5.72811 7.76039C5.337 7.26895 4.995 6.74413 4.73825 6.16737C4.62704 5.91608 4.62889 5.90587 4.82167 5.71393C5.23688 5.30129 5.65673 4.89051 6.06454 4.47047L6.06353 4.4715Z" fill="#2F6CAD"/>
</svg>
