<svg width="21" height="8" viewBox="0 0 21 8" fill="none" xmlns="http://www.w3.org/2000/svg">
<path fill-rule="evenodd" clip-rule="evenodd" d="M1.06842 1.92255L2.39443 1.98902L4.71495 0.729483C5.44443 0.265025 6.23951 0 7.03547 0L10.815 0.0664728C11.8096 0.0664728 12.4726 0.331499 13.334 0.862434L16.516 2.85145C20.1625 3.05001 20.4275 3.71301 20.9586 5.50348C21.0915 6.1 20.9586 6.56446 20.2956 6.56446H19.434V6.29944C19.434 5.17197 18.506 4.24394 17.3785 4.24394C16.2511 4.24394 15.323 5.17197 15.323 6.29944V6.56446L5.90792 6.5636C5.90792 6.43065 5.97439 6.36504 5.97439 6.29857C5.97439 5.17111 5.04636 4.24308 3.9189 4.24308C2.72584 4.24308 1.8634 5.17111 1.8634 6.29857V6.5636H0.7368C0.338819 6.5636 -0.0591612 6.2321 0.00731622 5.76764L0.338819 2.65107C0.338819 2.25395 0.670437 1.92255 1.06842 1.92255ZM14.925 2.7841L12.936 1.52456C12.2065 1.06011 11.6765 0.861559 10.814 0.861559H10.2175V2.4526L14.925 2.7841ZM9.22295 0.795081H6.96895C5.84149 0.795081 5.57646 1.25954 4.78138 2.12109L9.22397 2.38612L9.22295 0.795081Z" fill="#2F6CAD"/>
<path fill-rule="evenodd" clip-rule="evenodd" d="M3.91897 4.55176C4.847 4.55176 5.64296 5.28124 5.64296 6.27575C5.64296 7.20378 4.847 7.99974 3.91897 7.99974C2.92446 7.99974 2.1285 7.20378 2.1285 6.27575C2.12936 5.28124 2.92446 4.55176 3.91897 4.55176ZM3.91897 5.41331C4.31695 5.41331 4.71493 5.81129 4.71493 6.27487C4.71493 6.73932 4.31695 7.07083 3.91897 7.07083C3.45451 7.07083 3.05741 6.73932 3.05741 6.27487C3.05741 5.81127 3.45539 5.41331 3.91897 5.41331Z" fill="#2F6CAD"/>
<path fill-rule="evenodd" clip-rule="evenodd" d="M17.3786 4.55176C18.3731 4.55176 19.1026 5.28124 19.1026 6.27575C19.1026 7.20378 18.3731 7.99974 17.3786 7.99974C16.4506 7.99974 15.6546 7.20378 15.6546 6.27575C15.6546 5.28124 16.4497 4.55176 17.3786 4.55176ZM17.3786 5.41331C17.8431 5.41331 18.2402 5.81129 18.2402 6.27487C18.2402 6.73932 17.8422 7.07083 17.3786 7.07083C16.9142 7.07083 16.5827 6.73932 16.5827 6.27487C16.5827 5.81127 16.9142 5.41331 17.3786 5.41331Z" fill="#2F6CAD"/>
</svg>
