<svg width="24" height="24" viewBox="0 0 24 24" fill="none" xmlns="http://www.w3.org/2000/svg">
<circle cx="12" cy="12" r="11.5" stroke="#2F6CAD"/>
<path d="M18.3468 10.1262H17.2715C17.1552 10.1262 17.0465 10.1565 16.9519 10.2065L16.5221 8.75633C16.097 7.61221 15.9853 7 14.2273 7H11.9992H9.76959C8.01164 7 7.90147 7.61221 7.47479 8.75633L7.045 10.2065C6.95035 10.1565 6.84174 10.1262 6.72537 10.1262H5.65167C5.2917 10.1262 5 10.396 5 10.7294C5 11.0627 5.2917 11.3325 5.65167 11.3325H6.17611C5.96199 11.5568 5.827 11.8462 5.827 12.1674V13.31V14.1253V16.1711C5.827 16.6272 6.23041 17 6.72382 17H7.22653C7.71994 17 8.12335 16.6272 8.12335 16.1711V15.3907H15.8689V16.1711C15.8689 16.6272 16.2723 17 16.7657 17H17.2684C17.7618 17 18.1652 16.6272 18.1652 16.1711V14.1253V13.31V12.1674C18.1652 11.8462 18.0303 11.5568 17.8161 11.3325H18.3483C18.7083 11.3325 19 11.0627 19 10.7294C18.9969 10.3975 18.7052 10.1262 18.3468 10.1262ZM8.26299 9.07607C8.61365 8.13199 8.7052 7.62737 10.1559 7.62737H11.9946H13.8332C15.2839 7.62737 15.3755 8.13199 15.7261 9.07607L16.2661 10.9006H7.72304L8.26299 9.07607ZM7.92164 13.7768C7.40031 13.7768 6.97673 13.3858 6.97673 12.9024C6.97673 12.4205 7.39876 12.028 7.92164 12.028C8.44298 12.028 8.86656 12.419 8.86656 12.9024C8.86656 13.3858 8.44453 13.7768 7.92164 13.7768ZM16.0753 13.7768C15.5539 13.7768 15.1303 13.3858 15.1303 12.9024C15.1303 12.4205 15.5524 12.028 16.0753 12.028C16.5966 12.028 17.0202 12.419 17.0202 12.9024C17.0186 13.3858 16.5966 13.7768 16.0753 13.7768Z" fill="#2F6CAD"/>
</svg>
