<svg width="18" height="18" viewBox="0 0 18 18" fill="none" xmlns="http://www.w3.org/2000/svg">
<g clip-path="url(#clip0_1_81)">
<path d="M8.101 4.81799V6.87699L7.373 6.62499C7.006 6.49599 6.783 6.37299 6.783 5.74699C6.77349 5.51133 6.85749 5.28146 7.0167 5.10746C7.17591 4.93345 7.39743 4.82941 7.633 4.81799H8.101Z" fill="#2F6CAD"/>
<path d="M10.498 9.53302C10.5075 9.76867 10.4235 9.99854 10.2643 10.1725C10.1051 10.3466 9.88357 10.4506 9.648 10.462H9.18V8.40302L9.907 8.65502C10.274 8.78502 10.498 8.90302 10.498 9.53302Z" fill="#2F6CAD"/>
<path d="M11.657 0.44001H5.623C5.06061 0.387601 4.49357 0.459809 3.96225 0.651492C3.43094 0.843176 2.94841 1.14962 2.54901 1.54902C2.14961 1.94842 1.84317 2.43095 1.65148 2.96226C1.4598 3.49358 1.38759 4.06061 1.44 4.62301V10.657C1.38759 11.2194 1.4598 11.7864 1.65148 12.3178C1.84317 12.8491 2.14961 13.3316 2.54901 13.731C2.94841 14.1304 3.43094 14.4368 3.96225 14.6285C4.49357 14.8202 5.06061 14.8924 5.623 14.84H11.657C12.2194 14.8924 12.7864 14.8202 13.3178 14.6285C13.8491 14.4368 14.3316 14.1304 14.731 13.731C15.1304 13.3316 15.4368 12.8491 15.6285 12.3178C15.8202 11.7864 15.8924 11.2194 15.84 10.657V4.62301C15.8924 4.06061 15.8202 3.49358 15.6285 2.96226C15.4368 2.43095 15.1304 1.94842 14.731 1.54902C14.3316 1.14962 13.8491 0.843176 13.3178 0.651492C12.7864 0.459809 12.2194 0.387601 11.657 0.44001ZM10.267 7.64001C10.6735 7.75076 11.0279 8.00151 11.2675 8.34803C11.5072 8.69454 11.6168 9.11457 11.577 9.53401C11.5864 10.0556 11.3886 10.5596 11.027 10.9356C10.6654 11.3116 10.1695 11.529 9.648 11.54H9.18V11.958C9.18 12.1012 9.12311 12.2386 9.02184 12.3398C8.92057 12.4411 8.78322 12.498 8.64 12.498C8.49679 12.498 8.35944 12.4411 8.25817 12.3398C8.1569 12.2386 8.1 12.1012 8.1 11.958V11.54H7.84C7.26231 11.5274 6.71311 11.2866 6.31247 10.8702C5.91184 10.4538 5.69235 9.89576 5.702 9.31801C5.702 9.17479 5.7589 9.03744 5.86017 8.93617C5.96143 8.8349 6.09879 8.77801 6.242 8.77801C6.38522 8.77801 6.52257 8.8349 6.62384 8.93617C6.72511 9.03744 6.782 9.17479 6.782 9.31801C6.77598 9.46274 6.79859 9.60723 6.84856 9.74319C6.89852 9.87915 6.97484 10.0039 7.07315 10.1103C7.17145 10.2167 7.2898 10.3026 7.4214 10.3631C7.55299 10.4237 7.69525 10.4576 7.84 10.463H8.1V8.02201L7.013 7.64001C6.60649 7.52926 6.25215 7.27851 6.01248 6.93199C5.77281 6.58548 5.66321 6.16545 5.703 5.74601C5.69362 5.22443 5.89139 4.72041 6.25298 4.3444C6.61456 3.96838 7.11046 3.75104 7.632 3.74001H8.1V3.32001C8.1 3.17679 8.1569 3.03944 8.25817 2.93817C8.35944 2.8369 8.49679 2.78001 8.64 2.78001C8.78322 2.78001 8.92057 2.8369 9.02184 2.93817C9.12311 3.03944 9.18 3.17679 9.18 3.32001V3.74001H9.44C10.0182 3.75262 10.5679 3.99385 10.9686 4.41088C11.3693 4.82791 11.5885 5.38675 11.578 5.96501C11.578 6.10823 11.5211 6.24558 11.4198 6.34685C11.3186 6.44812 11.1812 6.50501 11.038 6.50501C10.8948 6.50501 10.7574 6.44812 10.6562 6.34685C10.5549 6.24558 10.498 6.10823 10.498 5.96501C10.5043 5.82012 10.4819 5.67542 10.432 5.53922C10.3822 5.40303 10.3059 5.27803 10.2076 5.17143C10.1093 5.06483 9.99082 4.97873 9.85909 4.91807C9.72736 4.85742 9.58493 4.82341 9.44 4.81801H9.18V7.25901L10.267 7.64001Z" fill="#2F6CAD"/>
</g>
<defs>
<clipPath id="clip0_1_81">
<rect width="17.28" height="17.28" fill="white"/>
</clipPath>
</defs>
</svg>
