<svg width="24" height="30" viewBox="0 0 24 30" fill="none" xmlns="http://www.w3.org/2000/svg">
<path d="M0.000513077 6.88494C0.672745 6.61497 1.41003 6.55877 2.11449 6.72379C2.09158 6.61505 2.10202 6.50181 2.1444 6.39926C2.18679 6.29672 2.2591 6.20978 2.35162 6.15014C2.67648 5.93246 3.00016 5.7677 3.14006 5.354C3.20883 5.14835 3.26692 4.9427 3.34517 4.74547C2.83756 4.13748 2.1355 3.7297 1.36162 3.59336C1.35892 3.59428 1.35601 3.59428 1.35331 3.59336L1.34501 3.58615C2.13206 3.70068 2.84976 4.10578 3.36058 4.72383C3.376 4.68534 3.3926 4.64806 3.40919 4.61078C3.17423 4.03343 2.78901 3.5317 2.29471 3.15921C2.78836 3.49497 3.17547 3.96868 3.40919 4.52299C3.41398 4.53578 3.42035 4.54791 3.42816 4.55907C3.44832 4.51577 3.47085 4.47368 3.49575 4.43159C3.50523 3.96858 3.3594 2.50739 3.3594 2.50739C3.45755 3.11798 3.51892 3.73406 3.54317 4.35222C3.55621 4.33177 3.56925 4.30892 3.58348 4.28848C4.01239 3.75008 4.56479 3.32644 5.19238 3.05459C5.19817 3.05188 5.20299 3.04742 5.20617 3.04182C5.20935 3.03622 5.21075 3.02976 5.21016 3.02332C5.14535 2.30175 5.0837 1.58017 5.02521 0.858598C5.01243 0.721002 5.01243 0.582492 5.02521 0.444896C5.02667 0.433124 5.03041 0.42176 5.03621 0.411456C5.04201 0.401151 5.04976 0.39211 5.05901 0.384848C5.06826 0.377586 5.07884 0.372248 5.09013 0.369138C5.10142 0.366028 5.1132 0.365208 5.1248 0.366725C5.23388 0.381157 5.40579 0.600034 5.48049 0.684218C5.89309 1.16527 6.31043 1.64191 6.73251 2.11414C6.73708 2.11926 6.74025 2.12551 6.7417 2.13226C6.74316 2.13901 6.74285 2.14603 6.74081 2.15262C6.65824 2.49774 6.52896 2.82961 6.35667 3.13877C6.35667 3.14839 6.35667 3.152 6.36259 3.14959H6.37564C6.38347 3.14373 6.38894 3.13518 6.39105 3.12554C6.60341 2.71005 6.76505 2.26985 6.87242 1.81468C7.01351 1.22299 7.39291 -1.22675 8.34971 0.769604C8.53071 1.14562 8.71053 1.52164 8.88917 1.89766C9.27174 2.68962 9.71994 3.44719 10.2289 4.1622C10.2329 4.16624 10.2376 4.16944 10.2428 4.17163C10.248 4.17381 10.2535 4.17494 10.2592 4.17494C10.2648 4.17494 10.2703 4.17381 10.2755 4.17163C10.2807 4.16944 10.2854 4.16624 10.2894 4.1622L10.4815 4.00105C10.491 3.99263 10.4933 3.99504 10.4933 4.00706C10.4543 4.26768 10.383 4.52225 10.2811 4.76472L10.5301 4.47248C10.5301 4.47248 10.5455 4.46045 10.5431 4.47248C10.5194 4.64806 10.37 5.13993 10.3771 5.15076C10.3842 5.16158 10.5147 5.0305 10.5218 5.0305C10.4756 5.13826 10.4237 5.24344 10.3665 5.34558C10.365 5.34751 10.3641 5.34979 10.3637 5.35219C10.3634 5.35459 10.3636 5.35704 10.3644 5.35932C10.3653 5.3616 10.3666 5.36363 10.3684 5.36522C10.3702 5.36681 10.3724 5.36792 10.3748 5.36843C10.6233 5.47914 10.8235 5.67796 10.9379 5.92765C10.9386 5.93122 10.9386 5.9349 10.9379 5.93848C10.936 5.94025 10.9334 5.94123 10.9308 5.94123C10.9282 5.94123 10.9257 5.94025 10.9237 5.93848C10.9237 5.93848 10.5538 5.72681 10.5479 5.73403C10.5419 5.74125 10.9747 6.03228 11.0221 6.39908C11.0221 6.42073 11.0221 6.42434 11.002 6.4099C10.9066 6.29285 10.7845 6.2012 10.6463 6.14292C10.6237 6.13691 10.6214 6.14292 10.6368 6.15856L11.1644 6.73221C11.1727 6.74183 11.1703 6.74664 11.1644 6.74664C11.0992 6.74664 10.9842 6.66366 10.9771 6.66967C10.9699 6.67568 11.079 7.11103 11.0731 7.11464C11.0672 7.11825 10.6344 6.66125 10.6309 6.66486C10.6273 6.66847 10.7992 7.28782 10.8478 7.62696C10.8478 7.65342 10.8478 7.65702 10.8277 7.63658C10.7333 7.49294 10.6539 7.33979 10.5905 7.17958C10.5846 7.17958 10.8028 7.93483 10.7968 7.94445C10.7151 7.91984 10.6357 7.88763 10.5597 7.84824C10.5584 7.8476 10.557 7.84727 10.5556 7.84727C10.5541 7.84727 10.5527 7.8476 10.5514 7.84824C10.5506 7.84903 10.55 7.84996 10.5496 7.85099C10.5491 7.85203 10.5489 7.85313 10.5489 7.85425C10.5489 7.85537 10.5491 7.85648 10.5496 7.85752C10.55 7.85855 10.5506 7.85948 10.5514 7.86027C10.7078 8.17252 10.9074 8.46046 11.1442 8.71533C11.1442 8.72134 10.6463 8.46759 10.6415 8.47481C10.6368 8.48202 11.0126 8.82597 10.9581 8.80312C10.8538 8.75863 10.8111 8.76464 10.6771 8.71894C10.6771 8.71894 10.6771 8.71894 10.6676 8.71894C10.6581 8.71894 10.6676 8.71894 10.6676 8.72616C10.6676 8.73337 10.9937 8.9775 10.9925 8.98472C10.9913 8.99194 10.651 8.87528 10.651 8.87528C10.6609 8.89617 10.6766 8.91371 10.6961 8.92579C10.991 9.10287 11.2593 9.32198 11.4928 9.57641C11.4085 9.51371 11.3122 9.46974 11.2101 9.44736C11.1079 9.42498 11.0023 9.4247 10.9 9.44653C10.9 9.44653 11.481 9.79409 11.6019 9.90954C11.6422 9.94802 11.2699 9.82776 11.2723 9.83978C11.4333 9.96096 11.5869 10.0919 11.7323 10.2318C11.7655 10.2691 11.7596 10.2775 11.7145 10.2559C11.6043 10.2042 11.3387 10.0743 11.3327 10.0779C11.3268 10.0815 11.3233 10.0887 11.3327 10.0947C11.6378 10.3121 11.8913 10.5955 12.075 10.9246C12.0927 10.957 12.088 10.9618 12.0595 10.9366C11.8462 10.7577 11.6135 10.604 11.3659 10.4784C11.3648 10.4778 11.3636 10.4776 11.3624 10.4776C11.3612 10.4776 11.3599 10.4778 11.3588 10.4784C11.3578 10.48 11.3572 10.4819 11.3572 10.4838C11.3572 10.4857 11.3578 10.4876 11.3588 10.4892C11.7604 10.8729 12.13 11.2896 12.4638 11.7351C12.7046 12.0378 13.0386 12.2495 13.4123 12.3364C13.8096 12.4474 14.201 12.5791 14.5849 12.7309C14.8054 12.8148 15.0201 12.9136 15.2275 13.0267C15.2951 13.0628 15.2927 13.0676 15.2216 13.0424C15.0021 12.9651 14.7774 12.9036 14.5494 12.8584C14.4593 12.8403 14.4581 12.8475 14.5434 12.88C14.8428 12.9812 15.1251 13.1284 15.3805 13.3166C15.6397 13.5184 15.8846 13.7387 16.1132 13.9756C16.1141 13.9768 16.1145 13.9783 16.1145 13.9798C16.1145 13.9813 16.1141 13.9828 16.1132 13.984C16.1119 13.9852 16.1102 13.9859 16.1085 13.9859C16.1067 13.9859 16.105 13.9852 16.1037 13.984C15.8838 13.844 15.6497 13.7282 15.4054 13.6389C15.3852 13.6305 15.3781 13.6389 15.384 13.6581C15.39 13.6774 15.3912 13.6653 15.403 13.6665C15.4149 13.6684 15.4262 13.6729 15.4362 13.6798C15.9555 14.0495 16.4282 14.4825 16.8435 14.969C16.8425 14.9725 16.8425 14.9763 16.8435 14.9798C16.6882 14.8462 16.5225 14.7255 16.348 14.619C16.3466 14.6177 16.3451 14.6166 16.3433 14.6159C16.3416 14.6151 16.3397 14.6148 16.3379 14.6148C16.336 14.6148 16.3342 14.6151 16.3324 14.6159C16.3307 14.6166 16.3291 14.6177 16.3278 14.619C16.3265 14.6203 16.3254 14.6219 16.3247 14.6237C16.324 14.6254 16.3236 14.6273 16.3236 14.6292C16.3236 14.6311 16.324 14.633 16.3247 14.6348C16.3254 14.6365 16.3265 14.6381 16.3278 14.6395C16.7925 15.0828 17.2167 15.5678 17.5952 16.0886C17.5973 16.0912 17.5982 16.0944 17.5979 16.0977C17.5976 16.101 17.596 16.104 17.5935 16.1061C17.5909 16.1081 17.5877 16.1091 17.5845 16.1088C17.5813 16.1084 17.5783 16.1068 17.5763 16.1042C17.4245 15.9551 17.2704 15.8084 17.1139 15.6641C17.1079 15.6581 17.102 15.6569 17.0973 15.6641C17.0925 15.6713 17.0854 15.6749 17.0973 15.6833C17.6821 16.3906 18.115 17.2139 18.3683 18.1006C18.3687 18.1032 18.3683 18.1058 18.3673 18.1081C18.3662 18.1105 18.3645 18.1125 18.3623 18.1138C18.36 18.1158 18.3571 18.1169 18.354 18.1169C18.351 18.1169 18.3481 18.1158 18.3457 18.1138C18.212 17.8667 18.0569 17.632 17.8822 17.4127C17.8075 17.3177 17.7992 17.3225 17.8584 17.4283C18.1105 17.883 18.3194 18.361 18.4821 18.8558C18.5515 19.0244 18.6307 19.1887 18.7192 19.3477C18.7382 19.3874 18.7311 19.3934 18.6979 19.3646C18.5587 19.2456 18.4327 19.1118 18.322 18.9653C18.3207 18.9637 18.3191 18.9625 18.3172 18.9617C18.3154 18.9608 18.3134 18.9604 18.3114 18.9604C18.3093 18.9604 18.3073 18.9608 18.3055 18.9617C18.3037 18.9625 18.302 18.9637 18.3007 18.9653C18.2979 18.9682 18.2964 18.9721 18.2964 18.9761C18.2964 18.9801 18.2979 18.984 18.3007 18.9869C18.6156 19.548 18.8807 20.1364 19.0927 20.7452C19.1128 20.8041 19.1045 20.8089 19.0678 20.7572L18.7655 20.3423C18.7655 20.3423 18.7583 20.3423 18.7536 20.3423C18.7489 20.3423 18.7536 20.3483 18.7536 20.3543C18.8706 20.6053 18.9554 20.8704 19.0061 21.1432C19.054 21.5519 19.0368 21.9656 18.9552 22.3687C18.9401 22.4489 18.9259 22.4489 18.9125 22.3687C18.8727 22.1436 18.8058 21.9243 18.7133 21.7157C18.7122 21.7151 18.711 21.7149 18.7097 21.7149C18.7085 21.7149 18.7073 21.7151 18.7062 21.7157C18.7062 21.7157 18.6991 21.7157 18.7002 21.7241C18.7779 22.1762 18.8002 22.6363 18.7666 23.0939C18.6955 24.0632 18.607 25.0309 18.5011 25.997C18.4845 26.1449 18.4643 26.2953 18.4382 26.4456C18.4382 26.466 18.4382 26.4696 18.4584 26.4612C18.8027 26.2509 19.0978 25.967 19.323 25.6293C19.5482 25.2916 19.6982 24.9082 19.7626 24.5058C19.762 24.5043 19.7619 24.5027 19.762 24.5012C19.7622 24.4997 19.7628 24.4982 19.7637 24.4969C19.7645 24.4957 19.7657 24.4946 19.7671 24.4939C19.7684 24.4932 19.7699 24.4928 19.7715 24.4928C19.773 24.4928 19.7745 24.4932 19.7759 24.4939C19.7772 24.4946 19.7784 24.4957 19.7792 24.4969C19.7801 24.4982 19.7807 24.4997 19.7809 24.5012C19.7811 24.5027 19.7809 24.5043 19.7803 24.5058C19.8095 24.6977 19.8123 24.8927 19.7886 25.0854C19.7882 25.0877 19.7886 25.09 19.7897 25.0919C19.7908 25.0939 19.7925 25.0954 19.7946 25.0963C19.7953 25.0971 19.7963 25.0977 19.7973 25.0981C19.7983 25.0986 19.7994 25.0988 19.8005 25.0988C19.8016 25.0988 19.8027 25.0986 19.8037 25.0981C19.8047 25.0977 19.8057 25.0971 19.8064 25.0963C19.9679 24.7639 20.0756 24.4074 20.1254 24.0403C20.1505 23.7444 20.1581 23.4472 20.1479 23.1504C20.1479 23.1504 20.1479 23.1504 20.1538 23.1504C20.286 23.4256 20.3664 23.7233 20.3909 24.0283C20.3911 24.0317 20.3924 24.0349 20.3945 24.0375C20.3966 24.0402 20.3996 24.042 20.4028 24.0428C20.4069 24.0435 20.4111 24.0427 20.4146 24.0405C20.4181 24.0382 20.4207 24.0348 20.4218 24.0307C20.5425 23.2583 20.5297 22.4704 20.3838 21.7025C20.3834 21.6996 20.384 21.6967 20.3856 21.6943C20.3871 21.6919 20.3894 21.6901 20.3921 21.6892C20.395 21.688 20.3982 21.6879 20.401 21.6891C20.4039 21.6902 20.4063 21.6924 20.4075 21.6952L20.6103 22.3206C20.6111 22.3231 20.6127 22.3253 20.6148 22.3269C20.6169 22.3284 20.6195 22.3291 20.6221 22.329C20.6234 22.3289 20.6246 22.3285 20.6257 22.3278C20.6268 22.3272 20.6278 22.3264 20.6285 22.3254C20.6293 22.3244 20.6299 22.3232 20.6302 22.322C20.6305 22.3207 20.6306 22.3195 20.6304 22.3182C20.5539 21.6163 20.3947 20.9263 20.1562 20.2629C19.9452 19.5846 19.5492 18.1307 20.027 17.5173C20.1022 17.4156 20.2052 17.3386 20.3233 17.2958C20.4413 17.253 20.5692 17.2464 20.6909 17.2768C21.2493 17.385 21.6169 17.9984 21.9074 18.465C21.9252 18.4939 21.9287 18.4915 21.9204 18.465C21.8329 18.1719 21.7136 17.8896 21.5647 17.6232C21.5638 17.6217 21.5632 17.6201 21.5632 17.6183C21.5632 17.6166 21.5638 17.6149 21.5647 17.6135C21.5664 17.6122 21.5685 17.6114 21.5706 17.6114C21.5728 17.6114 21.5749 17.6122 21.5766 17.6135C22.0545 18.1668 22.4175 18.8123 22.6436 19.5113C22.6439 19.5126 22.6444 19.5138 22.6452 19.5148C22.646 19.5159 22.6469 19.5168 22.648 19.5175C22.6491 19.5182 22.6504 19.5186 22.6517 19.5188C22.6529 19.5189 22.6543 19.5189 22.6555 19.5185C22.6569 19.5184 22.6582 19.5179 22.6594 19.5172C22.6606 19.5165 22.6616 19.5156 22.6624 19.5144C22.6632 19.5133 22.6637 19.512 22.664 19.5106C22.6642 19.5092 22.6641 19.5078 22.6638 19.5065L22.5275 18.489C22.866 19.2421 23.0914 20.0423 23.1961 20.863C23.2092 20.9689 23.2163 20.9677 23.2175 20.863C23.2238 20.4501 23.2135 20.0368 23.1867 19.6231C23.1867 19.5906 23.1867 19.5906 23.195 19.6231C23.352 20.3605 23.4472 21.11 23.4795 21.8636C23.4914 22.0681 23.5044 22.0681 23.5186 21.8636C23.5376 21.5906 23.5483 21.3188 23.5495 21.0446C23.5495 20.9749 23.5601 20.9737 23.5779 21.0446C23.7915 21.7518 23.8458 22.4985 23.7368 23.2298V23.2358H23.7475C23.8532 22.8325 23.9227 22.4203 23.9549 22.0043C23.9549 21.9935 23.9549 21.9911 23.9692 21.9959C23.9715 21.9978 23.9733 22.0001 23.9746 22.0029C23.9758 22.0056 23.9764 22.0085 23.9763 22.0115C23.9881 22.3515 23.996 22.6914 24 23.0314C23.8747 23.9895 23.4606 24.885 22.8144 25.5953C22.8134 25.5968 22.8129 25.5984 22.8129 25.6002C22.8129 25.6019 22.8134 25.6036 22.8144 25.605C22.8161 25.6063 22.8181 25.6071 22.8203 25.6071C22.8225 25.6071 22.8245 25.6063 22.8262 25.605C23.1367 25.3791 23.4193 25.1163 23.668 24.8221C23.6701 24.8211 23.6723 24.8206 23.6745 24.8206C23.6768 24.8206 23.679 24.8211 23.6811 24.8221C23.6843 24.8229 23.6871 24.825 23.6889 24.8279C23.6907 24.8309 23.6913 24.8343 23.6906 24.8377C23.3969 25.92 22.7603 26.8743 21.8789 27.5532C22.1866 27.4697 22.4824 27.346 22.7586 27.1852C22.8144 27.1527 22.8156 27.1551 22.7646 27.1936C22.2032 27.6221 21.5944 27.9825 20.9506 28.2676C20.9114 28.2868 20.8379 28.3109 20.7893 28.3409C20.7885 28.3428 20.788 28.3449 20.788 28.3469C20.788 28.349 20.7885 28.3511 20.7893 28.353C20.7897 28.3543 20.7904 28.3555 20.7913 28.3565C20.7921 28.3576 20.7933 28.3584 20.7945 28.359C20.7957 28.3596 20.7971 28.3598 20.7984 28.3598C20.7998 28.3598 20.8011 28.3595 20.8024 28.359C21.2266 28.2696 21.6427 28.1441 22.0461 27.9838C21.671 28.2506 21.258 28.4578 20.8213 28.5983C20.8083 28.5983 20.8059 28.6103 20.8213 28.6187C20.8253 28.6209 20.8298 28.6221 20.8344 28.6221C20.8389 28.6221 20.8434 28.6209 20.8474 28.6187C21.0288 28.5815 21.1901 28.5526 21.3323 28.5321C21.3975 28.5213 21.4011 28.5321 21.3454 28.567C21.1399 28.6894 20.9211 28.7871 20.6933 28.8581C20.6933 28.8581 20.6933 28.8689 20.6933 28.8713C20.6962 28.8728 20.6995 28.8735 20.7028 28.8735C20.7061 28.8735 20.7093 28.8728 20.7123 28.8713C20.8237 28.8508 20.9138 28.8364 20.9826 28.8268C21.0513 28.8172 21.0703 28.8268 20.9885 28.8581C19.1014 29.5456 17.1192 29.9267 15.1149 29.9873L8.99706 29.9945C8.85648 30.0104 8.7142 29.9916 8.58234 29.9396C8.45049 29.8877 8.33297 29.8042 8.23981 29.6962C8.14665 29.5882 8.0806 29.459 8.0473 29.3196C8.014 29.1801 8.01443 29.0346 8.04856 28.8953C8.06079 28.6984 8.13241 28.5101 8.25372 28.3558C8.37503 28.2016 8.54017 28.0889 8.72674 28.0331C8.8669 27.9861 9.01447 27.9661 9.16186 27.9741C9.1638 27.9754 9.16607 27.9761 9.16838 27.9761C9.1707 27.9761 9.17297 27.9754 9.1749 27.9741C9.17639 27.9729 9.1776 27.9713 9.17842 27.9696C9.17924 27.9678 9.17967 27.9659 9.17967 27.9639C9.17967 27.962 9.17924 27.96 9.17842 27.9583C9.1776 27.9565 9.17639 27.9549 9.1749 27.9537C8.90767 27.7237 8.67342 27.4569 8.47894 27.1612C8.47781 27.1581 8.47573 27.1556 8.47301 27.1539C8.47035 27.1511 8.46714 27.1488 8.46357 27.1472C8.46 27.1456 8.45615 27.1448 8.45227 27.1448C8.44838 27.1448 8.44453 27.1456 8.44096 27.1472C8.43739 27.1488 8.43418 27.1511 8.43152 27.1539C8.25686 27.336 8.12013 27.5518 8.02948 27.7886C7.93883 28.0254 7.89613 28.2783 7.90391 28.5321C7.94404 28.8599 7.90998 29.1927 7.80432 29.5051C7.64426 29.9356 7.1629 29.9861 6.53688 29.9861C6.03813 29.9821 5.53977 29.9821 5.04181 29.9861C4.88979 29.9929 4.73777 29.973 4.59245 29.9272C4.42719 29.8521 4.28818 29.7281 4.19369 29.5714C4.0992 29.4147 4.05364 29.2327 4.063 29.0493C4.07237 28.8658 4.13621 28.6896 4.24615 28.5436C4.35609 28.3977 4.50698 28.2889 4.679 28.2315C4.86633 28.1497 5.07619 28.1846 5.2564 28.0752C5.83143 27.7288 5.99742 26.6693 6.01876 26.0704C6.05433 24.988 6.04129 23.9129 6.1314 22.8389C6.13182 22.8367 6.13146 22.8344 6.13038 22.8324C6.12929 22.8304 6.12756 22.8289 6.12547 22.8281C6.12349 22.8269 6.12124 22.8263 6.11895 22.8263C6.11666 22.8263 6.11441 22.8269 6.11243 22.8281C5.98751 23.105 5.89441 23.3955 5.83499 23.694C5.83419 23.6983 5.83201 23.7021 5.82878 23.7049C5.82555 23.7078 5.82147 23.7094 5.81721 23.7096C5.81431 23.7105 5.81124 23.7108 5.80824 23.7103C5.80524 23.7099 5.80238 23.7087 5.79987 23.707C5.79736 23.7053 5.79527 23.703 5.79376 23.7003C5.79224 23.6976 5.79134 23.6947 5.79112 23.6916C5.78991 23.0081 5.86952 22.327 6.02825 21.6628C6.01995 21.6543 5.75437 21.9033 5.60498 21.9887C5.60246 21.9902 5.59959 21.9909 5.59668 21.9909C5.59377 21.9909 5.5909 21.9902 5.58838 21.9887C5.58624 21.9855 5.58509 21.9817 5.58509 21.9779C5.58509 21.974 5.58624 21.9702 5.58838 21.967C5.76047 21.5828 5.89509 21.1824 5.99031 20.7716C5.98082 20.7716 5.80298 21.0326 5.68916 21.1324C5.6871 21.1333 5.68488 21.1338 5.68264 21.1338C5.6804 21.1338 5.67818 21.1333 5.67612 21.1324C5.67433 21.1319 5.67266 21.131 5.67121 21.1298C5.66976 21.1285 5.66856 21.1271 5.66768 21.1254C5.6668 21.1237 5.66626 21.1219 5.66607 21.12C5.6659 21.1181 5.66608 21.1162 5.66663 21.1144C5.77023 20.6878 5.83296 20.252 5.85396 19.8131C5.84566 19.8131 5.61684 20.1499 5.44136 20.2341C5.42832 20.2341 5.42476 20.2341 5.43306 20.2232C5.49005 20.1355 5.52688 20.036 5.54083 19.9319C5.55479 19.8278 5.54551 19.7219 5.51369 19.6219C5.48253 19.4425 5.48253 19.2589 5.51369 19.0795C5.51369 19.0579 5.51369 19.0555 5.50064 19.0735C5.39454 19.2429 5.30367 19.4216 5.22914 19.6075C5.21965 19.6267 5.20898 19.6267 5.20068 19.6075C5.11624 19.226 5.11019 18.8309 5.1829 18.447C5.1056 18.5917 5.00994 18.7255 4.89834 18.845C4.87107 18.8655 4.86396 18.8595 4.87345 18.827C4.91692 18.712 4.93669 18.5892 4.93154 18.4662C4.89123 18.1992 4.89004 17.6616 4.88412 17.658C4.87819 17.6544 4.67189 18.1499 4.66478 18.1499C4.68777 17.6827 4.65553 17.2143 4.56874 16.7549C4.55807 16.744 4.55095 16.7452 4.5474 16.7549C4.51147 16.8993 4.43436 17.0298 4.32569 17.1301C4.32335 17.1315 4.32069 17.1322 4.31798 17.1322C4.31528 17.1322 4.31262 17.1315 4.31027 17.1301C4.30544 17.1292 4.30114 17.1265 4.29826 17.1224C4.29539 17.1184 4.29417 17.1134 4.29486 17.1084C4.37358 16.6712 4.32155 16.2202 4.14547 15.8132C4.14445 15.8104 4.1427 15.8079 4.1404 15.806C4.13811 15.8041 4.13536 15.8028 4.13243 15.8024C4.13025 15.8022 4.12806 15.8025 4.12598 15.8032C4.1239 15.8039 4.12199 15.805 4.12033 15.8065C4.11868 15.8079 4.11733 15.8097 4.11635 15.8117C4.11537 15.8136 4.1148 15.8158 4.11465 15.818C4.13162 16.0689 4.10309 16.3208 4.03047 16.5612C4.0198 16.5793 4.01031 16.5793 4.00319 16.5612C3.91459 16.3002 3.86659 16.0267 3.86092 15.7507C3.87041 15.5655 3.9451 15.1975 3.93917 15.1939C3.81399 15.4025 3.70877 15.6228 3.62498 15.8517C3.61431 15.8806 3.60601 15.8806 3.59534 15.8517C3.52693 15.4039 3.58361 14.9456 3.75896 14.5288C3.57479 14.7516 3.42416 15.0009 3.31197 15.2684C3.29426 14.9139 3.32944 14.5588 3.41631 14.2149C3.36073 14.2227 3.30596 14.2355 3.25269 14.2534C3.38409 13.9597 3.55529 13.6861 3.76133 13.4404C3.52301 13.6377 3.32212 13.8773 3.16851 14.1476C3.14834 13.6772 3.25535 13.2102 3.47796 12.797C3.47923 12.7931 3.47923 12.7889 3.47796 12.785C3.47766 12.7811 3.47591 12.7774 3.47305 12.7747C3.47019 12.772 3.46644 12.7706 3.46255 12.7706C3.39141 12.7766 3.19697 12.8018 3.21594 12.7634C3.21594 12.7537 3.67122 12.5517 3.66885 12.5457C3.66648 12.5397 3.39853 12.5818 3.39853 12.5818C3.34754 12.5914 3.33806 12.5758 3.37126 12.5349C3.58795 12.3515 3.83872 12.2141 4.10872 12.1308C4.10872 12.12 3.34754 12.1693 3.34398 12.1645C3.34043 12.1596 4.20357 11.7111 4.17393 11.699C4.04943 11.6401 3.7637 11.5788 3.75896 11.5668C3.94541 11.4608 4.1447 11.3799 4.35177 11.3262C4.35443 11.3254 4.35674 11.3237 4.35839 11.3214C4.36003 11.3192 4.36093 11.3164 4.36093 11.3136C4.36093 11.3108 4.36003 11.308 4.35839 11.3058C4.35674 11.3035 4.35443 11.3018 4.35177 11.301L4.06603 11.3166C4.05062 11.3166 4.04706 11.3166 4.05655 11.2986C4.07607 11.2723 4.10231 11.2519 4.13243 11.2396C4.34931 11.1395 4.56066 11.0275 4.76555 10.9041C4.49938 10.9516 4.22685 10.9487 3.9617 10.8957C3.95434 10.8929 3.94837 10.8873 3.9451 10.8801C3.93755 10.8809 3.93 10.8786 3.92411 10.8737C3.91822 10.8689 3.91446 10.8619 3.91368 10.8542C3.91289 10.8465 3.91514 10.8389 3.91992 10.8329C3.9247 10.8269 3.93163 10.8231 3.93917 10.8223C3.93917 10.8223 4.46203 10.5686 4.46203 10.5614C4.46203 10.5541 4.06722 10.5229 4.06248 10.5145C4.05774 10.506 4.47033 10.2222 4.46203 10.2234C4.45373 10.2246 4.00912 10.2463 4.00438 10.2403C3.99964 10.2342 4.34466 9.86384 4.34229 9.85903C4.33992 9.85422 4.10516 9.95403 3.9866 9.99492C3.91783 10.019 3.90835 10.0021 3.95696 9.94802C4.07552 9.80972 4.49049 9.10618 4.23558 8.98592C3.55318 8.76601 2.95548 8.33549 2.5259 7.75444C2.52407 7.75121 2.52165 7.74835 2.51879 7.74602C2.51592 7.74432 2.51274 7.74321 2.50945 7.74278C2.50615 7.74234 2.5028 7.74258 2.4996 7.74347C2.49639 7.74437 2.4934 7.74591 2.49079 7.748C2.48818 7.75009 2.48601 7.75268 2.48441 7.75564C2.36584 7.96971 2.21883 8.1946 2.12872 8.39784C1.93434 8.8014 1.81382 9.23741 1.77303 9.68465C1.77303 9.69908 1.77303 9.70028 1.76473 9.68465C1.75987 9.67065 1.75668 9.65612 1.75524 9.64135C1.82176 8.94635 2.07023 8.28202 2.47492 7.71716C2.4794 7.70929 2.48175 7.70038 2.48175 7.6913C2.48175 7.68222 2.4794 7.6733 2.47492 7.66544L2.40497 7.5079C1.99893 7.95307 1.69631 8.48481 1.51931 9.06409C1.51931 9.06409 1.51931 9.05808 1.51931 9.05327C1.51837 9.05141 1.51788 9.04935 1.51788 9.04726C1.51788 9.04517 1.51837 9.04311 1.51931 9.04124C1.67542 8.45269 1.97746 7.91447 2.39667 7.47783L2.30182 7.26858C1.82311 7.51055 1.38337 7.8248 0.997627 8.20061C0.926489 8.27036 0.925303 8.26796 0.997627 8.20061C1.36826 7.80107 1.81098 7.47733 2.30182 7.24693L2.19037 6.99919C2.18898 6.99417 2.18575 6.98988 2.18134 6.9872C2.17693 6.98452 2.17168 6.98364 2.16666 6.98476C1.615 7.0646 1.08017 7.23649 0.583843 7.49347C0.573174 7.49347 0.571987 7.49347 0.583843 7.48745C0.585983 7.48439 0.588835 7.48192 0.592142 7.48024C1.07818 7.19815 1.61606 7.0201 2.17258 6.9571C2.19156 6.9571 2.1963 6.94507 2.19156 6.92823C2.17214 6.8685 2.15708 6.80741 2.1465 6.74544C1.90549 6.70639 1.6624 6.68189 1.41852 6.67208C0.947824 6.65889 0.478657 6.73222 0.0337105 6.88855H0.0254116C0.0254116 6.88855 -0.00422859 6.88614 0.000513077 6.88494ZM4.47152 6.19343C4.79857 6.0793 5.07887 5.85801 5.26826 5.56446C5.2726 5.55996 5.27504 5.55392 5.27504 5.54762C5.27504 5.54133 5.2726 5.53528 5.26826 5.53079L4.82958 5.09303C4.81061 5.07499 4.80112 5.0786 4.79994 5.10506C4.80045 5.48579 4.67895 5.85638 4.45373 6.16096C4.4518 6.16378 4.45076 6.16714 4.45076 6.17058C4.45076 6.17402 4.4518 6.17738 4.45373 6.1802C4.45497 6.18401 4.45735 6.18734 4.46054 6.18971C4.46372 6.19208 4.46756 6.19338 4.47152 6.19343ZM4.1597 6.22109C4.16244 6.22257 4.16549 6.22334 4.16859 6.22334C4.17169 6.22334 4.17475 6.22257 4.17748 6.22109C4.18141 6.2184 4.18427 6.21439 4.18557 6.20978C4.18687 6.20516 4.18652 6.20022 4.1846 6.19584C4.12315 6.00265 4.11372 5.79632 4.15729 5.5982C4.20085 5.40008 4.29583 5.21737 4.43239 5.06898C4.45255 5.04733 4.44662 5.04012 4.41817 5.04613C4.31024 5.09241 4.21393 5.1627 4.13636 5.25178C4.05879 5.34087 4.00194 5.44649 3.97 5.56085C3.88937 5.82784 3.887 6.08039 4.1597 6.22109Z" fill="#2F6CAD"/>
</svg>
