<svg width="14" height="18" viewBox="0 0 14 18" fill="none" xmlns="http://www.w3.org/2000/svg">
<path d="M0.0002985 4.13096C0.392434 3.96898 0.822516 3.93526 1.23345 4.03427C1.22009 3.96903 1.22618 3.90108 1.2509 3.83956C1.27563 3.77803 1.31781 3.72587 1.37178 3.69008C1.56128 3.55948 1.75009 3.46062 1.8317 3.2124C1.87181 3.08901 1.9057 2.96562 1.95135 2.84728C1.65524 2.48249 1.24571 2.23782 0.794276 2.15602C0.792706 2.15657 0.791003 2.15657 0.789433 2.15602L0.784592 2.15169C1.2437 2.22041 1.66236 2.46347 1.96034 2.8343C1.96933 2.81121 1.97901 2.78884 1.9887 2.76647C1.85163 2.42006 1.62692 2.11902 1.33858 1.89553C1.62654 2.09698 1.85236 2.38121 1.9887 2.71379C1.99149 2.72147 1.99521 2.72874 1.99976 2.73544C2.01152 2.70946 2.02466 2.68421 2.03919 2.65895C2.04472 2.38115 1.95965 1.50444 1.95965 1.50444C2.0169 1.87079 2.0527 2.24044 2.06685 2.61133C2.07446 2.59906 2.08206 2.58535 2.09036 2.57309C2.34056 2.25005 2.66279 1.99586 3.02889 1.83275C3.03226 1.83113 3.03507 1.82845 3.03693 1.82509C3.03879 1.82173 3.0396 1.81785 3.03926 1.81399C3.00145 1.38105 2.96549 0.948103 2.93137 0.515159C2.92392 0.432601 2.92392 0.349496 2.93137 0.266938C2.93222 0.259874 2.9344 0.253056 2.93779 0.246873C2.94117 0.240691 2.94569 0.235266 2.95109 0.230909C2.95649 0.226552 2.96265 0.223349 2.96924 0.221483C2.97583 0.219617 2.9827 0.219125 2.98947 0.220035C3.05309 0.228694 3.15338 0.36002 3.19695 0.410531C3.43763 0.69916 3.68108 0.985144 3.9273 1.26848C3.92996 1.27156 3.93181 1.27531 3.93266 1.27936C3.93351 1.28341 3.93333 1.28762 3.93214 1.29157C3.88397 1.49864 3.80856 1.69776 3.70806 1.88326C3.70806 1.88903 3.70805 1.8912 3.71151 1.88976H3.71912C3.72369 1.88624 3.72688 1.88111 3.72811 1.87532C3.85199 1.62603 3.94628 1.36191 4.00891 1.08881C4.09121 0.733796 4.31253 -0.73605 4.87066 0.461762C4.97625 0.687374 5.08114 0.912986 5.18535 1.1386C5.40852 1.61377 5.66996 2.06832 5.96687 2.49732C5.96919 2.49974 5.97194 2.50166 5.97496 2.50298C5.97799 2.50429 5.98123 2.50496 5.98451 2.50496C5.98779 2.50496 5.99103 2.50429 5.99406 2.50298C5.99709 2.50166 5.99983 2.49974 6.00215 2.49732L6.11419 2.40063C6.11972 2.39558 6.12111 2.39702 6.12111 2.40424C6.09837 2.56061 6.05677 2.71335 5.99731 2.85883L6.14255 2.68349C6.14255 2.68349 6.15154 2.67627 6.15015 2.68349C6.13632 2.78884 6.04918 3.08396 6.05333 3.09046C6.05748 3.09695 6.13355 3.0183 6.1377 3.0183C6.11075 3.08295 6.08051 3.14606 6.0471 3.20735C6.04626 3.20851 6.0457 3.20987 6.0455 3.21131C6.04529 3.21275 6.04543 3.21422 6.04592 3.21559C6.0464 3.21696 6.0472 3.21818 6.04826 3.21913C6.04931 3.22009 6.05058 3.22075 6.05194 3.22106C6.19693 3.28748 6.31373 3.40678 6.38046 3.55659C6.38087 3.55874 6.38087 3.56094 6.38046 3.56309C6.37932 3.56415 6.37784 3.56474 6.37631 3.56474C6.37478 3.56474 6.3733 3.56415 6.37216 3.56309C6.37216 3.56309 6.15638 3.43609 6.15292 3.44042C6.14946 3.44475 6.4019 3.61937 6.42957 3.83945C6.42957 3.85244 6.42957 3.8546 6.41781 3.84594C6.36219 3.77571 6.29096 3.72072 6.21032 3.68575C6.19718 3.68215 6.1958 3.68575 6.20479 3.69513L6.51256 4.03932C6.5174 4.0451 6.51602 4.04798 6.51256 4.04798C6.47452 4.04798 6.40743 3.99819 6.40328 4.0018C6.39913 4.00541 6.46276 4.26662 6.45931 4.26878C6.45585 4.27095 6.20341 3.99675 6.20133 3.99892C6.19926 4.00108 6.29954 4.37269 6.3279 4.57618C6.3279 4.59205 6.3279 4.59421 6.31614 4.58195C6.26111 4.49576 6.21475 4.40387 6.17782 4.30775C6.17436 4.30775 6.30162 4.7609 6.29816 4.76667C6.25045 4.7519 6.20415 4.73258 6.15984 4.70894C6.15908 4.70856 6.15825 4.70836 6.15742 4.70836C6.15658 4.70836 6.15575 4.70856 6.15499 4.70894C6.15453 4.70941 6.15417 4.70998 6.15392 4.7106C6.15367 4.71122 6.15354 4.71188 6.15354 4.71255C6.15354 4.71322 6.15367 4.71389 6.15392 4.71451C6.15417 4.71513 6.15453 4.71569 6.15499 4.71616C6.24621 4.90351 6.36266 5.07628 6.5008 5.2292C6.5008 5.23281 6.21032 5.08056 6.20756 5.08488C6.20479 5.08921 6.42403 5.29558 6.39222 5.28187C6.33136 5.25518 6.30646 5.25878 6.22831 5.23136C6.22831 5.23136 6.22831 5.23136 6.22277 5.23136C6.21724 5.23136 6.22277 5.23136 6.22277 5.23569C6.22277 5.24002 6.41297 5.3865 6.41228 5.39083C6.41158 5.39516 6.21309 5.32517 6.21309 5.32517C6.21887 5.3377 6.22799 5.34823 6.23937 5.35547C6.4114 5.46172 6.56792 5.59319 6.70414 5.74585C6.65498 5.70823 6.59878 5.68184 6.5392 5.66841C6.47961 5.65499 6.41798 5.65482 6.35833 5.66792C6.35833 5.66792 6.69722 5.87645 6.76777 5.94572C6.79128 5.96881 6.57411 5.89665 6.5755 5.90387C6.6694 5.97657 6.75902 6.05513 6.84384 6.1391C6.86321 6.16147 6.85975 6.16652 6.83347 6.15354C6.76915 6.12251 6.61423 6.04458 6.61077 6.04674C6.60731 6.04891 6.60524 6.05324 6.61077 6.05684C6.78869 6.18726 6.93657 6.35733 7.04372 6.55473C7.0541 6.57421 7.05133 6.5771 7.03473 6.56195C6.91026 6.45464 6.77453 6.36241 6.63014 6.28703C6.62949 6.28671 6.62878 6.28654 6.62806 6.28654C6.62734 6.28654 6.62663 6.28671 6.62599 6.28703C6.62536 6.28798 6.62503 6.28912 6.62503 6.29027C6.62503 6.29143 6.62536 6.29256 6.62599 6.29352C6.86022 6.52376 7.07581 6.77379 7.27057 7.04107C7.41101 7.22265 7.60588 7.34972 7.82387 7.40186C8.05561 7.46845 8.28392 7.54745 8.50787 7.63853C8.63649 7.68888 8.76173 7.74818 8.88273 7.81604C8.92215 7.83769 8.92077 7.84057 8.87927 7.82542C8.75121 7.77905 8.62017 7.74216 8.48713 7.71502C8.43456 7.7042 8.43387 7.70853 8.48367 7.72801C8.65832 7.78873 8.823 7.87707 8.97195 7.98994C9.12319 8.11106 9.26602 8.2432 9.39937 8.38536C9.39987 8.3861 9.40015 8.38698 9.40015 8.38789C9.40015 8.38879 9.39987 8.38968 9.39937 8.39041C9.39861 8.39112 9.39762 8.39152 9.3966 8.39152C9.39558 8.39152 9.39459 8.39112 9.39383 8.39041C9.26554 8.30637 9.12897 8.23694 8.98647 8.18332C8.97471 8.17827 8.97057 8.18332 8.97402 8.19487C8.97748 8.20641 8.97817 8.1992 8.98509 8.19992C8.99202 8.20105 8.99864 8.20376 9.00445 8.20786C9.3074 8.4297 9.58311 8.68948 9.8254 8.98138C9.82477 8.9835 9.82477 8.98576 9.8254 8.98788C9.73478 8.90771 9.6381 8.83532 9.53631 8.7714C9.53554 8.7706 9.53462 8.76996 9.53361 8.76952C9.5326 8.76908 9.53152 8.76886 9.53043 8.76886C9.52934 8.76886 9.52825 8.76908 9.52725 8.76952C9.52624 8.76996 9.52532 8.7706 9.52455 8.7714C9.52378 8.77221 9.52316 8.77316 9.52274 8.77422C9.52232 8.77527 9.52211 8.7764 9.52211 8.77754C9.52211 8.77868 9.52232 8.77981 9.52274 8.78086C9.52316 8.78191 9.52378 8.78287 9.52455 8.78367C9.7956 9.04968 10.043 9.34069 10.2639 9.65317C10.2651 9.6547 10.2656 9.65666 10.2654 9.65862C10.2653 9.66058 10.2643 9.66239 10.2629 9.66363C10.2614 9.66487 10.2595 9.66546 10.2576 9.66526C10.2557 9.66505 10.254 9.66408 10.2528 9.66255C10.1643 9.57307 10.0744 9.48504 9.98309 9.39845C9.97963 9.39484 9.97618 9.39412 9.97341 9.39845C9.97064 9.40278 9.96649 9.40495 9.97341 9.41C10.3146 9.83436 10.5671 10.3284 10.7148 10.8604C10.7151 10.8619 10.7148 10.8635 10.7142 10.8649C10.7136 10.8663 10.7126 10.8675 10.7114 10.8683C10.71 10.8695 10.7083 10.8701 10.7065 10.8701C10.7048 10.8701 10.703 10.8695 10.7017 10.8683C10.6237 10.72 10.5332 10.5792 10.4313 10.4476C10.3877 10.3906 10.3828 10.3935 10.4174 10.457C10.5645 10.7298 10.6863 11.0166 10.7812 11.3135C10.8217 11.4146 10.8679 11.5132 10.9195 11.6086C10.9306 11.6324 10.9265 11.6361 10.9071 11.6187C10.8259 11.5474 10.7524 11.4671 10.6878 11.3792C10.6871 11.3783 10.6861 11.3775 10.685 11.377C10.684 11.3765 10.6828 11.3762 10.6816 11.3762C10.6804 11.3762 10.6793 11.3765 10.6782 11.377C10.6771 11.3775 10.6762 11.3783 10.6754 11.3792C10.6738 11.3809 10.6729 11.3832 10.6729 11.3857C10.6729 11.3881 10.6738 11.3904 10.6754 11.3922C10.8591 11.7288 11.0137 12.0818 11.1374 12.4471C11.1492 12.4825 11.1443 12.4853 11.1229 12.4543L10.9465 12.2054C10.9465 12.2054 10.9424 12.2054 10.9396 12.2054C10.9368 12.2054 10.9396 12.209 10.9396 12.2126C11.0078 12.3632 11.0573 12.5223 11.0869 12.6859C11.1148 12.9311 11.1048 13.1794 11.0572 13.4212C11.0484 13.4693 11.0401 13.4693 11.0323 13.4212C11.0091 13.2861 10.9701 13.1546 10.9161 13.0294C10.9154 13.0291 10.9147 13.0289 10.914 13.0289C10.9133 13.0289 10.9126 13.0291 10.9119 13.0294C10.9119 13.0294 10.9078 13.0294 10.9085 13.0345C10.9538 13.3057 10.9668 13.5818 10.9472 13.8563C10.9057 14.4379 10.8541 15.0185 10.7923 15.5982C10.7826 15.687 10.7708 15.7772 10.7556 15.8674C10.7556 15.8796 10.7556 15.8818 10.7674 15.8767C10.9683 15.7506 11.1404 15.5802 11.2718 15.3776C11.4031 15.175 11.4906 14.9449 11.5282 14.7035C11.5279 14.7026 11.5277 14.7016 11.5279 14.7007C11.528 14.6998 11.5283 14.6989 11.5288 14.6982C11.5293 14.6974 11.53 14.6968 11.5308 14.6963C11.5316 14.6959 11.5325 14.6957 11.5333 14.6957C11.5342 14.6957 11.5351 14.6959 11.5359 14.6963C11.5367 14.6968 11.5374 14.6974 11.5379 14.6982C11.5384 14.6989 11.5387 14.6998 11.5388 14.7007C11.539 14.7016 11.5388 14.7026 11.5385 14.7035C11.5555 14.8186 11.5572 14.9356 11.5434 15.0513C11.5431 15.0526 11.5433 15.054 11.544 15.0552C11.5446 15.0564 11.5456 15.0573 11.5468 15.0578C11.5473 15.0582 11.5478 15.0586 11.5484 15.0589C11.549 15.0591 11.5497 15.0593 11.5503 15.0593C11.5509 15.0593 11.5516 15.0591 11.5522 15.0589C11.5528 15.0586 11.5533 15.0582 11.5538 15.0578C11.6479 14.8583 11.7108 14.6444 11.7398 14.4242C11.7545 14.2467 11.7589 14.0683 11.7529 13.8902C11.7529 13.8902 11.7529 13.8902 11.7564 13.8902C11.8335 14.0553 11.8804 14.234 11.8947 14.417C11.8948 14.419 11.8955 14.421 11.8968 14.4225C11.898 14.4241 11.8997 14.4252 11.9016 14.4257C11.904 14.4261 11.9065 14.4256 11.9085 14.4243C11.9106 14.4229 11.9121 14.4209 11.9127 14.4184C11.9831 13.955 11.9756 13.4823 11.8906 13.0215C11.8903 13.0198 11.8907 13.018 11.8916 13.0166C11.8925 13.0151 11.8938 13.014 11.8954 13.0135C11.8971 13.0128 11.8989 13.0128 11.9006 13.0134C11.9023 13.0141 11.9036 13.0154 11.9044 13.0171L12.0227 13.3924C12.0231 13.3939 12.0241 13.3952 12.0253 13.3961C12.0266 13.397 12.0281 13.3975 12.0296 13.3974C12.0303 13.3973 12.031 13.3971 12.0317 13.3967C12.0323 13.3963 12.0329 13.3958 12.0333 13.3952C12.0338 13.3946 12.0341 13.3939 12.0343 13.3932C12.0345 13.3924 12.0345 13.3917 12.0344 13.3909C11.9898 12.9698 11.8969 12.5558 11.7578 12.1577C11.6347 11.7508 11.4037 10.8784 11.6824 10.5104C11.7263 10.4494 11.7864 10.4031 11.8552 10.3775C11.9241 10.3518 11.9987 10.3479 12.0697 10.3661C12.3955 10.431 12.6099 10.799 12.7793 11.079C12.7897 11.0963 12.7917 11.0949 12.7869 11.079C12.7359 10.9031 12.6663 10.7337 12.5794 10.5739C12.5789 10.573 12.5786 10.572 12.5786 10.571C12.5786 10.57 12.5789 10.569 12.5794 10.5681C12.5804 10.5673 12.5816 10.5669 12.5829 10.5669C12.5841 10.5669 12.5854 10.5673 12.5863 10.5681C12.8652 10.9001 13.0769 11.2874 13.2088 11.7068C13.209 11.7075 13.2093 11.7083 13.2097 11.7089C13.2101 11.7095 13.2107 11.7101 13.2114 11.7105C13.212 11.7109 13.2127 11.7112 13.2135 11.7113C13.2142 11.7114 13.215 11.7113 13.2157 11.7111C13.2165 11.711 13.2173 11.7108 13.218 11.7103C13.2187 11.7099 13.2193 11.7093 13.2197 11.7087C13.2202 11.708 13.2205 11.7072 13.2206 11.7064C13.2208 11.7055 13.2208 11.7047 13.2205 11.7039L13.141 11.0934C13.3385 11.5452 13.47 12.0254 13.5311 12.5178C13.5387 12.5813 13.5428 12.5806 13.5435 12.5178C13.5472 12.2701 13.5412 12.0221 13.5256 11.7739C13.5256 11.7544 13.5256 11.7544 13.5304 11.7739C13.622 12.2163 13.6775 12.666 13.6964 13.1182C13.7033 13.2408 13.7109 13.2408 13.7192 13.1182C13.7303 12.9544 13.7365 12.7913 13.7372 12.6268C13.7372 12.5849 13.7434 12.5842 13.7538 12.6268C13.8784 13.0511 13.91 13.4991 13.8465 13.9379V13.9415H13.8527C13.9144 13.6995 13.9549 13.4522 13.9737 13.2026C13.9737 13.1961 13.9737 13.1946 13.982 13.1975C13.9834 13.1987 13.9844 13.2001 13.9852 13.2017C13.9859 13.2033 13.9862 13.2051 13.9862 13.2069C13.9931 13.4109 13.9977 13.6148 14 13.8188C13.9269 14.3937 13.6853 14.931 13.3084 15.3572C13.3078 15.3581 13.3075 15.3591 13.3075 15.3601C13.3075 15.3611 13.3078 15.3621 13.3084 15.363C13.3094 15.3638 13.3106 15.3642 13.3118 15.3642C13.3131 15.3642 13.3143 15.3638 13.3153 15.363C13.4964 15.2275 13.6613 15.0697 13.8063 14.8932C13.8075 14.8927 13.8088 14.8924 13.8102 14.8924C13.8115 14.8924 13.8128 14.8927 13.814 14.8932C13.8159 14.8937 13.8175 14.895 13.8185 14.8968C13.8196 14.8985 13.8199 14.9006 13.8195 14.9026C13.6482 15.552 13.2768 16.1246 12.7627 16.5319C12.9422 16.4818 13.1147 16.4076 13.2759 16.3111C13.3084 16.2916 13.3091 16.2931 13.2793 16.3162C12.9519 16.5733 12.5968 16.7895 12.2212 16.9605C12.1983 16.9721 12.1555 16.9865 12.1271 17.0046C12.1266 17.0057 12.1263 17.0069 12.1263 17.0082C12.1263 17.0094 12.1266 17.0106 12.1271 17.0118C12.1273 17.0126 12.1277 17.0133 12.1282 17.0139C12.1288 17.0145 12.1294 17.015 12.1301 17.0154C12.1308 17.0157 12.1316 17.0159 12.1324 17.0159C12.1332 17.0159 12.134 17.0157 12.1347 17.0154C12.3822 16.9618 12.6249 16.8865 12.8602 16.7903C12.6414 16.9503 12.4005 17.0747 12.1458 17.159C12.1382 17.159 12.1368 17.1662 12.1458 17.1712C12.1481 17.1726 12.1507 17.1733 12.1534 17.1733C12.156 17.1733 12.1587 17.1726 12.161 17.1712C12.2668 17.1489 12.3609 17.1316 12.4439 17.1193C12.4819 17.1128 12.484 17.1193 12.4515 17.1402C12.3316 17.2137 12.204 17.2723 12.0711 17.3148C12.0711 17.3148 12.0711 17.3213 12.0711 17.3228C12.0728 17.3237 12.0747 17.3241 12.0766 17.3241C12.0785 17.3241 12.0804 17.3237 12.0821 17.3228C12.1472 17.3105 12.1997 17.3018 12.2398 17.2961C12.2799 17.2903 12.291 17.2961 12.2433 17.3148C11.1425 17.7274 9.98617 17.956 8.81703 17.9924L5.24829 17.9967C5.16628 18.0062 5.08328 17.9949 5.00637 17.9638C4.92945 17.9326 4.8609 17.8825 4.80655 17.8177C4.75221 17.7529 4.71368 17.6754 4.69426 17.5917C4.67483 17.5081 4.67508 17.4207 4.69499 17.3372C4.70213 17.219 4.74391 17.106 4.81467 17.0135C4.88544 16.9209 4.98176 16.8533 5.0906 16.8198C5.17236 16.7917 5.25844 16.7797 5.34442 16.7845C5.34555 16.7853 5.34687 16.7857 5.34822 16.7857C5.34958 16.7857 5.3509 16.7853 5.35203 16.7845C5.3529 16.7837 5.3536 16.7828 5.35408 16.7817C5.35456 16.7807 5.35481 16.7795 5.35481 16.7783C5.35481 16.7772 5.35456 16.776 5.35408 16.775C5.3536 16.7739 5.3529 16.773 5.35203 16.7722C5.19614 16.6342 5.0595 16.4741 4.94605 16.2967C4.94539 16.2949 4.94417 16.2934 4.94259 16.2924C4.94104 16.2906 4.93916 16.2893 4.93708 16.2883C4.935 16.2874 4.93276 16.2869 4.93049 16.2869C4.92822 16.2869 4.92597 16.2874 4.92389 16.2883C4.92181 16.2893 4.91994 16.2906 4.91838 16.2924C4.8165 16.4016 4.73674 16.5311 4.68386 16.6732C4.63099 16.8152 4.60608 16.967 4.61061 17.1193C4.63402 17.316 4.61415 17.5156 4.55252 17.703C4.45915 17.9614 4.17836 17.9917 3.81318 17.9917C3.52224 17.9893 3.23153 17.9893 2.94105 17.9917C2.85238 17.9957 2.7637 17.9838 2.67893 17.9563C2.58253 17.9113 2.50144 17.8368 2.44632 17.7428C2.3912 17.6488 2.36462 17.5396 2.37008 17.4296C2.37555 17.3195 2.41279 17.2137 2.47692 17.1262C2.54105 17.0386 2.62907 16.9733 2.72942 16.9389C2.83869 16.8898 2.96111 16.9108 3.06624 16.8451C3.40167 16.6373 3.4985 16.0016 3.51095 15.6422C3.53169 14.9928 3.52409 14.3477 3.57665 13.7034C3.5769 13.702 3.57669 13.7006 3.57605 13.6995C3.57542 13.6983 3.57441 13.6973 3.57319 13.6969C3.57203 13.6962 3.57072 13.6958 3.56939 13.6958C3.56805 13.6958 3.56674 13.6962 3.56558 13.6969C3.49271 13.863 3.43841 14.0373 3.40374 14.2164C3.40328 14.219 3.402 14.2213 3.40012 14.223C3.39824 14.2247 3.39586 14.2257 3.39337 14.2258C3.39168 14.2263 3.38989 14.2265 3.38814 14.2262C3.38639 14.2259 3.38472 14.2252 3.38326 14.2242C3.38179 14.2232 3.38058 14.2218 3.37969 14.2202C3.37881 14.2186 3.37828 14.2168 3.37815 14.215C3.37745 13.8049 3.42389 13.3962 3.51648 12.9977C3.51164 12.9926 3.35671 13.142 3.26957 13.1932C3.2681 13.1941 3.26643 13.1946 3.26473 13.1946C3.26303 13.1946 3.26136 13.1941 3.25989 13.1932C3.25864 13.1913 3.25797 13.189 3.25797 13.1867C3.25797 13.1844 3.25864 13.1821 3.25989 13.1802C3.36027 12.9497 3.4388 12.7095 3.49435 12.463C3.48881 12.463 3.38507 12.6196 3.31868 12.6794C3.31747 12.68 3.31618 12.6803 3.31487 12.6803C3.31356 12.6803 3.31227 12.68 3.31107 12.6794C3.31002 12.6791 3.30905 12.6786 3.3082 12.6779C3.30736 12.6771 3.30666 12.6762 3.30615 12.6752C3.30563 12.6742 3.30532 12.6731 3.30521 12.672C3.3051 12.6709 3.30521 12.6697 3.30553 12.6686C3.36597 12.4127 3.40256 12.1512 3.41481 11.8879C3.40997 11.8879 3.27649 12.0899 3.17413 12.1404C3.16652 12.1404 3.16444 12.1404 3.16929 12.1339C3.20253 12.0813 3.22401 12.0216 3.23215 11.9591C3.24029 11.8967 3.23488 11.8331 3.21632 11.7731C3.19814 11.6655 3.19814 11.5554 3.21632 11.4477C3.21632 11.4347 3.21632 11.4333 3.20871 11.4441C3.14681 11.5457 3.09381 11.653 3.05033 11.7645C3.0448 11.776 3.03857 11.776 3.03373 11.7645C2.98447 11.5356 2.98094 11.2986 3.02336 11.0682C2.97827 11.155 2.92246 11.2353 2.85737 11.307C2.84146 11.3193 2.83731 11.3157 2.84284 11.2962C2.8682 11.2272 2.87974 11.1535 2.87673 11.0797C2.85322 10.9195 2.85252 10.597 2.84907 10.5948C2.84561 10.5927 2.72527 10.8899 2.72112 10.8899C2.73453 10.6096 2.71573 10.3286 2.6651 10.0529C2.65887 10.0464 2.65472 10.0471 2.65265 10.0529C2.63169 10.1396 2.58671 10.2179 2.52332 10.2781C2.52195 10.2789 2.5204 10.2793 2.51882 10.2793C2.51724 10.2793 2.51569 10.2789 2.51433 10.2781C2.51151 10.2775 2.509 10.2759 2.50732 10.2734C2.50564 10.271 2.50493 10.268 2.50533 10.2651C2.55125 10.0027 2.5209 9.7321 2.41819 9.48793C2.41759 9.48623 2.41657 9.48474 2.41523 9.4836C2.4139 9.48246 2.41229 9.48171 2.41058 9.48143C2.40931 9.48133 2.40803 9.4815 2.40682 9.48192C2.40561 9.48234 2.40449 9.483 2.40353 9.48387C2.40256 9.48475 2.40177 9.48581 2.4012 9.487C2.40063 9.48819 2.4003 9.48949 2.40021 9.49081C2.41011 9.64134 2.39347 9.79248 2.3511 9.93675C2.34488 9.94757 2.33934 9.94757 2.3352 9.93675C2.28351 9.78011 2.25551 9.61603 2.2522 9.45041C2.25774 9.33928 2.30131 9.11848 2.29785 9.11632C2.22483 9.24148 2.16345 9.37365 2.11457 9.51102C2.10835 9.52833 2.10351 9.52833 2.09728 9.51102C2.05737 9.24233 2.09044 8.96736 2.19272 8.71729C2.08529 8.85097 1.99742 9.00051 1.93198 9.16105C1.92165 8.94836 1.94217 8.73526 1.99285 8.52896C1.96042 8.5336 1.92847 8.54132 1.8974 8.55205C1.97405 8.37583 2.07392 8.21165 2.19411 8.06426C2.05509 8.1826 1.9379 8.32638 1.8483 8.48855C1.83653 8.20632 1.89895 7.92611 2.02881 7.67822C2.02955 7.67588 2.02955 7.67335 2.02881 7.671C2.02864 7.66864 2.02761 7.66644 2.02594 7.66483C2.02428 7.66323 2.02209 7.66234 2.01982 7.66235C1.97832 7.66595 1.8649 7.68111 1.87596 7.65802C1.87596 7.65224 2.14154 7.53102 2.14016 7.52741C2.13878 7.5238 1.98247 7.54906 1.98247 7.54906C1.95273 7.55483 1.9472 7.54545 1.96657 7.52092C2.09297 7.41089 2.23925 7.32845 2.39675 7.27847C2.39675 7.27197 1.95273 7.30156 1.95066 7.29867C1.94858 7.29579 2.45208 7.02664 2.43479 7.01942C2.36217 6.98407 2.19549 6.94727 2.19272 6.94005C2.30149 6.87646 2.41774 6.82795 2.53853 6.79574C2.54008 6.79523 2.54143 6.79422 2.54239 6.79286C2.54335 6.7915 2.54387 6.78985 2.54387 6.78816C2.54387 6.78647 2.54335 6.78482 2.54239 6.78346C2.54143 6.78209 2.54008 6.78109 2.53853 6.78058L2.37185 6.78996C2.36286 6.78996 2.36079 6.78996 2.36632 6.77914C2.37771 6.76336 2.39301 6.75113 2.41058 6.74378C2.53709 6.6837 2.66038 6.6165 2.77991 6.54246C2.62464 6.57095 2.46566 6.56924 2.31099 6.53741C2.3067 6.53575 2.30322 6.53237 2.30131 6.52803C2.2969 6.52851 2.2925 6.52714 2.28907 6.52423C2.28563 6.52133 2.28344 6.51711 2.28298 6.51252C2.28252 6.50793 2.28383 6.50333 2.28662 6.49974C2.28941 6.49616 2.29345 6.49388 2.29785 6.4934C2.29785 6.4934 2.60285 6.34114 2.60285 6.33681C2.60285 6.33249 2.37255 6.31372 2.36978 6.30867C2.36701 6.30362 2.60769 6.13333 2.60285 6.13405C2.59801 6.13477 2.33865 6.14776 2.33589 6.14415C2.33312 6.14055 2.53438 5.9183 2.533 5.91542C2.53162 5.91253 2.39468 5.97242 2.32551 5.99695C2.2854 6.01139 2.27987 6.00128 2.30822 5.96881C2.37739 5.88583 2.61945 5.46371 2.47075 5.39155C2.07269 5.2596 1.72403 5.00129 1.47344 4.65266C1.47237 4.65072 1.47096 4.64901 1.46929 4.64761C1.46762 4.64659 1.46576 4.64593 1.46384 4.64567C1.46192 4.6454 1.45997 4.64555 1.4581 4.64608C1.45623 4.64662 1.45448 4.64754 1.45296 4.6488C1.45144 4.65005 1.45017 4.65161 1.44924 4.65338C1.38007 4.78182 1.29431 4.91676 1.24175 5.0387C1.12837 5.28084 1.05806 5.54244 1.03426 5.81079C1.03426 5.81945 1.03426 5.82017 1.02942 5.81079C1.02659 5.80239 1.02473 5.79367 1.02389 5.78481C1.06269 5.36781 1.20763 4.96921 1.4437 4.63029C1.44631 4.62558 1.44769 4.62023 1.44769 4.61478C1.44769 4.60933 1.44631 4.60398 1.4437 4.59927L1.4029 4.50474C1.16604 4.77184 0.989512 5.09088 0.886261 5.43846C0.886261 5.43846 0.886261 5.43485 0.886261 5.43196C0.885715 5.43084 0.88543 5.42961 0.88543 5.42835C0.88543 5.4271 0.885715 5.42586 0.886261 5.42475C0.977328 5.07162 1.15352 4.74868 1.39806 4.4867L1.34273 4.36115C1.06348 4.50633 0.806968 4.69488 0.581948 4.92037C0.540451 4.96222 0.53976 4.96077 0.581948 4.92037C0.798149 4.68064 1.05641 4.4864 1.34273 4.34816L1.27771 4.19951C1.2769 4.1965 1.27502 4.19393 1.27245 4.19232C1.26987 4.19071 1.26681 4.19019 1.26388 4.19085C0.942081 4.23876 0.630098 4.3419 0.340574 4.49608C0.33435 4.49608 0.333658 4.49608 0.340574 4.49247C0.341824 4.49064 0.343486 4.48915 0.345416 4.48814C0.628938 4.31889 0.942703 4.21206 1.26734 4.17426C1.27841 4.17426 1.28117 4.16704 1.27841 4.15694C1.26708 4.1211 1.2583 4.08444 1.25213 4.04726C1.11154 4.02383 0.969732 4.00913 0.827472 4.00325C0.552896 3.99533 0.279216 4.03933 0.0196638 4.13313H0.014823C0.014823 4.13313 -0.00246716 4.13169 0.0002985 4.13096ZM2.60838 3.71606C2.79916 3.64758 2.96268 3.51481 3.07315 3.33868C3.07569 3.33598 3.07711 3.33235 3.07711 3.32857C3.07711 3.3248 3.07569 3.32117 3.07315 3.31847L2.81725 3.05582C2.80619 3.045 2.80065 3.04716 2.79996 3.06304C2.80026 3.29147 2.72938 3.51383 2.59801 3.69658C2.59688 3.69827 2.59627 3.70029 2.59627 3.70235C2.59627 3.70441 2.59688 3.70643 2.59801 3.70812C2.59873 3.71041 2.60012 3.7124 2.60198 3.71383C2.60384 3.71525 2.60608 3.71603 2.60838 3.71606ZM2.42649 3.73266C2.42809 3.73354 2.42987 3.734 2.43168 3.734C2.43349 3.734 2.43527 3.73354 2.43687 3.73266C2.43915 3.73104 2.44082 3.72864 2.44158 3.72587C2.44234 3.7231 2.44214 3.72013 2.44101 3.7175C2.40517 3.60159 2.39967 3.47779 2.42508 3.35892C2.4505 3.24005 2.5059 3.13042 2.58556 3.04139C2.59732 3.0284 2.59386 3.02407 2.57726 3.02768C2.5143 3.05545 2.45813 3.09762 2.41288 3.15107C2.36763 3.20452 2.33446 3.2679 2.31583 3.33651C2.2688 3.4967 2.26742 3.64823 2.42649 3.73266Z" fill="#2F6CAD"/>
</svg>
