<svg width="15" height="15" viewBox="0 0 15 15" fill="none" xmlns="http://www.w3.org/2000/svg">
<path d="M13.2891 0.966919H2.13946C1.2157 0.966919 0.470825 1.70593 0.470825 2.62969V9.77931C0.470825 10.7001 1.2157 11.4362 2.13946 11.4362H2.40633V13.9084C2.40633 14.1049 2.52363 14.2837 2.70252 14.3629C2.76703 14.3923 2.83741 14.4069 2.90486 14.4069C3.0251 14.4069 3.14534 14.3541 3.23918 14.272L6.36237 11.4362H13.2921C14.2129 11.4362 14.9607 10.7001 14.9607 9.77931V2.62969C14.9578 1.70593 14.2129 0.966919 13.2891 0.966919ZM13.9607 9.77931C13.9607 10.1517 13.6616 10.4391 13.2891 10.4391H6.16882C6.04565 10.4391 5.92542 10.4919 5.83451 10.574L3.4034 12.7852V10.9523C3.4034 10.6767 3.18053 10.4391 2.90486 10.4391H2.13946C1.76702 10.4391 1.4679 10.1517 1.4679 9.77931V2.62969C1.4679 2.25725 1.76702 1.964 2.13946 1.964H13.2921C13.6645 1.964 13.9636 2.25725 13.9636 2.62969V9.77931H13.9607Z" fill="#575757"/>
<path d="M11.3975 7.47717H4.03083C3.75516 7.47717 3.53229 7.70005 3.53229 7.97571C3.53229 8.25137 3.75516 8.47425 4.03083 8.47425H11.3945C11.6702 8.47425 11.8931 8.25137 11.8931 7.97571C11.8931 7.70005 11.6731 7.47717 11.3975 7.47717Z" fill="#575757"/>
<path d="M11.3975 5.54175H4.03083C3.75516 5.54175 3.53229 5.76462 3.53229 6.04029C3.53229 6.31595 3.75516 6.53882 4.03083 6.53882H11.3945C11.6702 6.53882 11.8931 6.31595 11.8931 6.04029C11.8931 5.76462 11.6731 5.54175 11.3975 5.54175Z" fill="#575757"/>
<path d="M4.03083 4.57398H6.84317C7.11883 4.57398 7.3417 4.3511 7.3417 4.07544C7.3417 3.79978 7.11883 3.5769 6.84317 3.5769H4.03083C3.75516 3.5769 3.53229 3.79978 3.53229 4.07544C3.53229 4.3511 3.75516 4.57398 4.03083 4.57398Z" fill="#575757"/>
</svg>
