<svg width="12" height="13" viewBox="0 0 12 13" fill="none" xmlns="http://www.w3.org/2000/svg">
<path d="M4.15055 1.36941H7.84802V0.977226C7.84802 0.709286 7.9541 0.464578 8.12465 0.287385C8.29467 0.110206 8.52971 1.38479e-06 8.78865 1.38479e-06C9.0476 1.38479e-06 9.28262 0.110203 9.45318 0.286846L9.46826 0.303592C9.62996 0.479692 9.7298 0.717388 9.7298 0.977224V1.36941H10.3075C10.7729 1.36941 11.1961 1.56712 11.5029 1.8853C11.8097 2.20402 12 2.64375 12 3.12723V11.2416C12 11.7251 11.8097 12.1648 11.5034 12.4836C11.1966 12.8023 10.7734 13 10.308 13H1.692C1.22662 13 0.803363 12.8023 0.496578 12.4836C0.190312 12.1654 0 11.7251 0 11.2416V3.12723C0 2.64483 0.190312 2.2051 0.496578 1.88638C0.803883 1.56712 1.22714 1.36941 1.692 1.36941H2.26968V0.977224C2.26968 0.709284 2.37576 0.465116 2.54579 0.287923C2.71581 0.110191 2.95137 0 3.21031 0C3.46822 0 3.70376 0.110202 3.8738 0.286845C4.04488 0.463485 4.15094 0.708206 4.15094 0.977224V1.36941L4.15055 1.36941ZM5.8898 10.8234C6.01407 10.9045 6.05099 11.0752 5.97299 11.2037C5.895 11.3329 5.73069 11.3712 5.60693 11.2902C5.49774 11.2183 5.40623 11.1184 5.34382 11.0001C5.28195 10.8845 5.24711 10.7527 5.24711 10.6133C5.24711 10.3929 5.33342 10.1925 5.47277 10.0477C5.61213 9.90295 5.80452 9.81326 6.01718 9.81326C6.17577 9.81326 6.32448 9.86458 6.44876 9.95209C6.57615 10.0418 6.6765 10.1698 6.73318 10.3189C6.78726 10.461 6.72018 10.6214 6.58343 10.6776C6.44668 10.7338 6.29224 10.6641 6.23816 10.522C6.22048 10.475 6.18928 10.435 6.15133 10.408C6.11441 10.3821 6.06813 10.3664 6.01717 10.3664C5.95166 10.3664 5.89186 10.394 5.84871 10.4388C5.80607 10.4831 5.77903 10.5452 5.77903 10.6138C5.77903 10.6576 5.78995 10.6992 5.80815 10.7338C5.82739 10.7705 5.85547 10.8018 5.88978 10.824L5.8898 10.8234ZM7.90619 10.8234C8.03047 10.9045 8.06738 11.0752 7.98939 11.2037C7.91139 11.3329 7.74708 11.3712 7.62333 11.2902C7.51414 11.2183 7.42262 11.1184 7.3597 11.0001L7.35086 10.9823C7.29418 10.8704 7.26246 10.7446 7.26246 10.6133C7.26246 10.3929 7.34878 10.1925 7.48813 10.0477C7.62748 9.90294 7.82039 9.81326 8.03254 9.81326C8.19113 9.81326 8.33984 9.86458 8.46412 9.95209C8.59151 10.0423 8.69186 10.1698 8.74854 10.3189C8.80261 10.461 8.73554 10.6214 8.59878 10.6776C8.46203 10.7338 8.3076 10.6641 8.25352 10.522C8.23584 10.475 8.20464 10.435 8.16616 10.408C8.12924 10.3821 8.08297 10.367 8.03201 10.367C7.96649 10.367 7.9067 10.3945 7.86354 10.4394C7.82091 10.4837 7.79387 10.5458 7.79387 10.6144C7.79387 10.6554 7.80219 10.6932 7.81726 10.7246L7.82194 10.7332C7.84118 10.77 7.8703 10.8018 7.90462 10.824L7.90619 10.8234ZM3.87327 10.8234C3.99754 10.9045 4.03446 11.0752 3.95647 11.2037C3.87847 11.3329 3.71416 11.3712 3.59041 11.2902C3.48017 11.2178 3.38866 11.1179 3.32574 10.999L3.31378 10.9736C3.26022 10.864 3.22954 10.7408 3.22954 10.6128C3.22954 10.3923 3.31586 10.1919 3.45521 10.0472C3.59456 9.90241 3.78695 9.81273 3.99961 9.81273C4.15821 9.81273 4.30692 9.86404 4.43119 9.95156C4.55859 10.0418 4.65894 10.1693 4.71562 10.3183C4.76969 10.4604 4.70262 10.6209 4.56586 10.677C4.42912 10.7332 4.27468 10.6635 4.2206 10.5215C4.20292 10.4745 4.17172 10.4345 4.13324 10.4075C4.09632 10.3816 4.05004 10.3664 3.99909 10.3664C3.93357 10.3664 3.87377 10.394 3.83062 10.4388C3.78798 10.4831 3.76094 10.5452 3.76094 10.6138C3.76094 10.6533 3.76874 10.6889 3.78226 10.7197L3.79006 10.7338C3.8093 10.7705 3.8379 10.8018 3.8717 10.824L3.87327 10.8234ZM1.85688 10.8234C1.98115 10.9045 2.01806 11.0752 1.94007 11.2037C1.86207 11.3329 1.69777 11.3712 1.57401 11.2902C1.46482 11.2183 1.3733 11.1184 1.31038 11.0001L1.30154 10.9823C1.24486 10.8704 1.21315 10.7446 1.21315 10.6133C1.21315 10.3929 1.29946 10.1925 1.43881 10.0477C1.57816 9.90294 1.77056 9.81326 1.98322 9.81326C2.14181 9.81326 2.29052 9.86458 2.4148 9.95209C2.54219 10.0418 2.64254 10.1698 2.69922 10.3189C2.7533 10.461 2.68622 10.6214 2.54947 10.6776C2.41272 10.7338 2.25828 10.6641 2.2042 10.522C2.18652 10.475 2.15584 10.435 2.11736 10.408C2.08045 10.3821 2.03417 10.3664 1.98321 10.3664C1.9177 10.3664 1.8579 10.394 1.81474 10.4388C1.77211 10.4831 1.74507 10.5452 1.74507 10.6138C1.74507 10.6549 1.75339 10.6927 1.76847 10.724L1.77315 10.7327C1.79238 10.7694 1.8215 10.8013 1.85582 10.8234L1.85688 10.8234ZM5.88927 8.48064C6.01354 8.56167 6.05045 8.73237 5.97246 8.86094C5.89447 8.99005 5.73016 9.0284 5.6064 8.94738C5.49617 8.87499 5.40466 8.77451 5.34173 8.6562C5.2809 8.54114 5.24606 8.40933 5.24606 8.27049C5.24606 8.05009 5.33237 7.84967 5.47172 7.70491C5.61107 7.56014 5.80347 7.47046 6.01613 7.47046C6.17472 7.47046 6.32343 7.52178 6.44771 7.60929C6.5751 7.69897 6.67545 7.82699 6.73213 7.97608C6.78621 8.11815 6.71913 8.2786 6.58238 8.33479C6.44563 8.39097 6.29119 8.32128 6.23711 8.17921C6.21943 8.13221 6.18823 8.09223 6.15028 8.06522C6.11336 8.0393 6.06708 8.02363 6.01612 8.02363C5.95061 8.02363 5.89081 8.05118 5.84766 8.09602C5.80502 8.14031 5.77798 8.20244 5.77798 8.27104C5.77798 8.3148 5.7889 8.35639 5.8071 8.39096C5.82634 8.4277 5.85494 8.45903 5.88873 8.48118L5.88927 8.48064ZM9.92219 8.48064C10.0465 8.56167 10.0834 8.73237 10.0054 8.86094C9.92739 8.99005 9.76308 9.0284 9.63933 8.94738C9.52909 8.87553 9.43758 8.77505 9.37466 8.6562L9.3627 8.63081C9.30914 8.52115 9.27846 8.39853 9.27846 8.26996C9.27846 8.04955 9.36478 7.84913 9.50413 7.70437C9.64348 7.55959 9.83639 7.46992 10.0485 7.46992C10.2071 7.46992 10.3558 7.52124 10.4801 7.60876C10.6075 7.69843 10.7079 7.82646 10.7645 7.97555C10.8186 8.11761 10.7515 8.27806 10.6148 8.33425C10.478 8.39044 10.3236 8.32074 10.2695 8.17867C10.2518 8.13167 10.2206 8.0917 10.1822 8.06469C10.1452 8.03876 10.099 8.02309 10.048 8.02309C9.98249 8.02309 9.92269 8.05064 9.88006 8.09548C9.83742 8.13978 9.81038 8.2019 9.81038 8.2705C9.81038 8.30994 9.81818 8.34559 9.8317 8.37692L9.8395 8.39097C9.85874 8.4277 9.88734 8.45903 9.92114 8.48118L9.92219 8.48064ZM7.90579 8.48064C8.03007 8.56167 8.06698 8.73237 7.98899 8.86094C7.91099 8.99005 7.74669 9.0284 7.62293 8.94738C7.5127 8.87499 7.42118 8.77451 7.35826 8.6562L7.3463 8.63081C7.29275 8.52115 7.26207 8.39799 7.26207 8.26996C7.26207 8.04955 7.34838 7.84913 7.48773 7.70437C7.62709 7.55959 7.82 7.46992 8.03214 7.46992C8.19073 7.46992 8.33944 7.52124 8.46372 7.60876C8.59111 7.69843 8.69146 7.82646 8.74814 7.97555C8.80222 8.11761 8.73514 8.27806 8.59839 8.33425C8.46164 8.39043 8.3072 8.32074 8.25312 8.17867C8.23544 8.13167 8.20424 8.0917 8.16576 8.06469C8.12885 8.03876 8.08257 8.02309 8.03161 8.02309C7.9661 8.02309 7.9063 8.05064 7.86314 8.09548C7.82051 8.13978 7.79347 8.2019 7.79347 8.2705C7.79347 8.30994 7.80127 8.34559 7.81479 8.37638L7.82259 8.39042C7.84183 8.42716 7.87043 8.45849 7.90422 8.48064L7.90579 8.48064ZM3.87287 8.48064C3.99714 8.56167 4.03406 8.73237 3.95607 8.86094C3.87807 8.99005 3.71376 9.0284 3.59001 8.94738C3.47977 8.87553 3.38826 8.77505 3.32534 8.6562L3.31338 8.63081C3.25982 8.52115 3.22914 8.39799 3.22914 8.26996C3.22914 8.04955 3.31546 7.84913 3.45481 7.70437C3.59417 7.55959 3.78655 7.46992 3.99921 7.46992C4.15781 7.46992 4.30652 7.52124 4.43079 7.60876C4.55819 7.69843 4.65854 7.82646 4.71522 7.97555C4.76929 8.11761 4.70222 8.27806 4.56546 8.33425C4.42872 8.39043 4.27428 8.32074 4.2202 8.17867C4.20252 8.13167 4.17132 8.0917 4.13284 8.06469C4.09592 8.03876 4.04964 8.02309 3.99869 8.02309C3.93317 8.02309 3.87338 8.05064 3.83022 8.09548C3.78758 8.13978 3.76055 8.2019 3.76055 8.2705C3.76055 8.30994 3.76834 8.34559 3.78186 8.37692L3.78966 8.39097C3.8089 8.4277 3.8375 8.45903 3.8713 8.48118L3.87287 8.48064ZM1.85648 8.48064C1.98075 8.56167 2.01766 8.73237 1.93967 8.86094C1.86168 8.99005 1.69737 9.0284 1.57361 8.94738C1.46338 8.87499 1.37186 8.77451 1.30894 8.6562L1.29698 8.63081C1.24343 8.52115 1.21275 8.39799 1.21275 8.26996C1.21275 8.04955 1.29906 7.84913 1.43841 7.70437C1.57777 7.55959 1.77016 7.46992 1.98282 7.46992C2.14141 7.46992 2.29012 7.52124 2.4144 7.60876C2.54179 7.69843 2.64214 7.82646 2.69882 7.97555C2.7529 8.11761 2.68582 8.27806 2.54907 8.33425C2.41232 8.39044 2.25788 8.32074 2.2038 8.17867C2.18612 8.13167 2.15544 8.0917 2.11697 8.06469C2.08005 8.03876 2.03377 8.02309 1.98281 8.02309C1.9173 8.02309 1.8575 8.05064 1.81435 8.09548C1.77171 8.13978 1.74467 8.2019 1.74467 8.2705C1.74467 8.30994 1.75247 8.34559 1.76599 8.37638L1.77379 8.39042C1.79303 8.42716 1.82163 8.45849 1.85542 8.48064L1.85648 8.48064ZM5.88887 6.13729C6.01314 6.21832 6.05005 6.38902 5.97206 6.51759C5.89407 6.6467 5.72976 6.68505 5.606 6.60402C5.49577 6.53164 5.40426 6.43116 5.34133 6.31285C5.2805 6.19779 5.24566 6.06597 5.24566 5.92714C5.24566 5.70619 5.33197 5.50632 5.47132 5.36156C5.61068 5.21679 5.80307 5.12711 6.01573 5.12711C6.17432 5.12711 6.32304 5.17843 6.44731 5.26594C6.5747 5.35562 6.67505 5.48364 6.73173 5.63273C6.78581 5.7748 6.71873 5.93525 6.58198 5.99143C6.44523 6.04762 6.2908 5.97793 6.23671 5.83586C6.21903 5.78886 6.18783 5.74888 6.14988 5.72187C6.11296 5.69594 6.06668 5.68028 6.01573 5.68028C5.95021 5.68028 5.89041 5.70783 5.84726 5.75266C5.80462 5.79696 5.77758 5.85908 5.77758 5.92769C5.77758 5.97198 5.7885 6.01304 5.8067 6.04761C5.82594 6.08434 5.85454 6.11568 5.88833 6.13782L5.88887 6.13729ZM9.92179 6.13729C10.0461 6.21832 10.083 6.38902 10.005 6.51759C9.92699 6.6467 9.76268 6.68505 9.63892 6.60402C9.52869 6.53218 9.43718 6.4317 9.37426 6.31285L9.3623 6.28746C9.30874 6.1778 9.27806 6.05463 9.27806 5.9266C9.27806 5.70619 9.36438 5.50578 9.50373 5.36102C9.64308 5.21625 9.83599 5.12657 10.0481 5.12657C10.2067 5.12657 10.3554 5.17789 10.4797 5.2654C10.6071 5.35508 10.7075 5.4831 10.7641 5.63219C10.8182 5.77426 10.7511 5.93471 10.6144 5.9909C10.4776 6.04708 10.3232 5.97739 10.2691 5.83532C10.2514 5.78832 10.2202 5.74834 10.1818 5.72133C10.1448 5.6954 10.0986 5.67974 10.0476 5.67974C9.98209 5.67974 9.92229 5.70729 9.87966 5.75213C9.83702 5.79642 9.80998 5.85855 9.80998 5.92715C9.80998 5.96658 9.81778 6.00278 9.8313 6.03357L9.8391 6.04707C9.85834 6.08381 9.88694 6.11514 9.92074 6.13729L9.92179 6.13729ZM7.9054 6.13729C8.02967 6.21832 8.06658 6.38902 7.98859 6.51759C7.91059 6.6467 7.74629 6.68505 7.62253 6.60402C7.5123 6.53164 7.42078 6.43116 7.35786 6.31285L7.3459 6.28746C7.29235 6.1778 7.26167 6.05463 7.26167 5.9266C7.26167 5.70566 7.34798 5.50578 7.48733 5.36102C7.62668 5.21625 7.8196 5.12657 8.03174 5.12657C8.19033 5.12657 8.33904 5.17789 8.46332 5.2654C8.59071 5.35508 8.69106 5.4831 8.74774 5.63219C8.80182 5.77426 8.73474 5.93471 8.59799 5.9909C8.46124 6.04708 8.3068 5.97739 8.25272 5.83532C8.23504 5.78832 8.20384 5.74834 8.16536 5.72133C8.12845 5.6954 8.08217 5.67974 8.03121 5.67974C7.9657 5.67974 7.9059 5.70729 7.86275 5.75213C7.82011 5.79642 7.79307 5.85855 7.79307 5.92715C7.79307 5.96658 7.80087 6.00278 7.81439 6.03357L7.82219 6.04707C7.84143 6.08381 7.87003 6.11514 7.90382 6.13729L7.9054 6.13729ZM3.87247 6.13729C3.99674 6.21832 4.03366 6.38902 3.95567 6.51759C3.87767 6.6467 3.71336 6.68505 3.58961 6.60402C3.47937 6.53164 3.38786 6.4317 3.32494 6.31285L3.31298 6.28746C3.25942 6.1778 3.22874 6.05463 3.22874 5.9266C3.22874 5.70566 3.31506 5.50578 3.45441 5.36102C3.59376 5.21625 3.78615 5.12657 3.99882 5.12657C4.15741 5.12657 4.30612 5.17789 4.43039 5.2654C4.55779 5.35508 4.65814 5.4831 4.71482 5.63219C4.76889 5.77426 4.70182 5.93471 4.56506 5.9909C4.42831 6.04708 4.27388 5.97739 4.2198 5.83532C4.20212 5.78832 4.17092 5.74834 4.13244 5.72133C4.09552 5.6954 4.04925 5.67974 3.99829 5.67974C3.93277 5.67974 3.87298 5.70729 3.82982 5.75213C3.78718 5.79642 3.76015 5.85855 3.76015 5.92715C3.76015 5.96658 3.76794 6.00278 3.78146 6.03357L3.78926 6.04707C3.8085 6.08381 3.8371 6.11514 3.8709 6.13729L3.87247 6.13729ZM0.530671 3.74415H11.4656V3.12725C11.4656 2.79611 11.3351 2.49521 11.1251 2.27643C10.915 2.0582 10.6248 1.9226 10.3061 1.9226H9.72842V2.31478C9.72842 2.5838 9.62286 2.82797 9.45231 3.00516C9.28229 3.1818 9.04673 3.29201 8.78779 3.29201C8.52884 3.29201 8.29382 3.18181 8.12326 3.00516C7.95272 2.82798 7.84716 2.5838 7.84716 2.31478V1.9226H4.14968V2.31478C4.14968 2.58272 4.04361 2.82743 3.87358 3.00408C3.70198 3.18182 3.46696 3.29201 3.20905 3.29201C2.95062 3.29201 2.71508 3.18181 2.54452 3.00516L2.52944 2.98842C2.36774 2.81286 2.2679 2.57516 2.2679 2.31478V1.9226H1.69022C1.37148 1.9226 1.08082 2.05819 0.87075 2.2759C0.661204 2.49413 0.530687 2.79557 0.530687 3.12725L0.530671 3.74415ZM11.4656 4.29732H0.530671V11.2416C0.530671 11.5728 0.661184 11.8742 0.871254 12.0924C1.08132 12.3107 1.37147 12.4463 1.6902 12.4463H10.3062C10.6249 12.4463 10.9146 12.3107 11.1252 12.0924C11.3352 11.8742 11.4657 11.5728 11.4657 11.2416L11.4656 4.29732ZM9.07586 0.677949C9.00202 0.60124 8.90011 0.553163 8.78779 0.553163C8.67547 0.553163 8.57356 0.601241 8.49972 0.677949C8.42536 0.754117 8.37961 0.859996 8.37961 0.977226V2.31531C8.37961 2.43199 8.42588 2.53788 8.49972 2.61459C8.57355 2.6913 8.67547 2.73937 8.78779 2.73937C8.90011 2.73937 9.00202 2.69129 9.07586 2.61459C9.1497 2.53788 9.19597 2.43146 9.19597 2.31531V0.977226C9.19597 0.865404 9.15437 0.763842 9.08678 0.688763L9.07586 0.677949ZM3.49709 0.677409C3.42326 0.6007 3.32134 0.553162 3.2085 0.553162C3.09671 0.553162 2.99427 0.60124 2.92043 0.677948C2.8466 0.754116 2.80032 0.860534 2.80032 0.977225V2.31531C2.80032 2.42713 2.84244 2.52869 2.91004 2.60431L2.92044 2.61457C2.99427 2.69128 3.0967 2.73936 3.20851 2.73936C3.32082 2.73936 3.42326 2.69128 3.49709 2.61511C3.57041 2.5384 3.61669 2.43199 3.61669 2.3153V0.977214C3.61669 0.861071 3.57041 0.754658 3.49709 0.677409Z" fill="#2F6CAD"/>
</svg>
