<svg width="12" height="14" viewBox="0 0 12 14" fill="none" xmlns="http://www.w3.org/2000/svg">
<path d="M2.02325 7.20962H2.0449C2.50495 7.20962 2.46005 7.854 2.06339 7.89361C1.66673 7.93323 1.31972 8.19573 1.0176 8.97955C0.957964 9.1061 0.926655 9.24413 0.925854 9.38403C0.925053 9.52393 0.954781 9.66232 1.01296 9.78954C1.07115 9.91677 1.15638 10.0298 1.26273 10.1207C1.36907 10.2116 1.49397 10.2782 1.6287 10.3158C1.66471 10.3157 1.70043 10.3095 1.73434 10.2973C2.09614 10.1563 2.64914 9.16018 2.82978 8.87972C3.01041 8.59926 5.60535 5.45977 5.76645 5.34093C6.17551 4.72829 6.54476 4.09 6.87192 3.42998C6.99974 3.18913 7.39482 2.06517 7.7318 1.25864C7.96102 1.53752 8.58692 2.16816 9.06492 2.16816C9.1289 2.16833 9.1924 2.15706 9.25242 2.13489C9.7806 1.93418 9.59785 0.7986 9.42513 0.0913696C9.61269 0.100724 9.79893 0.127961 9.98131 0.172709C10.3389 0.300215 10.6403 0.549444 10.8327 0.87677C10.9738 1.05794 12 1.05794 12 1.31991C11.9539 1.69347 11.8379 2.05503 11.6583 2.38577C11.2208 2.5333 10.769 2.63456 10.3104 2.68789C10.1426 3.09315 10.032 3.51979 9.98183 3.95552C10.0118 4.43763 10.0118 4.92114 9.98183 5.40325C10.1135 6.15938 10.0743 6.93539 9.86722 7.67442C9.72724 8.12117 9.4931 8.53272 9.18059 8.88131C9.17372 8.02777 9.1658 6.88743 9.1658 6.88743H8.91703C8.91703 6.88743 8.9371 9.54364 8.9371 9.78449C9.02544 10.5858 9.16963 11.38 9.36862 12.1613C9.44538 12.2978 9.55786 12.4108 9.69398 12.4882C9.92162 12.6525 10.1572 12.8236 10.1308 13.159H9.11721C8.87794 12.6926 8.53621 12.0086 8.49818 11.8623C8.43691 11.6384 8.22934 11.0701 8.2193 11.0474C8.07986 10.6074 7.70803 9.41001 7.67475 9.21934C7.60429 9.01639 7.50408 8.82504 7.37739 8.65155C7.12371 8.293 6.93179 7.89453 6.8096 7.47265C6.80497 7.43988 6.78752 7.41028 6.76107 7.39037C6.73463 7.37046 6.70135 7.36187 6.66857 7.36649C6.63579 7.37111 6.60619 7.38857 6.58629 7.41502C6.56638 7.44146 6.55779 7.47473 6.56241 7.50751C6.68511 7.96497 6.88867 8.39678 7.16348 8.78254C7.2671 8.93274 7.35556 9.09286 7.42756 9.26054C7.44235 9.34663 7.51207 9.59434 7.59711 9.88167C7.3082 10.0142 7.06893 10.1225 6.89463 10.2234C6.77797 9.79989 6.52239 9.42787 6.16892 9.16705C5.12788 8.25753 3.32996 9.73484 3.2539 9.80086C3.23129 9.82273 3.21773 9.8523 3.21593 9.88371C3.21413 9.91512 3.22422 9.94605 3.2442 9.97035C3.26417 9.99465 3.29256 10.0105 3.32372 10.0149C3.35489 10.0192 3.38653 10.0116 3.41236 9.99365C3.42873 9.97886 5.12207 8.58764 6.0036 9.35983C6.88513 10.132 6.79903 10.6047 6.25924 11.3669C5.75641 12.0741 4.49301 12.3345 4.4798 12.3366C4.44866 12.343 4.42109 12.361 4.40258 12.3868C4.38407 12.4127 4.376 12.4445 4.37998 12.4761C4.38458 12.5076 4.40113 12.5362 4.4262 12.5558C4.45127 12.5755 4.48295 12.5848 4.51466 12.5817C4.93721 12.5469 6.11663 12.4972 6.48371 12.6979C6.57473 12.74 6.65331 12.8049 6.71181 12.8864C6.7703 12.9678 6.80672 13.063 6.81752 13.1627H3.00408C2.94694 13.1697 2.88897 13.1641 2.83423 13.1463C2.77949 13.1285 2.7293 13.0989 2.68717 13.0597C2.63836 12.9695 2.61102 12.8692 2.60726 12.7667C2.60351 12.6642 2.62344 12.5622 2.66551 12.4687C2.77115 12.0836 3.3775 11.7081 3.60197 11.5956C3.63108 11.5803 3.65297 11.5541 3.66286 11.5228C3.67275 11.4914 3.66985 11.4574 3.65479 11.4282C3.63973 11.3988 3.61381 11.3765 3.58255 11.3659C3.55128 11.3554 3.51713 11.3574 3.48736 11.3717C3.45091 11.3901 2.58417 11.828 2.42308 12.3995C2.41146 12.4412 2.40301 12.4793 2.39509 12.5173C2.23664 12.3505 2.10257 12.1622 1.99684 11.9579C1.39554 11.6877 0.87029 11.2731 0.467766 10.7511C0.194304 10.4032 0.0327658 9.98053 0.00447641 9.53893C-0.023813 9.09733 0.0824761 8.65754 0.309313 8.2776C0.463613 7.95562 0.706037 7.68399 1.00847 7.49421C1.31089 7.30443 1.66093 7.20429 2.01797 7.2054L2.02325 7.20962Z" fill="#2F6CAD"/>
<path d="M9.1637 1.89774C9.1317 1.90924 9.09787 1.91479 9.06388 1.91412C8.61228 1.91412 7.8253 1.031 7.84907 0.981355C7.85452 0.828774 7.89211 0.67906 7.95937 0.541995C8.02663 0.404929 8.12204 0.283595 8.23939 0.185919C8.46632 0.0681763 8.71741 0.00454346 8.97303 0C9.07866 0 9.15419 0.0184863 9.1637 0.0649659C9.1637 0.0649659 9.58624 1.73506 9.1637 1.89457V1.89774Z" fill="#2F6CAD"/>
</svg>
