<svg width="17" height="18" viewBox="0 0 17 18" fill="none" xmlns="http://www.w3.org/2000/svg">
<path d="M2.72557 9.71222H2.75474C3.37448 9.71222 3.314 10.5803 2.77964 10.6336C2.24529 10.687 1.77782 11.0406 1.37083 12.0965C1.2905 12.267 1.24832 12.453 1.24724 12.6414C1.24616 12.8299 1.28621 13.0163 1.36459 13.1877C1.44297 13.3591 1.55779 13.5113 1.70105 13.6338C1.84431 13.7562 2.01256 13.8459 2.19406 13.8967C2.24257 13.8965 2.29069 13.8881 2.33637 13.8718C2.82376 13.6818 3.56872 12.3399 3.81206 11.962C4.0554 11.5842 7.55111 7.35495 7.76812 7.19486C8.31918 6.36956 8.81661 5.50969 9.25733 4.62057C9.42952 4.29612 9.96174 2.782 10.4157 1.69551C10.7245 2.07119 11.5676 2.92075 12.2116 2.92075C12.2978 2.92097 12.3833 2.90579 12.4642 2.87592C13.1757 2.60554 12.9295 1.07577 12.6968 0.123047C12.9495 0.135649 13.2004 0.17234 13.4461 0.232621C13.9278 0.404388 14.3338 0.740131 14.593 1.18108C14.783 1.42513 16.1655 1.42513 16.1655 1.77805C16.1033 2.28127 15.9472 2.76834 15.7051 3.21389C15.1158 3.41263 14.5072 3.54904 13.8893 3.62089C13.6633 4.16682 13.5144 4.74155 13.4468 5.32854C13.4871 5.978 13.4871 6.62935 13.4468 7.27882C13.6242 8.29741 13.5714 9.34279 13.2924 10.3384C13.1038 10.9402 12.7884 11.4946 12.3674 11.9642C12.3581 10.8144 12.3475 9.27819 12.3475 9.27819H12.0123C12.0123 9.27819 12.0394 12.8564 12.0394 13.1809C12.1584 14.2604 12.3526 15.3303 12.6207 16.3827C12.7241 16.5666 12.8756 16.7189 13.059 16.8232C13.3657 17.0444 13.683 17.275 13.6474 17.7268H12.282C11.9597 17.0985 11.4993 16.1771 11.4481 15.98C11.3656 15.6783 11.0859 14.9127 11.0724 14.8821C10.8846 14.2894 10.3837 12.6764 10.3388 12.4196C10.2439 12.1462 10.1089 11.8884 9.93826 11.6547C9.59652 11.1717 9.33799 10.6349 9.17337 10.0666C9.16715 10.0224 9.14363 9.98252 9.108 9.9557C9.07238 9.92888 9.02755 9.91731 8.9834 9.92354C8.93924 9.92977 8.89937 9.95328 8.87254 9.98891C8.84572 10.0245 8.83416 10.0694 8.84038 10.1135C9.00568 10.7298 9.2799 11.3115 9.65009 11.8311C9.78969 12.0335 9.90886 12.2492 10.0059 12.4751C10.0258 12.591 10.1197 12.9247 10.2343 13.3118C9.84505 13.4904 9.52273 13.6363 9.28793 13.7722C9.13077 13.2016 8.78647 12.7005 8.3103 12.3491C6.90789 11.1239 4.48587 13.114 4.38341 13.2029C4.35294 13.2324 4.33468 13.2722 4.33226 13.3145C4.32983 13.3569 4.34343 13.3985 4.37034 13.4313C4.39724 13.464 4.43549 13.4854 4.47747 13.4912C4.51945 13.497 4.56207 13.4868 4.59687 13.4626C4.61893 13.4427 6.90006 11.5686 8.08759 12.6088C9.27512 13.6491 9.15914 14.2859 8.43197 15.3126C7.7546 16.2653 6.05264 16.6161 6.03485 16.619C5.9929 16.6276 5.95575 16.6517 5.93082 16.6865C5.90589 16.7214 5.89502 16.7643 5.90038 16.8068C5.90657 16.8493 5.92887 16.8877 5.96264 16.9142C5.99642 16.9407 6.03909 16.9532 6.08181 16.9491C6.65103 16.9021 8.23986 16.8353 8.73437 17.1056C8.85698 17.1623 8.96284 17.2498 9.04164 17.3595C9.12044 17.4692 9.1695 17.5975 9.18405 17.7318H4.04686C3.96989 17.7411 3.89181 17.7336 3.81806 17.7096C3.74432 17.6856 3.67671 17.6459 3.61995 17.593C3.5542 17.4715 3.51737 17.3364 3.51231 17.1983C3.50725 17.0603 3.5341 16.9229 3.59078 16.7968C3.73308 16.2781 4.54991 15.7722 4.85231 15.6207C4.89152 15.6001 4.921 15.5648 4.93433 15.5226C4.94766 15.4803 4.94375 15.4345 4.92346 15.3951C4.90317 15.3556 4.86825 15.3255 4.82613 15.3113C4.78402 15.2971 4.73802 15.2998 4.69791 15.319C4.64881 15.3439 3.4812 15.9338 3.26419 16.7036C3.24854 16.7598 3.23715 16.8111 3.22648 16.8623C3.01304 16.6377 2.83242 16.384 2.68999 16.1088C1.87996 15.7448 1.17239 15.1863 0.630139 14.483C0.261751 14.0143 0.0441396 13.445 0.00603028 12.8501C-0.0320791 12.2552 0.111106 11.6627 0.416683 11.1509C0.624544 10.7172 0.95112 10.3512 1.35853 10.0956C1.76594 9.83994 2.23748 9.70504 2.71845 9.70653L2.72557 9.71222Z" fill="#2F6CAD"/>
<path d="M12.3449 2.5565C12.3018 2.57199 12.2562 2.57946 12.2104 2.57855C11.6021 2.57855 10.5419 1.38889 10.574 1.32201C10.5813 1.11646 10.6319 0.914779 10.7225 0.730134C10.8131 0.54549 10.9417 0.382038 11.0998 0.250456C11.4055 0.091842 11.7437 0.00612061 12.0881 0C12.2304 0 12.3321 0.0249033 12.3449 0.0875172C12.3449 0.0875172 12.9141 2.33735 12.3449 2.55223V2.5565Z" fill="#2F6CAD"/>
</svg>
