<svg width="24" height="24" viewBox="0 0 24 24" fill="none" xmlns="http://www.w3.org/2000/svg">
<circle cx="12" cy="12" r="11.5" stroke="#2F6CAD"/>
<path d="M11.448 16.576V13.232C9.08 12.8 7.64 11.76 7.64 9.984C7.64 7.808 9.448 6.688 11.448 6.624V6.256C11.448 5.984 11.656 5.712 11.928 5.712C12.2 5.712 12.408 5.984 12.408 6.256V6.624C13.656 6.656 16.216 7.44 16.216 9.008C16.216 9.632 15.752 10 15.208 10C14.168 10 14.184 8.288 12.408 8.256V11.296C14.52 11.744 16.392 12.368 16.392 14.832C16.392 16.976 14.792 18.064 12.408 18.208V19.2C12.408 19.472 12.2 19.744 11.928 19.744C11.656 19.744 11.448 19.472 11.448 19.2V18.208C8.744 18.144 7.4 16.528 7.4 15.264C7.4 14.624 7.784 14.256 8.392 14.256C10.184 14.256 8.792 16.464 11.448 16.576ZM11.448 11.12V8.256C10.36 8.288 9.656 8.928 9.656 9.616C9.656 10.416 10.248 10.88 11.448 11.12ZM12.408 13.408V16.576C13.368 16.512 14.376 16.064 14.376 15.008C14.376 13.92 13.272 13.6 12.408 13.408Z" fill="#2F6CAD"/>
</svg>
