<svg width="21" height="17" viewBox="0 0 21 17" fill="none" xmlns="http://www.w3.org/2000/svg">
<path fill-rule="evenodd" clip-rule="evenodd" d="M0.569 0.639997L0.744003 6.335L0 7.084C0 7.084 0.129998 12.625 0.656998 14.12C0.944032 14.9604 1.3121 15.7709 1.756 16.54H19.256V6.07C19.256 6.07 15.396 2.218 11.209 1.423C7.68692 0.896099 4.13026 0.634362 0.569 0.639997ZM15.082 4.307H15.382C15.6307 4.30805 15.8689 4.40732 16.0448 4.58319C16.2207 4.75906 16.3199 4.99729 16.321 5.246V5.858C16.3202 6.10689 16.2211 6.34537 16.0452 6.52146C15.8693 6.69754 15.6309 6.79694 15.382 6.798H15.082V4.307ZM19.455 14.574H20.126V12.949H19.455V14.574ZM19.455 11.249H20.126V9.625H19.455V11.249ZM1.87 1.715C4.47684 1.71384 7.08144 1.86778 9.67 2.176C11.4766 2.42003 13.2131 3.03562 14.77 3.984C15.329 3.984 15.824 3.911 16.27 4.356C16.507 4.59242 16.6404 4.91325 16.641 5.248V5.86C16.6405 6.19507 16.5071 6.51627 16.2702 6.7532C16.0333 6.99013 15.7121 7.12347 15.377 7.124H14.753V6.361C10.532 6.361 6.287 6.336 2.066 6.336L1.87 1.715ZM2.535 8.096H5.116C5.22898 8.096 5.33734 8.14088 5.41723 8.22077C5.49712 8.30066 5.542 8.40902 5.542 8.522C5.542 8.63498 5.49712 8.74333 5.41723 8.82322C5.33734 8.90311 5.22898 8.948 5.116 8.948H2.535C2.42202 8.948 2.31366 8.90311 2.23377 8.82322C2.15388 8.74333 2.109 8.63498 2.109 8.522C2.109 8.40902 2.15388 8.30066 2.23377 8.22077C2.31366 8.14088 2.42202 8.096 2.535 8.096Z" fill="#2F6CAD"/>
</svg>
