<svg width="17" height="18" viewBox="0 0 17 18" fill="none" xmlns="http://www.w3.org/2000/svg">
<path d="M16.3049 1.64836L15.4906 0.794392C15.2126 0.516354 14.8352 0.337616 14.4778 0.337616C14.16 0.337616 13.8621 0.456775 13.6635 0.675233L4.9649 9.67173L4.05135 13.0678C4.01163 13.1869 4.05135 13.3061 4.13079 13.4054C4.21023 13.4848 4.32939 13.5047 4.42869 13.4848L7.72541 12.5514L16.424 3.57477C16.6425 3.35631 16.7616 3.05841 16.7616 2.72079C16.7616 2.3236 16.6028 1.94626 16.3049 1.64836ZM5.73943 12.4124C5.73943 12.035 5.42168 11.7371 5.0642 11.7173L5.48126 10.1086L7.2885 11.9755L5.73943 12.4124ZM7.70555 11.5187L5.95789 9.71145L12.5911 2.85981L14.3387 4.68692L7.70555 11.5187ZM15.9275 3.03855L14.8749 4.11098L13.1273 2.28388L14.1401 1.23131C14.3586 1.01285 14.8154 1.01285 15.0537 1.27103L15.8679 2.125C16.007 2.26402 16.0665 2.44276 16.0665 2.62149C16.0864 2.78037 16.0268 2.91939 15.9275 3.03855Z" fill="black"/>
<path d="M12.9685 4.38903L7.52692 9.94977L7.44748 9.87034L7.36804 9.7909L12.8096 4.23015L12.8891 4.30959L12.9685 4.38903Z" fill="black"/>
<path d="M17 7.01051V14.4579C17 16.3843 15.6297 17.0794 14.4579 17.0794H2.54206C1.37033 17.0794 0 16.285 0 14.0012V2.16472C0 0.516355 1.70794 0 2.54206 0H10.4661C10.6647 0 10.8435 0.178738 10.8435 0.397196C10.8435 0.615654 10.6846 0.794393 10.4661 0.794393H2.60164C2.3236 0.794393 1.68808 0.794393 1.25117 1.25117C0.913551 1.56893 0.754673 2.06542 0.754673 2.72079V13.9614C0.913551 15.5701 1.8271 16.3049 2.64136 16.3049H14.3984C15.0736 16.3049 16.285 15.6694 16.285 14.3785V7.03037C16.285 6.81192 16.4439 6.63318 16.6624 6.63318C16.8411 6.63318 17 6.79206 17 7.01051Z" fill="black"/>
</svg>
