<svg width="16" height="11" viewBox="0 0 16 11" fill="none" xmlns="http://www.w3.org/2000/svg">
<path d="M7.69354 7.19898C6.38718 5.8398 2.34677 1.61831 0.797632 0H15.2023C13.6705 1.60107 9.58949 5.86283 8.30635 7.19898C8.22542 7.28033 8.11487 7.32641 8 7.32641C7.88513 7.32641 7.77445 7.28033 7.69354 7.19898ZM9.14442 7.99376C8.84456 8.30332 8.43198 8.47826 7.99991 8.47826C7.56783 8.47826 7.15526 8.30332 6.8554 7.99376C5.56637 6.64609 1.57225 2.48219 0 0.834954V10.2167C0.000722497 10.6494 0.35187 10.9993 0.786127 11H15.2139C15.6481 10.9993 15.9993 10.6494 16 10.2167V0.829057C14.4509 2.45894 10.422 6.66314 9.1446 7.99357L9.14442 7.99376Z" fill="#2F6CAD"/>
</svg>
