<svg width="20" height="18" viewBox="0 0 20 18" fill="none" xmlns="http://www.w3.org/2000/svg">
<g opacity="0.41">
<path d="M19.25 6.14999C16.94 2.51999 13.56 0.429993 10 0.429993C8.19772 0.443221 6.43491 0.959249 4.91 1.91999C3.2237 3.00023 1.80195 4.4459 0.750003 6.14999C0.258399 7.0176 0 7.99779 0 8.99499C0 9.9922 0.258399 10.9724 0.750003 11.84C3.06 15.48 6.44 17.56 10 17.56C11.8023 17.5468 13.5651 17.0307 15.09 16.07C16.7763 14.9898 18.1981 13.5441 19.25 11.84C19.7416 10.9724 20 9.9922 20 8.99499C20 7.99779 19.7416 7.0176 19.25 6.14999ZM10 13.04C9.20097 13.04 8.41987 12.8031 7.7555 12.3591C7.09112 11.9152 6.57331 11.2842 6.26753 10.546C5.96175 9.80782 5.88175 8.99551 6.03763 8.21183C6.19351 7.42814 6.57829 6.70829 7.14329 6.14328C7.7083 5.57828 8.42815 5.1935 9.21184 5.03762C9.99552 4.88174 10.8078 4.96174 11.546 5.26752C12.2843 5.5733 12.9152 6.09111 13.3591 6.75549C13.8031 7.41986 14.04 8.20096 14.04 8.99999C14.0407 9.53072 13.9366 10.0564 13.7338 10.5468C13.531 11.0373 13.2335 11.4829 12.8582 11.8582C12.4829 12.2335 12.0373 12.531 11.5468 12.7338C11.0564 12.9366 10.5307 13.0407 10 13.04Z" fill="#2F6CAD"/>
<path d="M9.99999 6.14002C9.43575 6.14101 8.88446 6.30916 8.41572 6.62325C7.94699 6.93734 7.58183 7.38328 7.36636 7.90476C7.15089 8.42624 7.09478 8.99987 7.2051 9.55322C7.31542 10.1066 7.58723 10.6148 7.98621 11.0138C8.38518 11.4128 8.89344 11.6846 9.44678 11.7949C10.0001 11.9052 10.5738 11.8491 11.0952 11.6336C11.6167 11.4182 12.0627 11.053 12.3768 10.5843C12.6908 10.1155 12.859 9.56425 12.86 9.00002C12.8604 8.62432 12.7867 8.25224 12.6431 7.90507C12.4995 7.55791 12.2889 7.24246 12.0232 6.97681C11.7575 6.71116 11.4421 6.50051 11.0949 6.35692C10.7478 6.21333 10.3757 6.13962 9.99999 6.14002Z" fill="#2F6CAD"/>
</g>
</svg>
