<svg width="24" height="24" viewBox="0 0 24 24" fill="none" xmlns="http://www.w3.org/2000/svg">
<path d="M12 19C11.8103 19 11.6229 18.9386 11.4603 18.8181C11.3519 18.7363 11.2187 18.6385 11.0629 18.5248C9.24968 17.197 5 14.0845 5 11.0925C5 8.83706 6.82226 7 9.06452 7C10.1755 7 11.2368 7.46381 12 8.26184C12.7632 7.46381 13.8245 7 14.9355 7C17.1777 7 19 8.83706 19 11.0925C19 14.0845 14.7503 17.197 12.9371 18.5271C12.7813 18.6408 12.6481 18.7385 12.5397 18.8204C12.3771 18.9409 12.1897 19 12 19ZM9.06452 7.90944C7.32129 7.90944 5.90323 9.33725 5.90323 11.0925C5.90323 13.623 10.0377 16.6514 11.5935 17.7905C11.7516 17.9064 11.8894 18.0087 12 18.0906C12.1061 18.0064 12.2439 17.9064 12.4042 17.7905C13.9623 16.6491 18.0968 13.6207 18.0968 11.0925C18.0968 9.33725 16.6787 7.90944 14.9355 7.90944C13.9216 7.90944 12.9619 8.40508 12.3658 9.23721C12.28 9.35544 12.1445 9.42592 12 9.42592C11.8555 9.42592 11.7177 9.35544 11.6342 9.23721C11.0381 8.40508 10.0784 7.90944 9.06452 7.90944Z" fill="#2F6CAD"/>
<circle cx="12" cy="12" r="11.5" stroke="#2F6CAD"/>
</svg>
