<svg width="24" height="24" viewBox="0 0 24 24" fill="none" xmlns="http://www.w3.org/2000/svg">
<circle cx="12" cy="12" r="11.5" stroke="#2F6CAD"/>
<path d="M17.6266 6H9.27178C9.17247 6 9.07676 6.03962 9.00679 6.10959C8.9363 6.18007 8.89719 6.27525 8.89719 6.37454V8.65377C8.89719 8.86059 9.06493 9.02832 9.27179 9.02832C9.47864 9.02832 9.64639 8.8606 9.64639 8.65377V6.74912H17.252V14.4587H15.274C14.8248 14.4592 14.4605 14.8235 14.4599 15.2731V17.2509H9.6463V14.3312C9.6463 14.1243 9.47856 13.9566 9.2717 13.9566C9.06485 13.9566 8.8971 14.1243 8.8971 14.3312V17.6255C8.8971 17.7248 8.9362 17.8199 9.0067 17.8904C9.07668 17.9604 9.17238 18 9.27169 18H14.836C14.8479 18 14.8592 18 14.871 17.9979C14.8793 17.9969 14.887 17.9959 14.8947 17.9943C14.8988 17.9943 14.9029 17.9933 14.9071 17.9923C14.9163 17.9902 14.9251 17.9882 14.9343 17.9856C14.9369 17.9846 14.94 17.9841 14.9426 17.9835C14.9518 17.981 14.9606 17.9774 14.9688 17.9743C14.9714 17.9732 14.9739 17.9727 14.9765 17.9717C14.9847 17.9681 14.993 17.964 15.0012 17.9599L15.01 17.9558C15.0177 17.9516 15.0249 17.947 15.0321 17.9424C15.0352 17.9403 15.0383 17.9388 15.0413 17.9367C15.0486 17.9321 15.0558 17.9264 15.0624 17.9213C15.065 17.9192 15.0681 17.9172 15.0707 17.9151C15.0805 17.9074 15.0897 17.8992 15.0985 17.8899L17.8909 15.0983L17.8914 15.0988C17.9033 15.0865 17.9146 15.0736 17.9244 15.0603L17.9311 15.0515C17.9408 15.0381 17.9496 15.0242 17.9573 15.0098L17.9588 15.0068C17.966 14.9929 17.9722 14.9785 17.9779 14.964C17.9789 14.961 17.9799 14.9584 17.981 14.9553C17.9861 14.9394 17.9907 14.9234 17.9943 14.9069V14.9049C17.9969 14.89 17.999 14.8745 18 14.8591V14.8457V14.8334V6.37463C18 6.16832 17.8328 6.0006 17.6264 6.00008L17.6266 6ZM15.2088 16.7208V15.272C15.2088 15.236 15.2386 15.2062 15.2746 15.2062H16.7236L15.2088 16.7208ZM16.4468 12.6333H16.4473C16.4473 12.8401 16.2796 13.0078 16.0727 13.0078H14.0175C13.8107 13.0078 13.6435 12.8401 13.6435 12.6333C13.6435 12.4264 13.8107 12.2592 14.0175 12.2592H16.0727C16.2796 12.2592 16.4468 12.4269 16.4468 12.6338L16.4468 12.6333ZM16.4468 8.18597L16.4473 8.18649C16.4473 8.39279 16.2796 8.56051 16.0727 8.56051H10.8263C10.6195 8.56051 10.4517 8.39279 10.4517 8.18649C10.4517 7.97966 10.6195 7.81193 10.8263 7.81193H16.0722C16.1715 7.81193 16.2667 7.85103 16.3372 7.92152C16.4072 7.992 16.4468 8.08718 16.4468 8.18648L16.4468 8.18597ZM16.4468 10.4096H16.4473C16.4473 10.6164 16.2796 10.7842 16.0727 10.7842H12.2063C11.9995 10.7842 11.8317 10.6164 11.8317 10.4096C11.8317 10.2028 11.9994 10.0356 12.2063 10.0356H16.0722C16.1715 10.0356 16.2667 10.0747 16.3372 10.1452C16.4072 10.2157 16.4468 10.3108 16.4468 10.4101L16.4468 10.4096ZM11.1367 14.7755C11.1845 14.8233 11.2447 14.8573 11.3106 14.8738L12.6031 15.1963C12.7308 15.2282 12.8656 15.1912 12.9587 15.0981C13.0513 15.005 13.0889 14.8702 13.057 14.7426L12.7344 13.4502C12.7179 13.3843 12.6839 13.3241 12.6361 13.2763L7.84812 8.48893C7.58003 8.19825 7.17457 8.07785 6.79123 8.17406C6.41509 8.27336 6.12283 8.57073 6.03021 8.9494C5.93811 9.32754 6.06006 9.72627 6.34873 9.98814L11.1367 14.7755ZM12.1792 14.3192L11.5921 14.173L7.55019 10.1308L7.99066 9.69088L12.0331 13.7322L12.1792 14.3192ZM6.75839 9.12534C6.78978 9.01524 6.87571 8.92932 6.98532 8.89742C7.11035 8.87221 7.23899 8.91903 7.31823 9.01833L7.46075 9.16084L7.02133 9.60072L6.8788 9.45821C6.77949 9.37898 6.73266 9.24985 6.75839 9.12534Z" fill="#2F6CAD"/>
</svg>
