<svg width="17" height="9" viewBox="0 0 17 9" fill="none" xmlns="http://www.w3.org/2000/svg">
<path d="M3.03283 1.02841C1.78663 1.69288 0.726949 2.52368 0 3.20926L0.644201 3.83236V3.85345H0.665295C0.665295 3.85345 0.665295 3.87455 0.686389 3.89483C0.707483 3.93621 0.727767 3.97758 0.748861 4.01977V4.06115C0.748861 4.14391 0.707483 4.20638 0.645011 4.26885L0.00080994 4.89195C0.706657 5.55642 1.76626 6.40832 3.03364 7.05161C4.83965 5.03709 4.83965 3.06408 3.03283 1.02841ZM2.40973 3.33429C2.13956 3.33429 1.91159 3.10549 1.91159 2.83615C1.91159 2.56597 2.14039 2.338 2.40973 2.338C2.67991 2.338 2.90788 2.5668 2.90788 2.83615C2.90788 3.10549 2.67908 3.33429 2.40973 3.33429Z" fill="#2F6CAD"/>
<path d="M15.0993 4.39297C15.0368 4.35159 14.9743 4.3305 14.8916 4.31021C14.8705 4.31021 14.8705 4.28912 14.8502 4.28912C14.8088 4.26802 14.7877 4.24774 14.7463 4.20636C14.7252 4.18527 14.7049 4.16498 14.7049 4.14389C14.7049 4.1228 14.6839 4.1228 14.6839 4.10251V4.01976C14.6839 3.97838 14.6628 3.97838 14.6839 3.937C14.6839 3.91591 14.7049 3.91591 14.7049 3.91591C14.726 3.87453 14.7463 3.87453 14.7674 3.83315C14.7885 3.79177 14.8088 3.77068 14.8502 3.77068C14.8713 3.77068 14.8713 3.74958 14.8713 3.74958C14.9337 3.72849 14.9962 3.70821 15.0579 3.66683C15.8676 3.25143 16.3665 2.44173 16.5945 2.00523C16.1166 1.92248 15.1617 1.81863 14.3512 2.23403C13.9569 2.44173 13.5828 2.75328 13.2502 3.18978C13.2502 3.21088 13.2291 3.18978 13.2088 3.21088C13.2088 3.21088 13.2088 3.23197 13.1877 3.25226C13.1666 3.27335 13.1463 3.25226 13.1252 3.27335C13.0839 3.29444 13.0425 3.31473 13.0003 3.31473C12.9792 3.31473 12.9589 3.29363 12.9378 3.29363C12.8964 3.29363 12.8753 3.29363 12.834 3.27254C12.8129 3.27254 12.8129 3.25145 12.8129 3.23116C12.8129 3.23116 12.7918 3.23116 12.7918 3.21007C11.8158 2.00524 9.75895 -0.00927734 6.78968 -0.00927734C5.73007 -0.00927734 4.63001 0.260899 3.50781 0.780148C5.37711 2.93981 5.37711 5.12066 3.50781 7.3015C4.62906 7.79965 5.72999 8.06982 6.78968 8.06982C9.75999 8.06982 11.8158 6.0553 12.7918 4.85048C12.7918 4.85048 12.8129 4.85048 12.8332 4.82939C12.8332 4.82939 12.8332 4.80829 12.8543 4.78801C12.8753 4.76691 12.8956 4.78801 12.9167 4.76691C12.9581 4.74582 12.9995 4.74582 13.0417 4.74582C13.0628 4.74582 13.083 4.76691 13.1041 4.76691C13.1252 4.78801 13.1666 4.76691 13.1869 4.78801C13.208 4.8091 13.208 4.82939 13.208 4.82939C13.208 4.82939 13.2291 4.82939 13.2291 4.85048C13.3954 5.07928 13.7694 5.53606 14.3301 5.80623C15.1398 6.22163 16.0955 6.11778 16.5734 6.03503C16.3868 5.61882 15.9098 4.80837 15.0993 4.39297Z" fill="#2F6CAD"/>
</svg>
