<svg width="22" height="17" viewBox="0 0 22 17" fill="none" xmlns="http://www.w3.org/2000/svg">
<path d="M6.19513 2.11969C3.64953 3.477 1.48493 5.17407 0 6.57448L1.3159 7.84728V7.89037H1.35899C1.35899 7.89037 1.35899 7.93346 1.40208 7.97489C1.44517 8.05941 1.4866 8.14393 1.52969 8.23011V8.31463C1.52969 8.48368 1.44517 8.61129 1.31756 8.7389L0.00165446 10.0117C1.44348 11.369 3.60791 13.1092 6.19678 14.4232C9.8859 10.3082 9.8859 6.27792 6.19513 2.11969ZM4.92233 6.82989C4.37044 6.82989 3.90477 6.36252 3.90477 5.81233C3.90477 5.26045 4.37214 4.79477 4.92233 4.79477C5.47421 4.79477 5.93989 5.26214 5.93989 5.81233C5.93989 6.36252 5.47252 6.82989 4.92233 6.82989Z" fill="#2F6CAD"/>
<path d="M30.8437 8.99241C30.7161 8.90789 30.5885 8.8648 30.4194 8.82337C30.3763 8.82337 30.3763 8.78028 30.3349 8.78028C30.2504 8.73719 30.2073 8.69576 30.1228 8.61123C30.0797 8.56815 30.0383 8.52671 30.0383 8.48362C30.0383 8.44054 29.9952 8.44054 29.9952 8.3991V8.23006C29.9952 8.14553 29.9521 8.14554 29.9952 8.06101C29.9952 8.01793 30.0383 8.01792 30.0383 8.01792C30.0814 7.9334 30.1228 7.9334 30.1659 7.84888C30.209 7.76436 30.2504 7.72127 30.3349 7.72127C30.378 7.72127 30.378 7.67818 30.378 7.67818C30.5056 7.63509 30.6332 7.59366 30.7592 7.50914C32.4131 6.66061 33.4324 5.00665 33.8981 4.11501C32.9219 3.94597 30.9713 3.73383 29.3156 4.58238C28.5102 5.00665 27.7461 5.64305 27.0666 6.53468C27.0666 6.57777 27.0235 6.53468 26.9821 6.57777C26.9821 6.57777 26.9821 6.62086 26.939 6.66229C26.8959 6.70538 26.8545 6.66229 26.8114 6.70538C26.7269 6.74847 26.6424 6.7899 26.5562 6.7899C26.5131 6.7899 26.4717 6.74682 26.4286 6.74682C26.3441 6.74682 26.301 6.74682 26.2164 6.70373C26.1734 6.70373 26.1734 6.66064 26.1734 6.61921C26.1734 6.61921 26.1303 6.61921 26.1303 6.57612C24.1366 4.11504 19.9351 0 13.8698 0C11.7054 0 9.45832 0.551886 7.16602 1.61255C10.9844 6.02406 10.9844 10.4789 7.16602 14.9336C9.45637 15.9512 11.7052 16.5031 13.8698 16.5031C19.9373 16.5031 24.1366 12.388 26.1303 9.92697C26.1303 9.92697 26.1734 9.92697 26.2148 9.88388C26.2148 9.88388 26.2148 9.84079 26.2579 9.79936C26.301 9.75627 26.3424 9.79936 26.3855 9.75627C26.47 9.71318 26.5545 9.71318 26.6407 9.71318C26.6838 9.71318 26.7252 9.75627 26.7683 9.75627C26.8114 9.79936 26.8959 9.75627 26.9374 9.79936C26.9805 9.84244 26.9805 9.88388 26.9805 9.88388C26.9805 9.88388 27.0235 9.88388 27.0235 9.92697C27.3633 10.3943 28.1273 11.3274 29.2725 11.8793C30.9264 12.7278 32.8787 12.5157 33.855 12.3466C33.4738 11.4965 32.4994 9.84094 30.8437 8.99241Z" fill="#2F6CAD"/>
</svg>
