<svg xmlns="http://www.w3.org/2000/svg" xmlns:xlink="http://www.w3.org/1999/xlink" width="50" height="50" viewBox="0 0 50 50">
  <defs>
    <filter id="Ellipse_1" x="0" y="0" width="50" height="50" filterUnits="userSpaceOnUse">
      <feOffset dy="3" input="SourceAlpha"/>
      <feGaussianBlur stdDeviation="3" result="blur"/>
      <feFlood flood-opacity="0.161"/>
      <feComposite operator="in" in2="blur"/>
      <feComposite in="SourceGraphic"/>
    </filter>
  </defs>
  <g id="Group_5262" data-name="Group 5262" transform="translate(-303 -58)">
    <g transform="matrix(1, 0, 0, 1, 303, 58)" filter="url(#Ellipse_1)">
      <g id="Ellipse_1-2" data-name="Ellipse 1" transform="translate(9 6)" fill="#fff" stroke="#2f6cad" stroke-width="1">
        <circle cx="16" cy="16" r="16" stroke="none"/>
        <circle cx="16" cy="16" r="15.5" fill="none"/>
      </g>
    </g>
    <path id="Icon_feather-heart" data-name="Icon feather-heart" d="M15.551,5.6A4.02,4.02,0,0,0,13.567,4.56,3.63,3.63,0,0,0,10.216,5.6l-.727.727L8.763,5.6a3.772,3.772,0,1,0-5.335,5.335l.727.727L9.489,17l5.335-5.335.727-.727a3.771,3.771,0,0,0,0-5.335Z" transform="translate(318.51 69.267)" fill="none" stroke="#2f6cad" stroke-linecap="round" stroke-linejoin="round" stroke-width="1"/>
  </g>
</svg>
