<svg width="23" height="21" viewBox="0 0 23 21" fill="none" xmlns="http://www.w3.org/2000/svg">
<path d="M11.7908 20.0546C11.4935 20.0546 11.1997 19.9555 10.9449 19.7611C10.775 19.629 10.5661 19.4712 10.3219 19.2878C7.47962 17.1452 0.818115 12.1227 0.818115 7.29466C0.818115 3.65526 3.67456 0.690918 7.18938 0.690918C8.93085 0.690918 10.5945 1.43934 11.7908 2.72707C12.9872 1.43934 14.6508 0.690918 16.3923 0.690918C19.9071 0.690918 22.7636 3.65526 22.7636 7.29466C22.7636 12.1227 16.1021 17.1452 13.2598 19.2915C13.0155 19.4749 12.8067 19.6326 12.6368 19.7647C12.382 19.9592 12.0882 20.0546 11.7908 20.0546ZM7.18938 2.15842C4.45681 2.15842 2.23395 4.46239 2.23395 7.29466C2.23395 11.378 8.71494 16.2647 11.1537 18.1028C11.4015 18.2899 11.6174 18.455 11.7908 18.5871C11.9572 18.4513 12.1731 18.2899 12.4244 18.1028C14.8667 16.2611 21.3477 11.3743 21.3477 7.29466C21.3477 4.46239 19.1249 2.15842 16.3923 2.15842C14.803 2.15842 13.2987 2.9582 12.3643 4.30096C12.2298 4.49174 12.0174 4.60547 11.7908 4.60547C11.5643 4.60547 11.3484 4.49174 11.2174 4.30096C10.283 2.9582 8.77865 2.15842 7.18938 2.15842Z" fill="#C20B0B"/>
<path d="M8.5 2L12 3.5V4L14 2L17 1.5L19.5 2.5L21.5 5L22 8.5L20 11.5L16.5 15.5L12 19.5L9 17.5L5 14L2 10V4.5L5 2H8.5Z" fill="#C20B0B"/>
</svg>
