<svg width="17" height="15" viewBox="0 0 17 15" fill="none" xmlns="http://www.w3.org/2000/svg">
<path d="M8.5 15C8.26968 15 8.0421 14.9233 7.84468 14.7726C7.71306 14.6703 7.55129 14.5481 7.3621 14.406C5.16032 12.7463 0 8.85563 0 5.11557C0 2.29632 2.21274 0 4.93548 0C6.28452 0 7.57323 0.579765 8.5 1.5773C9.42677 0.579765 10.7155 0 12.0645 0C14.7873 0 17 2.29632 17 5.11557C17 8.85563 11.8397 12.7463 9.6379 14.4089C9.44871 14.551 9.28694 14.6732 9.15532 14.7755C8.9579 14.9261 8.73032 15 8.5 15ZM4.93548 1.13679C2.81871 1.13679 1.09677 2.92156 1.09677 5.11557C1.09677 8.2787 6.11726 12.0642 8.00645 13.4881C8.19839 13.633 8.36565 13.7609 8.5 13.8632C8.62887 13.7581 8.79613 13.633 8.99081 13.4881C10.8827 12.0614 15.9032 8.27586 15.9032 5.11557C15.9032 2.92156 14.1813 1.13679 12.0645 1.13679C10.8334 1.13679 9.66806 1.75635 8.94419 2.79651C8.84 2.9443 8.67548 3.0324 8.5 3.0324C8.32452 3.0324 8.15726 2.9443 8.05581 2.79651C7.33194 1.75635 6.16661 1.13679 4.93548 1.13679Z" fill="white"/>
</svg>
