<svg width="14" height="14" viewBox="0 0 14 14" fill="none" xmlns="http://www.w3.org/2000/svg">
<path d="M13.9891 6.04017C13.9725 5.92929 13.9339 5.82286 13.8755 5.72716C13.8171 5.63146 13.7401 5.54844 13.649 5.48299L7.15103 0.77952C7.10949 0.748773 7.05918 0.732178 7.00751 0.732178C6.95583 0.732178 6.90553 0.748773 6.86399 0.77952L0.351502 5.7266C0.21387 5.82522 0.109175 5.96304 0.051088 6.12208C-0.00699843 6.28112 -0.015776 6.45398 0.0259017 6.61809C0.0675793 6.7822 0.157775 6.92992 0.28471 7.04197C0.411645 7.15402 0.569419 7.22519 0.737428 7.24618C0.775983 7.24858 0.81465 7.24858 0.853205 7.24618C1.03851 7.24606 1.21846 7.18409 1.36456 7.0701L1.98686 6.5877L3.08434 13.3824C3.10997 13.5554 3.19739 13.7132 3.33042 13.8267C3.46344 13.9403 3.63308 14.0018 3.80795 13.9999H4.83788C5.0298 13.9999 5.21385 13.9236 5.34955 13.7879C5.48526 13.6522 5.56149 13.4682 5.56149 13.2763H8.45594C8.45594 13.4682 8.53217 13.6522 8.66788 13.7879C8.80358 13.9236 8.98763 13.9999 9.17955 13.9999H10.2119C10.3832 14.0027 10.55 13.9446 10.6825 13.8359C10.815 13.7272 10.9047 13.5751 10.9355 13.4065L12.2597 6.56116L12.6529 6.8482C12.7871 6.94897 12.9485 7.0073 13.1161 7.01569C13.2838 7.02408 13.4501 6.98215 13.5938 6.89528C13.7374 6.80842 13.8518 6.68059 13.9223 6.52821C13.9927 6.37583 14.016 6.20587 13.9891 6.04017ZM8.45594 12.7939H5.56149V10.4518C5.56318 10.2439 5.60678 10.0385 5.68966 9.84786C5.77255 9.65722 5.89303 9.48525 6.0439 9.34224C6.17672 9.20973 6.33488 9.10534 6.50894 9.0353C6.68299 8.96527 6.86937 8.93102 7.05696 8.93461C7.43236 8.94713 7.78819 9.10511 8.04925 9.37517C8.31031 9.64523 8.45614 10.0062 8.45594 10.3818V12.7939ZM10.4676 13.3149C10.4583 13.3719 10.4289 13.4238 10.3846 13.461C10.3403 13.4982 10.2842 13.5182 10.2264 13.5175H9.17955C9.11557 13.5175 9.05422 13.4921 9.00899 13.4468C8.96375 13.4016 8.93834 13.3402 8.93834 13.2763V10.3818C8.93861 9.88074 8.74394 9.3992 8.39552 9.03908C8.0471 8.67895 7.57225 8.46848 7.07143 8.4522C6.81789 8.44548 6.56562 8.4901 6.32977 8.58336C6.09391 8.67662 5.87935 8.81661 5.69898 8.99491C5.50496 9.18306 5.35026 9.40789 5.24384 9.65633C5.13743 9.90476 5.08143 10.1719 5.07909 10.4421V13.2763C5.07909 13.3402 5.05368 13.4016 5.00844 13.4468C4.96321 13.4921 4.90186 13.5175 4.83788 13.5175H3.81036C3.7511 13.5179 3.69376 13.4965 3.64927 13.4573C3.60478 13.4182 3.57626 13.364 3.56915 13.3052L2.42585 6.25242L7.00872 2.72362L11.8328 6.2476L10.4676 13.3149ZM13.444 6.38509C13.3869 6.46084 13.3023 6.51113 13.2085 6.52512C13.1146 6.5391 13.019 6.51567 12.9423 6.45986L7.15344 2.22674C7.11169 2.19543 7.0609 2.1785 7.00872 2.1785C6.95653 2.1785 6.90574 2.19543 6.86399 2.22674L1.07511 6.67935C1.03757 6.70867 0.99454 6.73017 0.948559 6.7426C0.902578 6.75503 0.854574 6.75813 0.807377 6.75172C0.737179 6.74138 0.671569 6.71064 0.618708 6.66331C0.565847 6.61598 0.52807 6.55415 0.510076 6.48552C0.492082 6.41689 0.494666 6.34448 0.517506 6.2773C0.540346 6.21012 0.582434 6.15114 0.638534 6.1077L7.00872 1.27399L13.3668 5.87615C13.4056 5.90431 13.4383 5.93988 13.4632 5.9808C13.4881 6.02171 13.5046 6.06715 13.5117 6.11449C13.5189 6.16183 13.5166 6.21013 13.505 6.25658C13.4934 6.30303 13.4727 6.34671 13.444 6.38509Z" fill="#2F6CAD"/>
</svg>
