<svg width="15" height="13" viewBox="0 0 15 13" fill="none" xmlns="http://www.w3.org/2000/svg">
<path d="M9.74848 8.61554C9.64048 8.54504 9.52348 8.48954 9.40198 8.45054C9.20098 8.38604 9.02848 8.23304 8.92948 8.03504C8.75848 7.69004 8.46748 7.41704 8.10898 7.26404C7.42498 6.97454 6.61348 7.20104 6.17848 7.80254C6.11698 7.88804 6.06298 7.97954 6.01948 8.07404C5.93248 8.26304 5.77948 8.40704 5.58898 8.48054C5.27248 8.60354 5.00698 8.83454 4.84348 9.13154C4.63648 9.50654 4.59898 9.95204 4.73998 10.3555C4.86898 10.723 5.13298 11.005 5.48248 11.1475C6.13348 11.413 6.51148 11.1835 6.81748 11.0005C6.99298 10.8955 7.14298 10.804 7.33348 10.7965C7.51198 10.7905 7.93948 10.936 8.24998 11.1085C8.46748 11.2285 8.71198 11.29 8.95648 11.29C9.10798 11.29 9.25948 11.266 9.40498 11.2195C9.79348 11.0935 10.1025 10.8205 10.275 10.4485C10.581 9.79754 10.3545 9.00854 9.74848 8.61554ZM9.95548 10.3015C9.82348 10.5835 9.58948 10.7905 9.29548 10.885C9.00148 10.981 8.69098 10.951 8.42098 10.801C8.10448 10.6255 7.62598 10.4455 7.34248 10.4455C7.33498 10.4455 7.32748 10.4455 7.32148 10.4455C7.03948 10.4545 6.82498 10.585 6.63448 10.699C6.34948 10.8715 6.10198 11.02 5.61598 10.822C5.36248 10.7185 5.16898 10.5115 5.07448 10.24C4.96798 9.93704 4.99798 9.58754 5.15398 9.30554C5.27848 9.08054 5.47948 8.90504 5.71798 8.81204C5.99398 8.70554 6.21598 8.49554 6.34198 8.22404C6.37648 8.15054 6.41848 8.07854 6.46648 8.01104C6.80548 7.54154 7.43998 7.36454 7.97248 7.59104C8.25748 7.71104 8.47948 7.91954 8.61448 8.19254C8.75548 8.47604 9.00298 8.69354 9.29398 8.78804C9.38548 8.81804 9.47398 8.86004 9.55648 8.91404C10.0155 9.20954 10.1865 9.80654 9.95548 10.3015Z" fill="#2F6CAD"/>
<path d="M8.31899 6.84104C8.38199 6.86054 8.44649 6.86954 8.51099 6.86954C9.11399 6.86954 9.78299 6.09554 9.96599 5.49554C10.1715 4.82054 9.84149 4.12004 9.22949 3.93254C8.61749 3.74504 7.95149 4.14254 7.74599 4.81604C7.64699 5.14154 7.63199 5.58104 7.70699 5.96204C7.80299 6.43754 8.02049 6.74954 8.31899 6.84104ZM8.08499 4.91954C8.23349 4.43204 8.70149 4.13954 9.12749 4.27004C9.55349 4.40054 9.77849 4.90304 9.62999 5.39054C9.46349 5.93804 8.79899 6.61604 8.42399 6.50204C8.25749 6.45104 8.12249 6.22904 8.05649 5.89304C7.99049 5.57204 8.00249 5.18954 8.08499 4.91954Z" fill="#2F6CAD"/>
<path d="M6.41552 6.84398C6.46652 6.84398 6.51752 6.83798 6.57002 6.82598C7.23602 6.66548 7.48202 5.48648 7.31552 4.79948C7.14752 4.10348 6.49802 3.66248 5.86802 3.81398C5.23652 3.96548 4.86002 4.65548 5.02652 5.34998C5.16452 5.92148 5.77352 6.84398 6.41552 6.84398ZM5.95052 4.15898C6.00752 4.14548 6.06302 4.13948 6.12002 4.13948C6.50402 4.13948 6.86552 4.44398 6.97202 4.88498C7.10852 5.45048 6.87602 6.39098 6.48752 6.48398C6.46652 6.48848 6.44402 6.49148 6.42002 6.49148C6.04352 6.49148 5.50202 5.81498 5.37002 5.26898C5.24852 4.76198 5.50952 4.26398 5.95052 4.15898Z" fill="#2F6CAD"/>
<path d="M5.07302 8.03504C5.57702 7.73354 5.48102 6.71054 5.17202 6.19454C5.02202 5.94254 4.79102 5.75804 4.52402 5.67404C4.24952 5.58854 3.96902 5.61854 3.73352 5.75954C3.25502 6.04604 3.12152 6.70754 3.43652 7.23404C3.58652 7.48604 3.85802 7.74854 4.14602 7.91954C4.36502 8.05154 4.57352 8.11754 4.75652 8.11754C4.87202 8.11904 4.98002 8.09054 5.07302 8.03504ZM3.73952 7.05404C3.52502 6.69554 3.60302 6.25154 3.91502 6.06554C4.00652 6.01004 4.11002 5.98304 4.21802 5.98304C4.28402 5.98304 4.35152 5.99354 4.41902 6.01454C4.60352 6.07154 4.76402 6.20204 4.86902 6.37904C5.10752 6.77654 5.16002 7.57304 4.89152 7.73504C4.77452 7.80554 4.56302 7.76204 4.32752 7.61954C4.08902 7.47554 3.85952 7.25504 3.73952 7.05404Z" fill="#2F6CAD"/>
<path d="M11.55 6.09702C11.139 5.72052 10.467 5.78052 10.053 6.23352C9.68852 6.63102 9.29852 7.61502 9.75302 8.03052C9.88052 8.14752 10.053 8.19702 10.2435 8.19702C10.6995 8.19702 11.259 7.91352 11.5455 7.60152C11.7435 7.38552 11.8545 7.11252 11.859 6.83202C11.862 6.54252 11.7525 6.28302 11.55 6.09702ZM11.2845 7.36152C10.971 7.70352 10.2225 7.98102 9.99152 7.76952C9.76352 7.56102 9.98552 6.82902 10.314 6.47202C10.476 6.29502 10.6935 6.20202 10.899 6.20202C11.052 6.20202 11.1975 6.25302 11.3115 6.35652C11.439 6.47352 11.5065 6.63852 11.505 6.82452C11.502 7.01952 11.424 7.21002 11.2845 7.36152Z" fill="#2F6CAD"/>
<path d="M13.9665 2.10701H9.7455V1.11251C9.7455 0.704512 9.414 0.374512 9.0075 0.374512H5.994C5.586 0.374512 5.256 0.706012 5.256 1.11251V2.10701H1.0335C0.4635 2.10701 0 2.57051 0 3.14051V11.9365C0 12.5065 0.4635 12.97 1.0335 12.97H13.9665C14.5365 12.97 15 12.5065 15 11.9365V3.13901C15 2.57051 14.5365 2.10701 13.9665 2.10701ZM5.6085 1.11251C5.6085 0.899512 5.781 0.727012 5.994 0.727012H9.0075C9.2205 0.727012 9.393 0.899512 9.393 1.11251V2.10701H5.6085V1.11251ZM14.646 11.9365C14.646 12.3115 14.3415 12.616 13.9665 12.616H1.0335C0.6585 12.616 0.354 12.3115 0.354 11.9365V3.13901C0.354 2.76401 0.6585 2.45951 1.0335 2.45951H13.9665C14.3415 2.45951 14.646 2.76401 14.646 3.13901V11.9365Z" fill="#2F6CAD"/>
</svg>
