<svg width="14" height="15" viewBox="0 0 14 15" fill="none" xmlns="http://www.w3.org/2000/svg">
<path d="M9.10773 0.899048C10.0653 0.899048 10.4516 1.53745 10.4516 2.57905C10.418 3.83905 10.0653 5.08225 9.5445 6.22465C10.2836 6.29185 11.0396 6.27505 11.7955 6.27505C13.0555 6.27505 13.8114 6.79585 13.8114 7.78705C13.8282 8.19025 13.6098 8.50945 13.2906 8.74465L13.3074 8.76145C13.5762 9.38305 13.5594 9.98785 12.9547 10.4246L12.9715 10.4414C13.2402 11.063 13.2234 11.6678 12.6187 12.1046L12.6355 12.1214C12.8203 12.6422 12.7867 12.407 12.8203 12.827C12.8203 13.751 12.1483 14.339 11.1404 14.339H9.10773C7.999 14.339 6.72229 14.2382 5.61356 14.0702C5.32798 14.0198 5.0424 13.9862 4.74002 13.919V14.003C4.74002 14.1878 4.58883 14.339 4.40404 14.339H0.708292C0.523504 14.339 0.372314 14.1878 0.372314 14.003V5.93905C0.372314 5.75425 0.523504 5.60305 0.708292 5.60305H4.40404C4.58883 5.60305 4.74002 5.75425 4.74002 5.93905V5.98945C5.47917 5.55265 6.01673 4.84705 6.5543 4.19185C6.68869 4.00705 6.82308 3.80545 6.95747 3.57025C7.14226 3.25105 7.78061 1.95745 7.9318 1.70545C8.25098 1.20145 8.60376 0.899048 9.10773 0.899048ZM1.04427 6.27505V13.667H4.06807V6.27505H1.04427ZM9.10773 1.57105C8.43577 1.57105 8.09979 3.25105 7.09186 4.59505C6.4703 5.45185 5.71435 6.17425 4.84081 6.74545L4.74002 6.79585V13.2134C6.16792 13.5662 7.64622 13.6166 9.10773 13.667C9.10773 13.667 10.4516 13.667 11.1236 13.667C11.7955 13.667 12.1315 13.331 12.1315 12.827C12.1315 12.323 11.7955 12.323 11.7955 11.987C11.7955 11.651 12.4675 11.651 12.4675 11.147C12.4675 10.643 12.1315 10.643 12.1315 10.307C12.1315 9.97105 12.8035 9.97105 12.8035 9.46705C12.8035 8.96305 12.4675 8.96305 12.4675 8.62705C12.4675 8.29105 13.1395 8.29105 13.1395 7.78705C13.1395 7.28305 12.8035 6.94705 11.7955 6.94705C9.4437 6.94705 8.43577 6.94705 8.77175 6.27505C9.14132 5.53585 9.77968 3.92305 9.77968 2.57905C9.77968 1.90705 9.62849 1.57105 9.10773 1.57105Z" fill="#575757"/>
</svg>
