<svg width="21" height="22" viewBox="0 0 21 22" fill="none" xmlns="http://www.w3.org/2000/svg">
<g clip-path="url(#clip0_616_110)">
<path d="M7.76947 4.525C7.59066 3.87195 7.20223 3.29574 6.66393 2.88502C6.12564 2.4743 5.4673 2.25183 4.79021 2.25183C4.11312 2.25183 3.45479 2.4743 2.9165 2.88502C2.3782 3.29574 1.98977 3.87195 1.81096 4.525C1.70268 5.3152 1.80225 6.11998 2.09984 6.85998C2.39742 7.59997 2.88275 8.24961 3.50796 8.74485C3.85578 9.06948 4.31383 9.25003 4.7896 9.25003C5.26538 9.25003 5.72342 9.06948 6.07124 8.74485C6.69517 8.24847 7.17964 7.59871 7.4773 6.85906C7.77497 6.11942 7.87564 5.3152 7.76947 4.525ZM4.82023 5.92672C4.58788 5.92785 4.3646 5.83664 4.1995 5.67315C4.0344 5.50966 3.94101 5.28728 3.93987 5.05493C3.93874 4.82258 4.02994 4.5993 4.19344 4.4342C4.35693 4.2691 4.57931 4.17571 4.81166 4.17457H4.82023C5.05258 4.17457 5.27541 4.26687 5.43971 4.43117C5.60401 4.59546 5.69631 4.81829 5.69631 5.05064C5.69631 5.28299 5.60401 5.50582 5.43971 5.67012C5.27541 5.83442 5.05258 5.92672 4.82023 5.92672Z" fill="#2F6CAD"/>
<path d="M19.1707 15.0244C18.989 14.3703 18.5979 13.7938 18.0575 13.383C17.517 12.9722 16.8568 12.7498 16.1779 12.7498C15.4991 12.7498 14.8389 12.9722 14.2984 13.383C13.7579 13.7938 13.3669 14.3703 13.1852 15.0244C13.0766 15.8156 13.1769 16.6214 13.4764 17.3618C13.7758 18.1021 14.2639 18.7511 14.892 19.2443C15.2416 19.5693 15.7012 19.75 16.1785 19.75C16.6559 19.75 17.1155 19.5693 17.4651 19.2443C18.093 18.751 18.5808 18.1019 18.88 17.3616C19.1793 16.6212 19.2795 15.8155 19.1707 15.0244ZM16.2141 16.4261C16.099 16.4267 15.985 16.4046 15.8785 16.3611C15.772 16.3176 15.6751 16.2535 15.5933 16.1726C15.4282 16.0091 15.3349 15.7867 15.3337 15.5544C15.3326 15.322 15.4238 15.0987 15.5873 14.9336C15.7508 14.7685 15.9732 14.6751 16.2055 14.674H16.2141C16.4464 14.674 16.6693 14.7663 16.8336 14.9306C16.9979 15.0949 17.0902 15.3177 17.0902 15.5501C17.0902 15.7824 16.9979 16.0053 16.8336 16.1695C16.6693 16.3338 16.4464 16.4261 16.2141 16.4261Z" fill="#2F6CAD"/>
<path d="M10.4994 17.7813H8.15544C7.66619 17.7805 7.18878 17.6307 6.7868 17.3519C6.38481 17.073 6.07731 16.6783 5.90526 16.2203C5.73322 15.7623 5.70478 15.2628 5.82374 14.7882C5.9427 14.3136 6.20341 13.8866 6.57116 13.5639L13.5626 7.4473C13.7308 7.30134 13.8504 7.10742 13.9052 6.89156C13.9601 6.67569 13.9476 6.44821 13.8694 6.23965C13.7913 6.03108 13.6512 5.85141 13.468 5.72474C13.2848 5.59806 13.0673 5.53045 12.8446 5.53097H10.4994C10.3259 5.52969 10.1599 5.46021 10.0373 5.33756C9.91462 5.2149 9.84515 5.04891 9.84387 4.87545C9.84483 4.70178 9.91416 4.53548 10.0369 4.41255C10.1595 4.28963 10.3257 4.21999 10.4994 4.2187H12.8446C13.3342 4.21482 13.813 4.36237 14.2155 4.64115C14.618 4.91994 14.9245 5.31632 15.0929 5.77603C15.2684 6.23411 15.2986 6.73507 15.1796 7.21094C15.0606 7.68681 14.798 8.11454 14.4276 8.4361L7.43743 14.5527C7.26826 14.6984 7.14786 14.8925 7.09245 15.1088C7.03705 15.3251 7.04929 15.5532 7.12755 15.7624C7.2058 15.9715 7.3463 16.1516 7.5301 16.2784C7.7139 16.4052 7.93215 16.4726 8.15544 16.4715H10.4994C10.6685 16.4788 10.8283 16.5511 10.9453 16.6733C11.0624 16.7956 11.1278 16.9583 11.1278 17.1276C11.1278 17.2969 11.0624 17.4596 10.9453 17.5818C10.8283 17.7041 10.6685 17.7764 10.4994 17.7837V17.7813Z" fill="#2F6CAD"/>
</g>
<defs>
<clipPath id="clip0_616_110">
<rect width="21" height="21" fill="white" transform="translate(0 0.5)"/>
</clipPath>
</defs>
</svg>
