<svg xmlns="http://www.w3.org/2000/svg" width="14.066" height="21.334" viewBox="0 0 14.066 21.334">
  <path id="Path_3628" data-name="Path 3628" d="M28.033,958.378A7.04,7.04,0,0,0,21,965.411,11.319,11.319,0,0,0,22.516,970l5.093,9.458a.485.485,0,0,0,.849,0L33.55,970a11.319,11.319,0,0,0,1.516-4.593A7.04,7.04,0,0,0,28.033,958.378Zm0,.97a6.056,6.056,0,0,1,6.063,6.063,11.771,11.771,0,0,1-1.394,4.13l-4.668,8.67-4.668-8.67a11.773,11.773,0,0,1-1.394-4.13A6.056,6.056,0,0,1,28.033,959.348Zm0,2.425a3.638,3.638,0,1,0,3.638,3.638A3.645,3.645,0,0,0,28.033,961.773Zm0,.97a2.668,2.668,0,1,1-2.668,2.668A2.66,2.66,0,0,1,28.033,962.743Z" transform="translate(-21 -958.378)" fill="#2f6cad"/>
</svg>
