<svg width="6" height="9" viewBox="0 0 6 9" fill="none" xmlns="http://www.w3.org/2000/svg">
<path d="M3 0C2.20459 0.000781918 1.44199 0.313668 0.879552 0.870003C0.317114 1.42634 0.000790495 2.18068 0 2.96746C0.0721176 3.6514 0.292701 4.31186 0.646666 4.9037L2.81914 8.89434C2.83702 8.92635 2.86325 8.95304 2.8951 8.97162C2.92694 8.9902 2.96324 9 3.00021 9C3.03719 9 3.07349 8.9902 3.10533 8.97162C3.13718 8.95304 3.1634 8.92635 3.18129 8.89434L5.35333 4.9037C5.70753 4.31135 5.92812 3.65028 6 2.96576C5.99876 2.17927 5.68223 1.42538 5.11984 0.869411C4.55746 0.31344 3.79511 0.000781057 3 0ZM3 0.409288C3.33974 0.408899 3.67622 0.474783 3.99017 0.603205C4.30413 0.731628 4.58939 0.920061 4.82962 1.15769C5.06985 1.39531 5.26034 1.67748 5.39017 1.98803C5.52 2.29858 5.58663 2.6314 5.58624 2.96746C5.49943 3.57987 5.29777 4.17086 4.99161 4.71004L3.00043 8.36818L1.00924 4.71004C0.703103 4.17085 0.501439 3.57986 0.414617 2.96746C0.414224 2.63147 0.480823 2.2987 0.610601 1.98821C0.740379 1.67772 0.930788 1.39558 1.17093 1.15797C1.41107 0.920355 1.69623 0.731935 2.01009 0.603463C2.32394 0.474991 2.66033 0.40901 3 0.409288ZM3 1.43247C2.69308 1.43247 2.39305 1.52249 2.13785 1.69115C1.88265 1.85982 1.68375 2.09956 1.5663 2.38004C1.44884 2.66052 1.41811 2.96915 1.47799 3.26691C1.53787 3.56467 1.68566 3.83818 1.90269 4.05286C2.11972 4.26753 2.39623 4.41373 2.69725 4.47296C2.99828 4.53219 3.3103 4.50179 3.59386 4.38561C3.87742 4.26943 4.11978 4.07269 4.2903 3.82026C4.46081 3.56783 4.55183 3.27105 4.55183 2.96746C4.55104 2.56059 4.38729 2.17061 4.09644 1.88291C3.80558 1.59521 3.41133 1.43325 3 1.43247ZM3 1.84173C3.22509 1.84173 3.44512 1.90775 3.63227 2.03145C3.81943 2.15514 3.9653 2.33097 4.05143 2.53667C4.13757 2.74236 4.16011 2.96871 4.11619 3.18708C4.07228 3.40544 3.96389 3.60601 3.80473 3.76345C3.64557 3.92088 3.44279 4.02809 3.22202 4.07153C3.00126 4.11496 2.77244 4.09268 2.56448 4.00748C2.35653 3.92228 2.17879 3.77798 2.05373 3.59286C1.92868 3.40774 1.86194 3.1901 1.86194 2.96746C1.86149 2.8195 1.89062 2.6729 1.94765 2.53613C2.00468 2.39935 2.08849 2.27508 2.19426 2.17046C2.30003 2.06584 2.42567 1.98292 2.56395 1.92651C2.70223 1.87009 2.85042 1.84128 3 1.84173Z" fill="black"/>
</svg>
