<svg width="9" height="9" viewBox="0 0 9 9" fill="none" xmlns="http://www.w3.org/2000/svg">
<path d="M2.3875 8.78614H7.35604C8.25799 8.78614 8.99037 8.05249 8.99037 7.15181V2.18193C8.99037 1.27998 8.25673 0.547607 7.35604 0.547607H2.3875C1.48555 0.547607 0.753174 1.28125 0.753174 2.18193V7.15048C0.753174 8.05243 1.48682 8.7848 2.3875 8.7848V8.78614ZM7.35738 8.34082H4.96379L6.57462 6.72219C6.69813 6.59738 6.86294 6.52867 7.03908 6.52867C7.2139 6.52867 7.37872 6.59651 7.50353 6.72132L8.43549 7.65328C8.24632 8.05858 7.83535 8.34126 7.35785 8.34126L7.35738 8.34082ZM1.19861 2.18204C1.19861 1.52624 1.73178 0.993039 2.38761 0.993039H7.35615C8.01196 0.993039 8.54516 1.52621 8.54516 2.18204V7.13489L7.81586 6.40559C7.60755 6.19728 7.3314 6.08291 7.03655 6.08291H7.03524C6.7404 6.08291 6.46424 6.19859 6.25593 6.4069L6.0411 6.62304L3.97927 4.56121C3.5496 4.13154 2.85161 4.13154 2.42199 4.56121L1.19736 5.78584V2.18198L1.19861 2.18204ZM1.19861 6.41603L2.73808 4.87656C2.99422 4.62041 3.41041 4.62041 3.66655 4.87656L5.7296 6.93962L4.33453 8.34126H2.38848C1.73268 8.34126 1.19947 7.80809 1.19947 7.15226V6.4173L1.19861 6.41603Z" fill="black"/>
<path d="M6.54238 4.5557C7.15599 4.5557 7.65568 4.05602 7.65568 3.4424C7.65568 2.82878 7.15599 2.3291 6.54238 2.3291C5.92876 2.3291 5.42908 2.82878 5.42908 3.4424C5.42908 4.05602 5.92876 4.5557 6.54238 4.5557ZM6.54238 2.77442C6.91072 2.77442 7.21036 3.07405 7.21036 3.4424C7.21036 3.81075 6.91072 4.11038 6.54238 4.11038C6.17403 4.11038 5.8744 3.81075 5.8744 3.4424C5.8744 3.07405 6.17403 2.77442 6.54238 2.77442Z" fill="black"/>
</svg>
