<svg width="9" height="12" viewBox="0 0 9 12" fill="none" xmlns="http://www.w3.org/2000/svg">
<path fill-rule="evenodd" clip-rule="evenodd" d="M0.375 4.82891C0.375 2.53794 2.22555 0.674561 4.49956 0.674561C6.77356 0.674561 8.62411 2.53794 8.62411 4.82891C8.62411 8.0841 4.88726 11.4452 4.72824 11.5868C4.66271 11.6445 4.58113 11.6734 4.49956 11.6734C4.41798 11.6734 4.33641 11.6445 4.27087 11.5863C4.11185 11.4452 0.375 8.0841 0.375 4.82891ZM2.20808 4.79906C2.20808 6.06255 3.23601 7.09048 4.4995 7.09048C5.76299 7.09048 6.79092 6.06255 6.79092 4.79906C6.79092 3.53557 5.76299 2.50764 4.4995 2.50764C3.23601 2.50764 2.20808 3.53557 2.20808 4.79906Z" fill="#2F6CAD"/>
</svg>
