<svg width="24" height="24" viewBox="0 0 24 24" fill="none" xmlns="http://www.w3.org/2000/svg">
<circle cx="12" cy="12" r="11.5" stroke="#C20B0B"/>
<path d="M12.0407 15.5355V17.7828C12.0407 18.454 11.4948 19 10.8236 19H7.21712C6.54594 19 6 18.454 6 17.7828V7.21718C6 6.54596 6.54594 6 7.21712 6H10.8242C11.4954 6 12.0413 6.54596 12.0413 7.21718V9.46449C12.0413 9.715 11.8382 9.91816 11.5877 9.91816C11.3372 9.91816 11.134 9.715 11.134 9.46449V7.21718C11.134 7.04937 10.992 6.90735 10.8242 6.90735H7.21714C7.04934 6.90735 6.90732 7.04938 6.90732 7.21718V17.7828C6.90732 17.9506 7.04935 18.0927 7.21714 18.0927H10.8242C10.992 18.0927 11.134 17.9506 11.134 17.7828V15.5355C11.134 15.285 11.3372 15.0818 11.5877 15.0818C11.8382 15.0818 12.0413 15.285 12.0413 15.5355H12.0407ZM18.9994 12.5001C18.9994 12.732 18.8993 12.9388 18.7183 13.0832L15.5434 15.6099C15.408 15.7178 15.2456 15.7729 15.0808 15.7729C14.9705 15.7729 14.8603 15.7483 14.756 15.698C14.4959 15.5727 14.3347 15.3156 14.3347 15.0268V14.1925H9.5663C9.15341 14.1925 8.81722 13.8563 8.81722 13.4434V11.5568C8.81722 11.1439 9.15341 10.8077 9.5663 10.8077H14.3347V9.97345C14.3347 9.68459 14.4965 9.42749 14.756 9.30224C15.0161 9.17698 15.3181 9.21054 15.544 9.39033L18.7189 11.917C18.9005 12.0615 19 12.2682 19 12.5001L18.9994 12.5001ZM17.9944 12.5001L15.2414 10.3091V11.2608C15.2414 11.5113 15.0383 11.7144 14.7878 11.7144H9.72388V13.2858H14.7878C15.0383 13.2858 15.2414 13.4889 15.2414 13.7394V14.6917L17.9944 12.5007V12.5001Z" fill="#C20B0B"/>
</svg>
