<svg xmlns="http://www.w3.org/2000/svg" width="22.732" height="22.732" viewBox="0 0 22.732 22.732">
  <g id="Group_6054" data-name="Group 6054" transform="translate(-350.284 -343.394)">
    <path id="Path_3629" data-name="Path 3629" d="M10.866,0A10.866,10.866,0,1,1,0,10.866,10.866,10.866,0,0,1,10.866,0Z" transform="translate(350.784 343.894)" fill="#2f6cad" stroke="rgba(0,0,0,0)" stroke-width="1"/>
    <path id="Icon_material-gps-fixed" data-name="Icon material-gps-fixed" d="M7.461,5.293A2.168,2.168,0,1,0,9.628,7.461,2.167,2.167,0,0,0,7.461,5.293Zm4.845,1.626A4.874,4.874,0,0,0,8,2.616V1.5H6.919V2.616a4.874,4.874,0,0,0-4.3,4.3H1.5V8H2.616a4.874,4.874,0,0,0,4.3,4.3v1.116H8V12.305a4.874,4.874,0,0,0,4.3-4.3h1.116V6.919ZM7.461,11.254a3.793,3.793,0,1,1,3.793-3.793A3.79,3.79,0,0,1,7.461,11.254Z" transform="translate(354.086 347.195)" fill="#fff"/>
  </g>
</svg>
