<svg width="37" height="28" viewBox="0 0 37 28" fill="none" xmlns="http://www.w3.org/2000/svg">
<path fill-rule="evenodd" clip-rule="evenodd" d="M10.3274 6.53313C9.01212 6.53313 7.94178 5.46365 7.94178 4.14751C7.94178 2.83226 9.01212 1.7619 10.3274 1.7619C11.6426 1.7619 12.713 2.83226 12.713 4.14751C12.713 5.46365 11.6426 6.53313 10.3274 6.53313ZM35.238 3.30885H14.9762C14.7586 3.30885 14.5656 3.39607 14.4115 3.52733C14.1093 1.53638 12.402 0 10.3274 0C8.32145 0 6.64414 1.43243 6.26268 3.32823C6.23009 3.32471 6.20101 3.30885 6.16665 3.30885H0.88095C0.394666 3.30885 0 3.70352 0 4.1898C0 4.67608 0.394666 5.07075 0.88095 5.07075H6.16665C6.20894 5.07075 6.24418 5.05225 6.2847 5.04696C6.69699 6.90137 8.34964 8.29503 10.3274 8.29503C12.3747 8.29503 14.0697 6.80006 14.4035 4.84611C14.5586 4.98177 14.755 5.07075 14.9762 5.07075H36.119C36.6061 5.07075 36.9999 4.67608 36.9999 4.1898C36.9999 3.70352 36.6061 3.30885 36.119 3.30885H35.238ZM36.119 13.8804H31.1267C30.9074 11.797 29.1622 10.1628 27.0224 10.1628C24.8825 10.1628 23.1374 11.797 22.9189 13.8804H0.881031C0.394746 13.8804 8.06534e-05 14.2742 8.06534e-05 14.7614C8.06534e-05 15.2477 0.394746 15.6423 0.881031 15.6423H23.1145C23.6721 17.2739 25.2041 18.4578 27.0224 18.4578C28.8406 18.4578 30.3726 17.2739 30.9312 15.6423H36.119C36.6053 15.6423 37 15.2477 37 14.7614C37 14.2742 36.6053 13.8804 36.119 13.8804ZM27.0224 16.6959C25.7071 16.6959 24.6367 15.6256 24.6367 14.3103C24.6367 12.9951 25.7071 11.9247 27.0224 11.9247C28.3376 11.9247 29.408 12.9951 29.408 14.3103C29.408 15.6256 28.3376 16.6959 27.0224 16.6959ZM36.9999 23.5704C36.9999 23.0841 36.6061 22.6894 36.119 22.6894H14.9762C14.7498 22.6894 14.5471 22.781 14.3912 22.922C14.0071 21.0288 12.3315 19.599 10.3274 19.599C8.39633 19.599 6.78333 20.9319 6.32347 22.7211C6.27061 22.7114 6.22215 22.6894 6.16665 22.6894H0.88095C0.394666 22.6894 0 23.0841 0 23.5704C0 24.0575 0.394666 24.4513 0.88095 24.4513H6.16665C6.19661 24.4513 6.22127 24.4381 6.24946 24.4346C6.57981 26.3938 8.27564 27.8941 10.3274 27.8941C12.4452 27.8941 14.1762 26.2934 14.4247 24.2416C14.5762 24.3667 14.7638 24.4513 14.9762 24.4513H36.119C36.6061 24.4513 36.9999 24.0575 36.9999 23.5704ZM10.3274 26.1322C9.01212 26.1322 7.94178 25.0627 7.94178 23.7465C7.94178 22.4313 9.01212 21.3609 10.3274 21.3609C11.6426 21.3609 12.713 22.4313 12.713 23.7465C12.713 25.0627 11.6426 26.1322 10.3274 26.1322Z" fill="#2F6CAD"/>
</svg>
