<svg xmlns="http://www.w3.org/2000/svg" width="21.305" height="21.305" viewBox="0 0 21.305 21.305">
  <path id="noun-speedometer-4977404" d="M110.334,51.739h-3.8a.761.761,0,0,0-.761.761v3.044a.761.761,0,0,0,.761.761h3.8ZM114.9,56.3h-3.043V51.739H114.9Zm4.565,0h-3.044V51.739h3.044Zm1.522-4.565V56.3h3.8a.761.761,0,0,0,.761-.761V52.5a.761.761,0,0,0-.761-.761ZM116.309,41.45a.761.761,0,0,0-1.3,0,29.692,29.692,0,0,0-1.845,3.581,6.333,6.333,0,0,0-.549,2.143,3.043,3.043,0,1,0,6.087,0,6.334,6.334,0,0,0-.549-2.143,29.688,29.688,0,0,0-1.845-3.581ZM115.66,35a10.618,10.618,0,0,0-7.489,3.08c-.014.013-.029.026-.043.04s-.027.028-.04.043a10.619,10.619,0,0,0-3.08,7.489.761.761,0,0,0,.761.761h3.043a.761.761,0,0,0,.761-.761,6.087,6.087,0,1,1,12.174,0,.761.761,0,0,0,.761.761h3.044a.761.761,0,0,0,.761-.761,10.618,10.618,0,0,0-3.08-7.489c-.013-.014-.026-.029-.04-.043s-.028-.027-.043-.04A10.619,10.619,0,0,0,115.66,35Zm-6.97,4.758,1.08,1.081a7.576,7.576,0,0,0-1.681,4.053H106.56a9.088,9.088,0,0,1,2.129-5.134Zm13.941,0a9.089,9.089,0,0,1,2.129,5.134h-1.529a7.57,7.57,0,0,0-1.68-4.053Zm-7.731-3.2v1.528a7.573,7.573,0,0,0-4.053,1.681l-1.081-1.08a9.091,9.091,0,0,1,5.134-2.129Zm1.522,0a9.088,9.088,0,0,1,5.134,2.129l-1.081,1.08a7.573,7.573,0,0,0-4.053-1.681Z" transform="translate(-105.008 -35)" fill="#2f6cad" fill-rule="evenodd"/>
</svg>
