<svg width="12" height="13" viewBox="0 0 12 13" fill="none" xmlns="http://www.w3.org/2000/svg">
<path fill-rule="evenodd" clip-rule="evenodd" d="M3.56791 3.95619C3.56791 3.96164 3.56791 3.96759 3.56791 3.97304V9.19755C3.05046 9.02903 2.34418 9.0558 1.64781 9.34228C0.951443 9.62925 0.430529 10.1085 0.182215 10.5928C-0.0264483 10.9997 -0.0561874 11.4185 0.0944861 11.7843C0.24516 12.1506 0.561376 12.4266 0.99605 12.5684C1.51349 12.7374 2.22076 12.7111 2.91713 12.4241C3.614 12.1367 4.13442 11.6579 4.38323 11.1732C4.52697 10.8931 4.58594 10.6071 4.55918 10.3365V4.37153L11.0025 3.08288V8.20627C10.485 8.03776 9.77873 8.06452 9.08236 8.351C8.38599 8.63798 7.86508 9.11726 7.61677 9.60149C7.4081 10.0084 7.37836 10.4272 7.52904 10.793C7.67971 11.1593 7.99593 11.4353 8.4306 11.5771C8.94804 11.7461 9.65531 11.7198 10.3517 11.4329C11.0485 11.1454 11.569 10.6666 11.8178 10.1819C11.9615 9.90185 12.0205 9.61587 11.9937 9.34525V2.48712C11.9937 2.48167 11.9937 2.47572 11.9937 2.47027V0.495655C11.9937 0.346964 11.9273 0.206698 11.8123 0.112527C11.6973 0.0183565 11.5467 -0.0193119 11.4009 0.00943502L3.9664 1.49635C3.73444 1.54294 3.56791 1.74615 3.56791 1.98256V3.95619ZM3.56791 10.4005C3.56444 10.3866 3.55998 10.3727 3.55453 10.3593C3.49059 10.2042 3.31166 10.1373 3.10746 10.1026C2.79223 10.0491 2.40762 10.1016 2.02548 10.2587C1.64384 10.4163 1.33358 10.6503 1.14771 10.91C1.02678 11.0785 0.946981 11.252 1.01092 11.4071C1.07486 11.5622 1.25328 11.6286 1.45798 11.6638C1.7732 11.7174 2.15782 11.6648 2.53995 11.5072C2.92159 11.3501 3.23187 11.1162 3.41773 10.8564C3.50348 10.7365 3.5684 10.6151 3.57633 10.4986C3.57088 10.4694 3.56791 10.4391 3.56791 10.4084V10.4005ZM11.0025 9.40919C10.999 9.39531 10.9945 9.38143 10.9891 9.36805C10.9251 9.21291 10.7462 9.146 10.542 9.11131C10.2268 9.05778 9.84217 9.11032 9.46004 9.26743C9.0784 9.42505 8.76813 9.65899 8.58226 9.9187C8.46133 10.0872 8.38153 10.2607 8.44547 10.4158C8.50941 10.571 8.68783 10.6374 8.89253 10.6726C9.20775 10.7261 9.59237 10.6736 9.9745 10.5159C10.3561 10.3588 10.6664 10.1249 10.8523 9.86517C10.938 9.74523 11.003 9.6238 11.0109 9.50732C11.0054 9.47808 11.0025 9.44785 11.0025 9.41712V9.40919ZM11.0025 2.07178V1.10033L4.55918 2.38899V3.36043L11.0025 2.07178Z" fill="#2F6CAD"/>
</svg>
