<svg width="16" height="23" viewBox="0 0 16 23" fill="none" xmlns="http://www.w3.org/2000/svg">
<path d="M4.12203 16.4C4.37355 16.3999 4.62206 16.4547 4.85022 16.5606C5.07838 16.6665 5.28068 16.8208 5.44302 17.0129C5.47429 17.0481 5.50335 17.0852 5.53003 17.1239C5.56704 17.177 5.60045 17.2324 5.63004 17.2899C5.7327 17.2068 5.82652 17.1133 5.91003 17.011C5.99326 16.9112 6.0663 16.8033 6.12804 16.689C6.28706 16.3891 6.38206 16.0595 6.40703 15.7209C6.45988 15.0201 6.27683 14.3218 5.88702 13.7369C5.48734 13.1037 5.13022 12.4446 4.81802 11.7639C4.28495 10.6061 3.90089 9.38541 3.67503 8.13095C3.63503 7.90995 3.59104 7.69595 3.54404 7.49495C3.46466 7.14506 3.2687 6.83254 2.98833 6.60868C2.70795 6.38482 2.3598 6.2629 2.00102 6.26295C1.92902 6.26295 1.86403 6.26995 1.79303 6.27595H1.76604C1.69659 6.28669 1.6278 6.30138 1.56003 6.31995V5.63595C1.93077 5.63035 2.28718 5.49177 2.56433 5.24545C2.84148 4.99914 3.02093 4.66147 3.07002 4.29395L3.31703 2.42895C3.3433 2.2279 3.3297 2.02364 3.27702 1.82784C3.22435 1.63204 3.13362 1.44853 3.01003 1.28779C2.76041 0.963165 2.39207 0.750994 1.98602 0.697951C1.57998 0.644907 1.16949 0.755339 0.844864 1.00495C0.520239 1.25456 0.308079 1.62291 0.255036 2.02895L0.0150302 3.89195C-0.0355534 4.27845 0.0617316 4.66979 0.2874 4.98762C0.513068 5.30544 0.850456 5.5263 1.23203 5.60595V6.44995C0.833628 6.64108 0.517527 6.96949 0.341736 7.37489C0.165946 7.78029 0.142259 8.23549 0.275025 8.65695L2.83403 16.976C2.99572 16.7935 3.19456 16.6476 3.41722 16.5483C3.63988 16.449 3.88122 16.3984 4.12503 16.4H4.12203Z" fill="#008080"/>
<path d="M5.52309 18.136C5.52584 17.8273 5.42647 17.5263 5.24045 17.2799C5.05443 17.0335 4.7922 16.8556 4.49454 16.7737C4.19688 16.6918 3.8805 16.7106 3.59462 16.8271C3.30875 16.9437 3.06941 17.1514 2.91385 17.4181C2.7583 17.6847 2.69525 17.9954 2.73452 18.3016C2.77378 18.6078 2.91317 18.8924 3.13097 19.1112C3.34877 19.33 3.63279 19.4707 3.93882 19.5113C4.24485 19.552 4.55573 19.4903 4.82309 19.336C5.03411 19.2142 5.20966 19.0394 5.33243 18.8289C5.4552 18.6185 5.52092 18.3796 5.52309 18.136Z" fill="#008080"/>
<path d="M15.6741 17.3959C15.6408 17.1405 15.5574 16.8942 15.4288 16.6711C15.3001 16.4479 15.1287 16.2524 14.9243 16.0957C14.7199 15.9389 14.4866 15.8241 14.2377 15.7577C13.9889 15.6914 13.7293 15.6748 13.4741 15.7089L6.53006 16.6349C6.50056 16.7083 6.46717 16.7801 6.43005 16.8499C6.35717 16.9831 6.27178 17.109 6.17505 17.2259C6.07695 17.3453 5.96708 17.4545 5.84708 17.5519L5.77505 17.6089C5.83089 17.779 5.85926 17.9569 5.85907 18.1359C5.85854 18.596 5.6756 19.0371 5.35037 19.3625C5.02514 19.6879 4.58413 19.8711 4.12405 19.8719C4.06705 19.8719 4.01205 19.8719 3.95605 19.8639V20.5759H14.4241L14.4641 20.5489C14.9571 20.2038 15.3358 19.7193 15.5517 19.1576C15.7677 18.5958 15.8109 17.9824 15.6761 17.3959H15.6741Z" fill="#008080"/>
<path d="M3.9541 20.913V21.146C3.95437 21.418 4.06256 21.6788 4.25491 21.8712C4.44727 22.0635 4.70807 22.1717 4.9801 22.172H13.5161C13.7879 22.1715 14.0483 22.0631 14.2403 21.8708C14.4323 21.6784 14.5401 21.4178 14.5401 21.146V20.902L14.5251 20.912L3.9541 20.913Z" fill="#008080"/>
</svg>
