<svg width="16" height="23" viewBox="0 0 16 23" fill="none" xmlns="http://www.w3.org/2000/svg">
<path d="M4.12203 16.4C4.37355 16.3999 4.62206 16.4547 4.85022 16.5606C5.07838 16.6665 5.28068 16.8208 5.44302 17.0129C5.47429 17.0481 5.50335 17.0852 5.53003 17.1239C5.56704 17.177 5.60045 17.2324 5.63004 17.2899C5.7327 17.2068 5.82652 17.1133 5.91003 17.011C5.99326 16.9112 6.0663 16.8033 6.12804 16.689C6.28706 16.3891 6.38206 16.0595 6.40703 15.7209C6.45988 15.0201 6.27683 14.3218 5.88702 13.7369C5.48734 13.1037 5.13022 12.4446 4.81802 11.7639C4.28495 10.6061 3.90089 9.38541 3.67503 8.13095C3.63503 7.90995 3.59104 7.69595 3.54404 7.49495C3.46466 7.14506 3.2687 6.83254 2.98833 6.60868C2.70795 6.38482 2.3598 6.2629 2.00102 6.26295C1.92902 6.26295 1.86403 6.26995 1.79303 6.27595H1.76604C1.69659 6.28669 1.6278 6.30138 1.56003 6.31995V5.63595C1.93077 5.63035 2.28718 5.49177 2.56433 5.24545C2.84148 4.99914 3.02093 4.66147 3.07002 4.29395L3.31703 2.42895C3.3433 2.2279 3.3297 2.02364 3.27702 1.82784C3.22435 1.63204 3.13362 1.44853 3.01003 1.28779C2.76041 0.963165 2.39207 0.750994 1.98602 0.697951C1.57998 0.644907 1.16949 0.755339 0.844864 1.00495C0.520239 1.25456 0.308079 1.62291 0.255036 2.02895L0.0150302 3.89195C-0.0355534 4.27845 0.0617316 4.66979 0.2874 4.98762C0.513068 5.30544 0.850456 5.5263 1.23203 5.60595V6.44995C0.833628 6.64108 0.517527 6.96949 0.341736 7.37489C0.165946 7.78029 0.142259 8.23549 0.275025 8.65695L2.83403 16.976C2.99572 16.7935 3.19456 16.6476 3.41722 16.5483C3.63988 16.449 3.88122 16.3984 4.12503 16.4H4.12203Z" fill="#2F6CAD"/>
<path d="M5.52303 18.1359C5.52578 17.8272 5.42641 17.5263 5.24039 17.2799C5.05437 17.0335 4.79214 16.8555 4.49448 16.7736C4.19682 16.6917 3.88044 16.7105 3.59456 16.8271C3.30869 16.9436 3.06935 17.1514 2.91379 17.418C2.75824 17.6847 2.69519 17.9953 2.73446 18.3015C2.77372 18.6077 2.91311 18.8924 3.13091 19.1112C3.34871 19.33 3.63272 19.4706 3.93876 19.5113C4.24479 19.5519 4.55567 19.4903 4.82303 19.336C5.03404 19.2141 5.2096 19.0394 5.33237 18.8289C5.45514 18.6184 5.52086 18.3796 5.52303 18.1359Z" fill="#2F6CAD"/>
<path d="M15.674 17.3959C15.6407 17.1405 15.5574 16.8942 15.4287 16.6711C15.3 16.448 15.1286 16.2524 14.9242 16.0957C14.7198 15.939 14.4865 15.8241 14.2377 15.7578C13.9888 15.6914 13.7293 15.6748 13.474 15.709L6.53 16.6349C6.5005 16.7083 6.46711 16.7801 6.42999 16.8499C6.35711 16.9831 6.27172 17.109 6.17499 17.226C6.07688 17.3454 5.96702 17.4546 5.84702 17.5519L5.77499 17.6089C5.83083 17.779 5.8592 17.9569 5.85901 18.136C5.85848 18.596 5.67554 19.0371 5.35031 19.3625C5.02508 19.688 4.58407 19.8712 4.12399 19.8719C4.06699 19.8719 4.01199 19.872 3.95599 19.864V20.576H14.424L14.464 20.549C14.957 20.2038 15.3357 19.7193 15.5517 19.1576C15.7676 18.5959 15.8109 17.9824 15.676 17.3959H15.674Z" fill="#2F6CAD"/>
<path d="M3.95404 20.913V21.146C3.95431 21.418 4.0625 21.6788 4.25485 21.8712C4.44721 22.0635 4.70801 22.1717 4.98004 22.172H13.5161C13.7878 22.1714 14.0483 22.0631 14.2403 21.8707C14.4322 21.6784 14.54 21.4177 14.54 21.146V20.9019L14.5251 20.912L3.95404 20.913Z" fill="#2F6CAD"/>
</svg>
