<svg width="22" height="17" viewBox="0 0 22 17" fill="none" xmlns="http://www.w3.org/2000/svg">
<path d="M10.9995 8.25139C12.0607 8.25139 13.0779 7.82952 13.8279 7.07954C14.5778 6.32955 14.9997 5.31237 14.9997 4.25118C14.9997 3.18999 14.5778 2.17277 13.8279 1.42283C13.0779 0.67289 12.0607 0.250977 10.9995 0.250977C9.93831 0.250977 8.92109 0.672842 8.17115 1.42283C7.42121 2.17282 6.9993 3.18999 6.9993 4.25118C7.00117 5.31149 7.42304 6.3277 8.17302 7.07762C8.92301 7.82753 9.9393 8.24952 10.9995 8.25139ZM10.9995 1.25118C12.2126 1.25118 13.3067 1.98243 13.7707 3.10271C14.2357 4.22394 13.9789 5.51491 13.1211 6.37265C12.2633 7.23045 10.9724 7.48731 9.85112 7.02232C8.73082 6.55826 7.9996 5.46422 7.9996 4.25109C7.9996 2.59456 9.34298 1.25118 10.9995 1.25118Z" fill="white"/>
<path d="M3.49964 8.25126C4.51118 8.25126 5.42242 7.64188 5.8096 6.70722C6.19585 5.77349 5.9821 4.69819 5.26774 3.98278C4.55243 3.26841 3.47715 3.05467 2.54331 3.44092C1.60864 3.8281 0.999268 4.73935 0.999268 5.75088C0.999268 6.41368 1.26271 7.05024 1.73145 7.51898C2.20018 7.98772 2.83685 8.25126 3.49964 8.25126ZM3.49964 4.251C4.10618 4.251 4.65369 4.61661 4.88524 5.17724C5.11773 5.73785 4.9893 6.38284 4.55992 6.81128C4.13148 7.24066 3.48649 7.36908 2.92588 7.13659C2.36528 6.90504 1.99964 6.35754 1.99964 5.751C2.00246 4.92321 2.67185 4.25381 3.49964 4.251Z" fill="white"/>
<path d="M18.4994 8.25126C19.5109 8.25126 20.4221 7.64188 20.8093 6.70722C21.1956 5.77349 20.9818 4.69819 20.2675 3.98278C19.5522 3.26841 18.4769 3.05467 17.543 3.44092C16.6084 3.8281 15.999 4.73935 15.999 5.75088C15.999 6.41368 16.2624 7.05024 16.7312 7.51898C17.1999 7.98772 17.8366 8.25126 18.4994 8.25126ZM18.4994 4.251C19.1059 4.251 19.6534 4.61661 19.885 5.17724C20.1175 5.73785 19.989 6.38284 19.5596 6.81128C19.1312 7.24066 18.4862 7.36908 17.9256 7.13659C17.365 6.90504 16.9994 6.35754 16.9994 5.751C17.0022 4.92321 17.6716 4.25381 18.4994 4.251Z" fill="white"/>
<path d="M18.4994 8.75098C17.3163 8.79691 16.2494 9.47658 15.7094 10.5313C14.4082 9.3838 12.7339 8.75098 10.9995 8.75098C9.26505 8.75098 7.59083 9.38377 6.28958 10.5313C5.74959 9.4766 4.68273 8.79691 3.49962 8.75098C1.56933 8.75098 0 10.7713 0 13.2509H0.999367C0.999367 11.3206 2.11967 9.75128 3.49965 9.75128C4.41744 9.82065 5.21336 10.4094 5.54993 11.2663C4.21683 12.7812 3.48745 14.733 3.49965 16.7506H4.49995C4.48682 14.8401 5.22932 13.0026 6.5643 11.6358C6.61211 11.5843 6.66461 11.5355 6.71992 11.4915C7.86458 10.3759 9.4002 9.75151 10.9995 9.75151C12.5989 9.75151 14.1344 10.3759 15.2791 11.4915C15.3345 11.5355 15.387 11.5843 15.4348 11.6358C16.7697 13.0027 17.5122 14.8403 17.4991 16.7506H18.4994C18.5116 14.7332 17.7822 12.7814 16.4491 11.2663C16.7857 10.4094 17.5816 9.82066 18.4994 9.75128C19.8794 9.75128 20.9997 11.3216 20.9997 13.2509H22C21.9991 10.7713 20.4297 8.75098 18.4994 8.75098Z" fill="white"/>
</svg>
