<svg width="14" height="18" viewBox="0 0 14 18" fill="none" xmlns="http://www.w3.org/2000/svg">
<path fill-rule="evenodd" clip-rule="evenodd" d="M6.08102 0.893037C6.12362 0.893014 6.16553 0.903834 6.20279 0.924478C6.24005 0.945121 6.27145 0.974906 6.29402 1.01103L7.16103 2.39803H9.77602C9.84196 2.39792 9.90727 2.41085 9.9682 2.43607C10.0291 2.4613 10.0845 2.49833 10.131 2.54503L12.346 4.76003C12.3927 4.80659 12.4298 4.86193 12.455 4.92285C12.4802 4.98378 12.4931 5.04909 12.493 5.11504V16.948C12.493 17.0806 12.4403 17.2078 12.3466 17.3016C12.2528 17.3954 12.1256 17.448 11.993 17.448H0.947021C0.814413 17.448 0.687228 17.3954 0.59346 17.3016C0.499692 17.2078 0.447021 17.0806 0.447021 16.948V2.90003C0.447021 2.76742 0.499692 2.64025 0.59346 2.54648C0.687228 2.45271 0.814413 2.40003 0.947021 2.40003V1.14404C0.947021 1.11107 0.953512 1.07843 0.966125 1.04798C0.978739 1.01753 0.997231 0.989854 1.02054 0.966546C1.04385 0.943239 1.07151 0.924755 1.10196 0.912141C1.13241 0.899527 1.16505 0.893037 1.19801 0.893037H6.08102ZM2.65501 4.68404L2.63101 4.70503C2.58786 4.74821 2.56193 4.80564 2.55806 4.86657C2.55419 4.9275 2.57266 4.98775 2.61002 5.03603L2.63101 5.06004L4.21202 6.64103V13.249L2.63101 14.831C2.58394 14.8781 2.5575 14.942 2.5575 15.0085C2.5575 15.0751 2.58394 15.139 2.63101 15.186C2.67809 15.2331 2.74194 15.2596 2.80852 15.2596C2.87509 15.2596 2.93895 15.2331 2.98602 15.186L4.48602 13.686H8.50002L10 15.186C10.0452 15.231 10.1057 15.2572 10.1694 15.2592C10.2332 15.2611 10.2952 15.2388 10.3431 15.1967C10.3909 15.1546 10.4209 15.0958 10.4271 15.0324C10.4332 14.9689 10.4149 14.9055 10.376 14.855L10.355 14.831L8.75502 13.231C8.74624 13.2224 8.73688 13.2144 8.72702 13.207V6.67703C8.73692 6.66972 8.74628 6.6617 8.75502 6.65303L10.355 5.05303C10.3783 5.02972 10.3968 5.00205 10.4094 4.9716C10.4221 4.94114 10.4285 4.9085 10.4285 4.87554C10.4285 4.84257 10.4221 4.80993 10.4094 4.77947C10.3968 4.74902 10.3783 4.72135 10.355 4.69804C10.3317 4.67473 10.304 4.65623 10.2736 4.64362C10.2431 4.631 10.2105 4.62451 10.1775 4.62451C10.1446 4.62451 10.1119 4.631 10.0815 4.64362C10.051 4.65623 10.0233 4.67473 10 4.69804L8.54402 6.15403H4.44402L2.98802 4.69804C2.94484 4.65488 2.8874 4.62894 2.82648 4.62508C2.76555 4.62121 2.7053 4.63968 2.65701 4.67703L2.65501 4.68404ZM8.22601 6.66203V13.184H4.71402V6.66203H8.22601ZM11.353 0.948037L13.836 3.43103C13.8593 3.45434 13.8778 3.48201 13.8904 3.51247C13.9031 3.54292 13.9095 3.57557 13.9095 3.60854C13.9095 3.6415 13.9031 3.67414 13.8904 3.7046C13.8778 3.73505 13.8593 3.76273 13.836 3.78603L13.127 4.49603C13.1037 4.51935 13.076 4.53784 13.0456 4.55045C13.0151 4.56307 12.9825 4.56957 12.9495 4.56957C12.9166 4.56957 12.8839 4.56307 12.8535 4.55045C12.823 4.53784 12.7953 4.51935 12.772 4.49603L10.289 2.01303C10.2657 1.98972 10.2472 1.96205 10.2346 1.9316C10.222 1.90114 10.2155 1.8685 10.2155 1.83553C10.2155 1.80257 10.222 1.76993 10.2346 1.73947C10.2472 1.70902 10.2657 1.68134 10.289 1.65804L10.999 0.948037C11.0224 0.92479 11.0501 0.906369 11.0806 0.893838C11.1111 0.881307 11.1438 0.874908 11.1767 0.875001C11.2097 0.875094 11.2423 0.881677 11.2727 0.89438C11.3032 0.907082 11.3308 0.925659 11.354 0.949037L11.353 0.948037ZM5.84302 1.64803H1.70403V2.40103H6.26102L5.84302 1.64803Z" fill="#2F6CAD"/>
</svg>
