<svg width="21" height="17" viewBox="0 0 21 17" fill="none" xmlns="http://www.w3.org/2000/svg">
<path fill-rule="evenodd" clip-rule="evenodd" d="M0.569 0.639982L0.744003 6.33498L0 7.08398C0 7.08398 0.129998 12.625 0.656998 14.12C0.944032 14.9604 1.3121 15.7708 1.756 16.54H19.256V6.06998C19.256 6.06998 15.396 2.21798 11.209 1.42298C7.68692 0.896084 4.13026 0.634347 0.569 0.639982ZM15.082 4.30698H15.382C15.6307 4.30803 15.8689 4.4073 16.0448 4.58317C16.2207 4.75904 16.3199 4.99727 16.321 5.24598V5.85798C16.3202 6.10687 16.2211 6.34536 16.0452 6.52144C15.8693 6.69752 15.6309 6.79693 15.382 6.79798H15.082V4.30698ZM19.455 14.574H20.126V12.949H19.455V14.574ZM19.455 11.249H20.126V9.62498H19.455V11.249ZM1.87 1.71498C4.47684 1.71382 7.08144 1.86776 9.67 2.17598C11.4766 2.42001 13.2131 3.03561 14.77 3.98398C15.329 3.98398 15.824 3.91099 16.27 4.35599C16.507 4.5924 16.6404 4.91323 16.641 5.24798V5.85998C16.6405 6.19505 16.5071 6.51625 16.2702 6.75318C16.0333 6.99011 15.7121 7.12345 15.377 7.12398H14.753V6.36098C10.532 6.36098 6.287 6.33598 2.066 6.33598L1.87 1.71498ZM2.535 8.09598H5.116C5.22898 8.09598 5.33734 8.14086 5.41723 8.22075C5.49712 8.30064 5.542 8.409 5.542 8.52199C5.542 8.63497 5.49712 8.74332 5.41723 8.82321C5.33734 8.9031 5.22898 8.94798 5.116 8.94798H2.535C2.42202 8.94798 2.31366 8.9031 2.23377 8.82321C2.15388 8.74332 2.109 8.63497 2.109 8.52199C2.109 8.409 2.15388 8.30064 2.23377 8.22075C2.31366 8.14086 2.42202 8.09598 2.535 8.09598Z" fill="#008080"/>
</svg>
