<svg width="24" height="24" viewBox="0 0 24 24" fill="none" xmlns="http://www.w3.org/2000/svg">
<path d="M8.688 9.232C8.688 7.664 10.48 6.272 12.432 6.272C14.48 6.272 16.496 7.216 16.496 9.472C16.496 11.552 14.112 12.352 13.6 13.104C13.216 13.664 13.344 14.448 12.288 14.448C11.6 14.448 11.264 13.888 11.264 13.376C11.264 11.472 14.064 11.04 14.064 9.472C14.064 8.608 13.488 8.096 12.528 8.096C10.48 8.096 11.28 10.208 9.728 10.208C9.168 10.208 8.688 9.872 8.688 9.232ZM11.04 16.8C11.04 16.08 11.632 15.488 12.352 15.488C13.072 15.488 13.664 16.08 13.664 16.8C13.664 17.52 13.072 18.112 12.352 18.112C11.632 18.112 11.04 17.52 11.04 16.8Z" fill="#2F6CAD"/>
<circle cx="12" cy="12" r="11.5" stroke="#2F6CAD"/>
</svg>
