<svg width="21" height="21" viewBox="0 0 21 21" fill="none" xmlns="http://www.w3.org/2000/svg">
<g clip-path="url(#clip0_1_69)">
<path d="M7.76949 4.02503C7.59067 3.37198 7.20224 2.79577 6.66395 2.38505C6.12565 1.97433 5.46732 1.75186 4.79023 1.75186C4.11314 1.75186 3.45481 1.97433 2.91651 2.38505C2.37822 2.79577 1.98978 3.37198 1.81097 4.02503C1.7027 4.81524 1.80227 5.62001 2.09985 6.36001C2.39744 7.1 2.88277 7.74965 3.50798 8.24488C3.85579 8.56951 4.31384 8.75006 4.78962 8.75006C5.26539 8.75006 5.72344 8.56951 6.07126 8.24488C6.69519 7.7485 7.17966 7.09874 7.47732 6.35909C7.77498 5.61945 7.87565 4.81523 7.76949 4.02503ZM4.82025 5.42675C4.5879 5.42788 4.36462 5.33667 4.19952 5.17318C4.03442 5.00969 3.94103 4.78731 3.93989 4.55496C3.93875 4.32261 4.02996 4.09933 4.19345 3.93423C4.35694 3.76913 4.57932 3.67574 4.81167 3.6746H4.82025C5.0526 3.6746 5.27543 3.7669 5.43973 3.9312C5.60402 4.09549 5.69632 4.31833 5.69632 4.55067C5.69632 4.78302 5.60402 5.00586 5.43973 5.17015C5.27543 5.33445 5.0526 5.42675 4.82025 5.42675Z" fill="#2F6CAD"/>
<path d="M19.1707 14.5244C18.989 13.8703 18.5979 13.2938 18.0575 12.883C17.517 12.4722 16.8568 12.2498 16.1779 12.2498C15.4991 12.2498 14.8389 12.4722 14.2984 12.883C13.7579 13.2938 13.3669 13.8703 13.1852 14.5244C13.0766 15.3156 13.1769 16.1214 13.4764 16.8618C13.7758 17.6021 14.2639 18.2511 14.892 18.7443C15.2416 19.0693 15.7012 19.25 16.1785 19.25C16.6559 19.25 17.1155 19.0693 17.4651 18.7443C18.093 18.251 18.5808 17.6019 18.88 16.8616C19.1793 16.1212 19.2795 15.3155 19.1707 14.5244ZM16.2141 15.9261C16.099 15.9267 15.985 15.9046 15.8785 15.8611C15.772 15.8176 15.6751 15.7535 15.5933 15.6726C15.4282 15.5091 15.3349 15.2867 15.3337 15.0544C15.3326 14.822 15.4238 14.5987 15.5873 14.4336C15.7508 14.2685 15.9732 14.1751 16.2055 14.174H16.2141C16.4464 14.174 16.6693 14.2663 16.8336 14.4306C16.9979 14.5949 17.0902 14.8177 17.0902 15.0501C17.0902 15.2824 16.9979 15.5053 16.8336 15.6695C16.6693 15.8338 16.4464 15.9261 16.2141 15.9261Z" fill="#2F6CAD"/>
<path d="M10.4994 17.2813H8.15544C7.66619 17.2805 7.18878 17.1307 6.7868 16.8519C6.38481 16.573 6.07731 16.1783 5.90526 15.7203C5.73322 15.2623 5.70478 14.7628 5.82374 14.2882C5.9427 13.8136 6.20341 13.3866 6.57116 13.0639L13.5626 6.9473C13.7308 6.80134 13.8504 6.60742 13.9052 6.39156C13.9601 6.17569 13.9476 5.94821 13.8694 5.73965C13.7913 5.53108 13.6512 5.35141 13.468 5.22474C13.2848 5.09806 13.0673 5.03045 12.8446 5.03097H10.4994C10.3259 5.02969 10.1599 4.96021 10.0373 4.83756C9.91462 4.7149 9.84515 4.54891 9.84387 4.37545C9.84483 4.20178 9.91416 4.03548 10.0369 3.91255C10.1595 3.78963 10.3257 3.71999 10.4994 3.7187H12.8446C13.3342 3.71482 13.813 3.86237 14.2155 4.14115C14.618 4.41994 14.9245 4.81632 15.0929 5.27603C15.2684 5.73411 15.2986 6.23507 15.1796 6.71094C15.0606 7.18681 14.798 7.61454 14.4276 7.9361L7.43743 14.0527C7.26826 14.1984 7.14786 14.3925 7.09245 14.6088C7.03705 14.8251 7.04929 15.0532 7.12755 15.2624C7.2058 15.4715 7.3463 15.6516 7.5301 15.7784C7.7139 15.9052 7.93215 15.9726 8.15544 15.9715H10.4994C10.6685 15.9788 10.8283 16.0511 10.9453 16.1733C11.0624 16.2956 11.1278 16.4583 11.1278 16.6276C11.1278 16.7969 11.0624 16.9596 10.9453 17.0818C10.8283 17.2041 10.6685 17.2764 10.4994 17.2837V17.2813Z" fill="#2F6CAD"/>
</g>
<defs>
<clipPath id="clip0_1_69">
<rect width="21" height="21" fill="white"/>
</clipPath>
</defs>
</svg>
