<svg width="19" height="19" viewBox="0 0 19 19" fill="none" xmlns="http://www.w3.org/2000/svg">
<path d="M11.8041 11.3858C13.8852 9.30463 13.8852 5.93038 11.8041 3.84921C9.7229 1.76804 6.34865 1.76804 4.26748 3.84921C2.18631 5.93038 2.18631 9.30463 4.26748 11.3858C6.34865 13.467 9.7229 13.467 11.8041 11.3858ZM11.8041 11.3858L14.1263 13.708M5.88246 5.46419C7.07171 4.27495 8.99985 4.27495 10.1891 5.46419M14.1263 13.708L14.2378 13.5965C14.3864 13.4478 14.6274 13.4478 14.7761 13.5965L16.141 14.9614C16.2897 15.1101 16.2897 15.3511 16.141 15.4998L15.918 15.7228C15.7694 15.8714 15.5284 15.8714 15.3797 15.7228L14.0148 14.3578C13.8661 14.2092 13.8661 13.9681 14.0148 13.8195L14.1263 13.708Z" stroke="#818898" stroke-width="1.20408" stroke-linecap="round" stroke-linejoin="round"/>
</svg>
