<svg xmlns="http://www.w3.org/2000/svg" width="15.717" height="21.485" viewBox="0 0 15.717 21.485">
  <g id="Group_18" data-name="Group 18" transform="translate(0 0)">
    <path id="Path_67" data-name="Path 67" d="M178.107,55.09a1.729,1.729,0,0,1,1.321.613,1.137,1.137,0,0,1,.087.111,1.447,1.447,0,0,1,.1.166,1.925,1.925,0,0,0,.28-.279,1.947,1.947,0,0,0,.218-.322,2.451,2.451,0,0,0,.279-.968,3.15,3.15,0,0,0-.52-1.984,16.887,16.887,0,0,1-1.069-1.973,15.073,15.073,0,0,1-1.143-3.633c-.04-.221-.084-.435-.131-.636h0a1.582,1.582,0,0,0-1.543-1.232c-.072,0-.137.007-.208.013l-.027,0h0a1.848,1.848,0,0,0-.206.044v-.684a1.547,1.547,0,0,0,1.51-1.342l.247-1.865h0a1.544,1.544,0,0,0-3.062-.4L174,42.582a1.546,1.546,0,0,0,1.217,1.714v.844a1.836,1.836,0,0,0-.957,2.207l2.559,8.319a1.71,1.71,0,0,1,1.291-.576Z" transform="translate(-173.984 -39.374)" fill="#2f6cad"/>
    <path id="Path_68" data-name="Path 68" d="M237.782,400.672a1.4,1.4,0,1,0-.7,1.2A1.4,1.4,0,0,0,237.782,400.672Z" transform="translate(-232.258 -383.22)" fill="#2f6cad"/>
    <path id="Path_69" data-name="Path 69" d="M274.286,377.24a1.957,1.957,0,0,0-2.2-1.687l-6.944.926a2.233,2.233,0,0,1-.1.215,2.393,2.393,0,0,1-.255.376,2.3,2.3,0,0,1-.328.326l-.072.057a1.684,1.684,0,0,1,.084.527,1.738,1.738,0,0,1-1.735,1.736c-.057,0-.112,0-.168-.008v.712h10.468l.04-.027a3.022,3.022,0,0,0,1.212-3.153Z" transform="translate(-258.611 -360.528)" fill="#2f6cad"/>
    <path id="Path_70" data-name="Path 70" d="M262.58,492.2v.233a1.027,1.027,0,0,0,1.026,1.026h8.536a1.026,1.026,0,0,0,1.024-1.026v-.244l-.015.01Z" transform="translate(-258.625 -471.971)" fill="#2f6cad"/>
  </g>
</svg>
