<svg width="24" height="25" viewBox="0 0 24 25" fill="none" xmlns="http://www.w3.org/2000/svg">
<path d="M22.0595 9.81962H20.6405C20.494 9.29397 20.2947 8.78452 20.0455 8.29908L21.028 7.31666C21.3875 6.94968 21.5888 6.45642 21.5888 5.94271C21.5888 5.429 21.3875 4.93575 21.028 4.56876L19.9538 3.49466C19.5854 3.14002 19.0936 2.94255 18.5823 2.94399C18.0709 2.94543 17.5802 3.14568 17.2139 3.50238L16.2622 4.45402C15.7593 4.18325 15.2318 3.96066 14.687 3.78924V2.47108C14.6897 2.21548 14.6414 1.96189 14.5449 1.7252C14.4484 1.48851 14.3055 1.27347 14.1248 1.09272C13.944 0.911958 13.729 0.769114 13.4923 0.672561C13.2557 0.576008 13.0021 0.527692 12.7465 0.530446H11.2535C10.9979 0.527692 10.7443 0.576008 10.5077 0.672561C10.271 0.769114 10.0559 0.911959 9.8752 1.09272C9.69445 1.27347 9.55162 1.48851 9.45509 1.7252C9.35855 1.96189 9.31025 2.21548 9.31302 2.47108V3.78139C8.76578 3.95013 8.23752 4.17521 7.73675 4.45301L6.78613 3.50226C6.41811 3.14481 5.92526 2.94488 5.41222 2.9449C4.89918 2.94492 4.40635 3.1449 4.03836 3.50239L2.97198 4.56864C2.61251 4.93563 2.41118 5.42888 2.41118 5.94259C2.41118 6.45631 2.61251 6.94956 2.97198 7.31654L3.95452 8.29908C3.70532 8.78452 3.50596 9.29398 3.35951 9.81962H1.94054C1.4229 9.82341 0.927897 10.0324 0.564111 10.4006C0.200326 10.7689 -0.00253604 11.2664 2.39377e-05 11.7841V13.277C0.000614321 13.7915 0.205251 14.2847 0.56904 14.6485C0.93283 15.0123 1.42606 15.2169 1.94054 15.2175H3.44589C3.60434 15.7149 3.81135 16.1956 4.06393 16.6524L2.97196 17.7443C2.61437 18.1123 2.41434 18.6051 2.41434 19.1182C2.41434 19.6313 2.61437 20.1242 2.97196 20.4922L4.04619 21.5663C4.41453 21.921 4.90638 22.1185 5.41771 22.117C5.92905 22.1156 6.41977 21.9153 6.78611 21.5586L7.93407 20.4108C8.37677 20.6355 8.83815 20.8214 9.31302 20.9662V22.59C9.31025 22.8456 9.35855 23.0992 9.45509 23.3359C9.55163 23.5725 9.69447 23.7876 9.87521 23.9683C10.056 24.1491 10.271 24.2919 10.5077 24.3884C10.7444 24.485 10.9979 24.5333 11.2535 24.5305H12.7465C13.2609 24.5299 13.7542 24.3253 14.118 23.9615C14.4818 23.5977 14.6864 23.1045 14.687 22.59V20.9662C15.1619 20.8214 15.6233 20.6355 16.0659 20.4108L17.2139 21.5587C17.5819 21.9162 18.0748 22.1161 18.5878 22.1161C19.1008 22.116 19.5937 21.9161 19.9617 21.5586L21.0359 20.4843C21.3906 20.116 21.5881 19.6241 21.5866 19.1128C21.5852 18.6014 21.3848 18.1107 21.028 17.7444L19.9361 16.6524C20.1887 16.1956 20.3957 15.715 20.5541 15.2175H22.0595C22.5739 15.2169 23.0672 15.0123 23.431 14.6485C23.7948 14.2847 23.9994 13.7915 24 13.277V11.7841C24.0025 11.2664 23.7997 10.7689 23.4359 10.4006C23.0721 10.0324 22.5771 9.82341 22.0595 9.81962ZM22.9625 13.277C22.9622 13.5164 22.867 13.746 22.6977 13.9153C22.5284 14.0845 22.2989 14.1798 22.0595 14.18H20.1638C20.0488 14.18 19.937 14.2182 19.8461 14.2887C19.7552 14.3591 19.6903 14.4577 19.6615 14.5691C19.4856 15.2382 19.2104 15.8772 18.8451 16.4648C18.7839 16.5641 18.7581 16.6812 18.7717 16.7971C18.7853 16.913 18.8376 17.0209 18.9201 17.1034L20.2945 18.4781C20.4599 18.6502 20.5523 18.8796 20.5523 19.1184C20.5523 19.3571 20.4599 19.5865 20.2945 19.7586L19.236 20.8173C19.0642 20.9856 18.8337 21.0805 18.5933 21.0819C18.3528 21.0833 18.1212 20.9912 17.9474 20.825L16.5257 19.4033C16.445 19.3226 16.3399 19.2707 16.2267 19.2558C16.1136 19.2409 15.9987 19.2637 15.8998 19.3207C15.3143 19.6535 14.6871 19.9069 14.0347 20.0744C13.9243 20.1038 13.8266 20.1689 13.7569 20.2596C13.6873 20.3502 13.6495 20.4613 13.6495 20.5757V22.59C13.6492 22.8294 13.554 23.0589 13.3847 23.2282C13.2154 23.3975 12.9859 23.4927 12.7465 23.493H11.2535C11.1346 23.4943 11.0166 23.4718 10.9065 23.4269C10.7963 23.382 10.6963 23.3155 10.6122 23.2314C10.528 23.1473 10.4616 23.0472 10.4167 22.9371C10.3717 22.8269 10.3492 22.7089 10.3505 22.59V20.5757C10.3505 20.4613 10.3127 20.3502 10.2431 20.2596C10.1734 20.1689 10.0757 20.1038 9.96526 20.0744C9.31293 19.9069 8.68575 19.6535 8.10023 19.3207C8.00136 19.2636 7.88643 19.2408 7.77326 19.2557C7.6601 19.2707 7.55502 19.3225 7.47433 19.4033L6.05257 20.8249C5.88048 20.9904 5.65101 21.0828 5.41226 21.0829C5.17351 21.0829 4.94402 20.9905 4.7719 20.825L3.71338 19.7665C3.5451 19.5948 3.45019 19.3643 3.44873 19.1238C3.44726 18.8834 3.53935 18.6518 3.70553 18.478L5.07991 17.1034C5.16244 17.0209 5.21474 16.913 5.22835 16.7971C5.24195 16.6812 5.21607 16.5641 5.15489 16.4648C4.78965 15.8772 4.51455 15.2383 4.33876 14.5692C4.31004 14.4578 4.24512 14.3591 4.15419 14.2887C4.06327 14.2182 3.9515 14.18 3.83647 14.18H1.94054C1.70112 14.1798 1.47159 14.0845 1.30229 13.9153C1.133 13.746 1.03778 13.5164 1.03753 13.277V11.7841C1.03466 11.5415 1.12811 11.3077 1.29739 11.1339C1.46668 10.9601 1.69797 10.8606 1.94054 10.8571H3.76531C3.88362 10.8571 3.99838 10.8167 4.09056 10.7425C4.18274 10.6683 4.24681 10.5649 4.27215 10.4493C4.42739 9.75184 4.68799 9.08208 5.04497 8.46309C5.10141 8.36429 5.1238 8.24967 5.1087 8.13689C5.0936 8.02411 5.04183 7.91943 4.96138 7.83896L3.70551 6.58286C3.54067 6.41046 3.44867 6.18112 3.44867 5.94259C3.44867 5.70406 3.54067 5.47472 3.70551 5.30232L4.76405 4.24366C4.93583 4.07542 5.1663 3.98056 5.40675 3.97912C5.64719 3.97768 5.87878 4.06977 6.05257 4.23593L7.28487 5.46823C7.36693 5.55049 7.47426 5.60277 7.58962 5.61666C7.70498 5.63056 7.82165 5.60527 7.9209 5.54486C8.55031 5.15438 9.23608 4.86314 9.95411 4.68137C10.0671 4.6539 10.1676 4.58927 10.2395 4.49784C10.3114 4.40641 10.3505 4.29349 10.3505 4.17718V2.47108C10.3464 2.35137 10.3669 2.23209 10.4108 2.12065C10.4547 2.00921 10.5211 1.90799 10.6058 1.82329C10.6905 1.73858 10.7917 1.6722 10.9031 1.62828C11.0145 1.58435 11.1338 1.56382 11.2535 1.56795H12.7465C12.8654 1.56667 12.9834 1.58916 13.0936 1.63409C13.2037 1.67903 13.3038 1.7455 13.3879 1.82963C13.472 1.91375 13.5385 2.01382 13.5834 2.12397C13.6283 2.23412 13.6508 2.35213 13.6495 2.47108V4.17717C13.6495 4.29096 13.6869 4.4016 13.756 4.49204C13.825 4.58248 13.9219 4.64771 14.0317 4.67768C14.7513 4.86984 15.4404 5.16172 16.0791 5.54483C16.1784 5.60517 16.295 5.63042 16.4104 5.61652C16.5257 5.60263 16.633 5.5504 16.7151 5.46821L17.9474 4.23605C18.1196 4.07067 18.349 3.9783 18.5877 3.97827C18.8265 3.97825 19.0559 4.07057 19.2281 4.23592L20.2945 5.30243C20.4593 5.47483 20.5513 5.70417 20.5513 5.9427C20.5513 6.18123 20.4593 6.41057 20.2945 6.58297L19.0386 7.83895C18.9582 7.91942 18.9064 8.0241 18.8913 8.13688C18.8762 8.24966 18.8986 8.36427 18.9551 8.46308C19.312 9.08206 19.5726 9.75183 19.7279 10.4493C19.7532 10.5649 19.8173 10.6683 19.9095 10.7425C20.0016 10.8167 20.1164 10.8571 20.2347 10.8571H22.0595C22.302 10.8606 22.5333 10.9601 22.7026 11.1339C22.8719 11.3077 22.9653 11.5415 22.9625 11.7841V13.277Z" fill="#2F6CAD"/>
<path d="M12 8.59698C11.222 8.59697 10.4615 8.82766 9.81463 9.25987C9.16775 9.69209 8.66357 10.3064 8.36584 11.0252C8.06812 11.7439 7.99021 12.5348 8.14199 13.2979C8.29376 14.0609 8.66839 14.7618 9.21851 15.3119C9.76863 15.862 10.4695 16.2367 11.2326 16.3885C11.9956 16.5402 12.7865 16.4623 13.5053 16.1646C14.224 15.8669 14.8384 15.3627 15.2706 14.7158C15.7028 14.0689 15.9335 13.3084 15.9335 12.5304C15.9323 11.4876 15.5175 10.4878 14.7801 9.75037C14.0427 9.01296 13.0429 8.59816 12 8.59698ZM12 15.4265C11.4272 15.4265 10.8673 15.2567 10.3911 14.9385C9.9148 14.6203 9.5436 14.168 9.32439 13.6388C9.10518 13.1097 9.04782 12.5274 9.15955 11.9656C9.27128 11.4038 9.54708 10.8878 9.95209 10.4828C10.3571 10.0777 10.8731 9.8019 11.4349 9.69015C11.9967 9.57839 12.5789 9.63573 13.1081 9.85491C13.6373 10.0741 14.0896 10.4453 14.4078 10.9215C14.7261 11.3978 14.8959 11.9577 14.896 12.5304C14.8951 13.2982 14.5897 14.0344 14.0468 14.5773C13.5039 15.1202 12.7678 15.4256 12 15.4265Z" fill="#2F6CAD"/>
</svg>
