<svg width="24" height="24" viewBox="0 0 24 24" fill="none" xmlns="http://www.w3.org/2000/svg">
<circle cx="12" cy="12" r="11.5" stroke="#2F6CAD"/>
<path d="M6.74787 10.2138L6.15271 10.6677V9.51388L12.0765 5V6.15099L7.29872 9.79137L7.30096 16.5042H12.0765V17.6104H6.74788L6.74787 10.2138Z" fill="#2F6CAD"/>
<path d="M17.4048 10.2138L18 10.6677V9.51388L12.0763 5V6.15099L16.854 9.79137L16.8518 16.5042H12.0763V17.6104H17.4048L17.4048 10.2138Z" fill="#2F6CAD"/>
<path d="M9.77452 12.6762H9.78534C10.0151 12.6762 9.99265 12.998 9.79457 13.0178C9.59649 13.0376 9.4232 13.1686 9.27233 13.5601C9.24255 13.6233 9.22691 13.6922 9.22651 13.7621C9.22611 13.8319 9.24096 13.901 9.27001 13.9646C9.29907 14.0281 9.34163 14.0845 9.39474 14.1299C9.44784 14.1753 9.51021 14.2086 9.5775 14.2274C9.59548 14.2273 9.61332 14.2242 9.63025 14.2181C9.81092 14.1477 10.0871 13.6503 10.1773 13.5102C10.2675 13.3702 11.5633 11.8024 11.6438 11.743C11.8481 11.4371 12.0325 11.1183 12.1958 10.7887C12.2597 10.6685 12.457 10.1072 12.6252 9.70443C12.7397 9.84369 13.0523 10.1586 13.291 10.1586C13.3229 10.1587 13.3546 10.1531 13.3846 10.142C13.6484 10.0418 13.5571 9.4747 13.4709 9.12152C13.5645 9.12619 13.6575 9.13979 13.7486 9.16214C13.9272 9.22581 14.0777 9.35027 14.1738 9.51373C14.2442 9.6042 14.7567 9.6042 14.7567 9.73503C14.7336 9.92157 14.6757 10.1021 14.586 10.2673C14.3675 10.341 14.1419 10.3915 13.9129 10.4182C13.8291 10.6205 13.7739 10.8336 13.7489 11.0512C13.7638 11.2919 13.7638 11.5334 13.7489 11.7742C13.8146 12.1517 13.7951 12.5393 13.6916 12.9083C13.6217 13.1314 13.5048 13.3369 13.3487 13.511C13.3453 13.0848 13.3413 12.5153 13.3413 12.5153H13.2171C13.2171 12.5153 13.2271 13.8418 13.2271 13.962C13.2713 14.3622 13.3433 14.7588 13.4426 15.149C13.481 15.2171 13.5371 15.2736 13.6051 15.3122C13.7188 15.3943 13.8364 15.4797 13.8232 15.6472H13.3171C13.1976 15.4143 13.0269 15.0727 13.008 14.9997C12.9774 14.8878 12.8737 14.604 12.8687 14.5927C12.7991 14.373 12.6134 13.775 12.5968 13.6798C12.5616 13.5785 12.5115 13.4829 12.4483 13.3963C12.3216 13.2172 12.2257 13.0182 12.1647 12.8076C12.1624 12.7912 12.1537 12.7764 12.1405 12.7665C12.1273 12.7565 12.1107 12.7522 12.0943 12.7545C12.0779 12.7569 12.0631 12.7656 12.0532 12.7788C12.0433 12.792 12.039 12.8086 12.0413 12.825C12.1025 13.0534 12.2042 13.269 12.3414 13.4617C12.3932 13.5367 12.4374 13.6167 12.4733 13.7004C12.4807 13.7434 12.5155 13.8671 12.558 14.0106C12.4137 14.0768 12.2942 14.1308 12.2072 14.1812C12.1489 13.9697 12.0213 13.7839 11.8448 13.6537C11.3249 13.1995 10.4271 13.9372 10.3891 13.9702C10.3778 13.9811 10.371 13.9959 10.3701 14.0116C10.3692 14.0273 10.3743 14.0427 10.3842 14.0549C10.3942 14.067 10.4084 14.0749 10.424 14.0771C10.4395 14.0792 10.4553 14.0755 10.4682 14.0665C10.4764 14.0591 11.322 13.3644 11.7622 13.75C12.2024 14.1356 12.1594 14.3717 11.8899 14.7523C11.6388 15.1054 11.0079 15.2355 11.0013 15.2365C10.9857 15.2397 10.9719 15.2487 10.9627 15.2616C10.9535 15.2745 10.9494 15.2904 10.9514 15.3062C10.9537 15.3219 10.962 15.3362 10.9745 15.346C10.987 15.3558 11.0028 15.3604 11.0187 15.3589C11.2297 15.3415 11.8187 15.3167 12.002 15.4169C12.0474 15.4379 12.0867 15.4704 12.1159 15.511C12.1451 15.5517 12.1633 15.5993 12.1687 15.649H10.2643C10.2358 15.6525 10.2068 15.6497 10.1795 15.6408C10.1522 15.6319 10.1271 15.6172 10.1061 15.5976C10.0817 15.5526 10.068 15.5025 10.0662 15.4513C10.0643 15.4001 10.0742 15.3492 10.0953 15.3025C10.148 15.1102 10.4508 14.9227 10.5629 14.8665C10.5774 14.8588 10.5884 14.8458 10.5933 14.8301C10.5982 14.8144 10.5968 14.7975 10.5893 14.7829C10.5818 14.7682 10.5688 14.757 10.5532 14.7518C10.5376 14.7465 10.5205 14.7475 10.5057 14.7546C10.4875 14.7639 10.0546 14.9825 9.97419 15.2679C9.96839 15.2887 9.96417 15.3077 9.96021 15.3267C9.88109 15.2435 9.81413 15.1494 9.76134 15.0474C9.46106 14.9125 9.19876 14.7054 8.99775 14.4447C8.86119 14.271 8.78052 14.0599 8.7664 13.8394C8.75227 13.6189 8.80535 13.3993 8.91862 13.2095C8.99568 13.0487 9.11674 12.9131 9.26776 12.8183C9.41879 12.7236 9.59359 12.6735 9.77189 12.6741L9.77452 12.6762Z" fill="#2F6CAD"/>
<path d="M13.3404 10.0236C13.3244 10.0294 13.3075 10.0321 13.2905 10.0318C13.065 10.0318 12.672 9.59079 12.6839 9.56599C12.6866 9.4898 12.7054 9.41503 12.7389 9.34659C12.7725 9.27814 12.8202 9.21755 12.8788 9.16877C12.9921 9.10997 13.1175 9.0782 13.2451 9.07593C13.2979 9.07593 13.3356 9.08516 13.3404 9.10837C13.3404 9.10837 13.5514 9.94238 13.3404 10.022V10.0236Z" fill="#2F6CAD"/>
</svg>
