<svg width="22" height="23" viewBox="0 0 22 23" fill="none" xmlns="http://www.w3.org/2000/svg">
<path fill-rule="evenodd" clip-rule="evenodd" d="M6.01594 17.604H2.21594C2.116 17.604 2.01705 17.6237 1.92472 17.6619C1.83239 17.7002 1.7485 17.7562 1.67784 17.8269C1.60717 17.8976 1.55111 17.9814 1.51287 18.0738C1.47462 18.1661 1.45495 18.2651 1.45495 18.365V21.409C1.45495 21.6108 1.53512 21.8044 1.67784 21.9471C1.82055 22.0898 2.01411 22.17 2.21594 22.17H6.01594V17.604ZM10.5819 22.165H7.53895V17.604H10.5819V22.165ZM15.1469 22.165H12.1029V17.604H15.1469V22.165ZM16.6689 17.6V22.165H20.4689C20.6708 22.165 20.8643 22.0848 21.0071 21.9421C21.1498 21.7994 21.2299 21.6058 21.2299 21.404V18.365C21.2299 18.2651 21.2103 18.1661 21.172 18.0738C21.1338 17.9814 21.0777 17.8976 21.0071 17.8269C20.9364 17.7562 20.8525 17.7002 20.7602 17.6619C20.6678 17.6237 20.5689 17.604 20.4689 17.604L16.6689 17.6ZM11.9909 7.315C11.923 7.20347 11.8276 7.11128 11.7137 7.04732C11.5999 6.98335 11.4715 6.94975 11.3409 6.94975C11.2104 6.94975 11.082 6.98335 10.9681 7.04732C10.8543 7.11128 10.7589 7.20347 10.6909 7.315C9.99559 8.46552 9.37917 9.66194 8.84595 10.896C8.53863 11.5726 8.35279 12.298 8.29694 13.039C8.29694 13.8462 8.6176 14.6203 9.18837 15.1911C9.75914 15.7618 10.5333 16.0825 11.3404 16.0825C12.1476 16.0825 12.9218 15.7618 13.4925 15.1911C14.0633 14.6203 14.3839 13.8462 14.3839 13.039C14.3281 12.298 14.1422 11.5726 13.8349 10.896C13.3017 9.66193 12.6863 8.46551 11.9909 7.315ZM11.3419 0.864997C8.53677 0.862092 5.84441 1.96938 3.85294 3.945C3.83894 3.958 3.82394 3.971 3.80994 3.985C3.79594 3.999 3.78294 4.01299 3.76994 4.02799C1.79441 6.01953 0.687151 8.71184 0.689947 11.517C0.689947 11.7188 0.770117 11.9124 0.912832 12.0551C1.05555 12.1978 1.24911 12.278 1.45094 12.278H4.49394C4.59388 12.278 4.69284 12.2583 4.78517 12.2201C4.8775 12.1818 4.96138 12.1258 5.03205 12.0551C5.10271 11.9844 5.15878 11.9005 5.19702 11.8082C5.23526 11.7159 5.25494 11.6169 5.25494 11.517C5.25494 9.90262 5.89625 8.35437 7.03779 7.21284C8.17932 6.0713 9.72758 5.43 11.3419 5.43C12.9563 5.43 14.5046 6.0713 15.6461 7.21284C16.7876 8.35437 17.4289 9.90262 17.4289 11.517C17.4289 11.7188 17.5091 11.9124 17.6518 12.0551C17.7946 12.1978 17.9881 12.278 18.1899 12.278H21.2339C21.3339 12.278 21.4328 12.2583 21.5252 12.2201C21.6175 12.1818 21.7014 12.1258 21.7721 12.0551C21.8427 11.9844 21.8988 11.9005 21.937 11.8082C21.9753 11.7159 21.9949 11.6169 21.9949 11.517C21.9979 8.71182 20.8906 6.01947 18.9149 4.02799C18.9019 4.01399 18.8889 3.999 18.8749 3.985C18.8609 3.971 18.8469 3.958 18.8319 3.945C16.8402 1.96922 14.1475 0.861937 11.3419 0.864997ZM4.37195 5.623L5.45194 6.704C4.50408 7.8596 3.91921 9.26976 3.77094 10.757H2.24194C2.39806 8.86532 3.14355 7.07001 4.37195 5.623ZM18.3129 5.623C19.5413 7.07004 20.2858 8.86534 20.4419 10.757H18.9129C18.7653 9.26978 18.1808 7.85954 17.2329 6.704L18.3129 5.623ZM10.5819 2.423V3.951C9.09466 4.09909 7.68446 4.68398 6.52894 5.63199L5.44794 4.552C6.89506 3.32378 8.69032 2.57931 10.5819 2.423ZM12.1039 2.423C13.9956 2.57911 15.7909 3.3236 17.2379 4.552L16.1569 5.63199C15.0014 4.68398 13.5912 4.09909 12.1039 3.951V2.423Z" fill="#2F6CAD"/>
</svg>
