<svg width="12" height="16" viewBox="0 0 12 16" fill="none" xmlns="http://www.w3.org/2000/svg">
<path d="M9.56256 4.19072H11.0626C11.1277 4.19072 11.1883 4.15687 11.2224 4.09995C11.2564 4.04379 11.2595 3.9738 11.2307 3.91456L10.481 2.39072C10.4174 2.26149 10.2092 2.26149 10.1456 2.39072L9.39597 3.91456C9.3672 3.97379 9.37022 4.04379 9.4043 4.09995C9.43837 4.1561 9.49895 4.19072 9.56407 4.19072H9.56256ZM10.3122 2.90226L10.7589 3.80995H9.86544L10.3122 2.90226ZM11.8122 1.5238H8.81209C8.70836 1.5238 8.62431 1.60919 8.62431 1.71457V4.76233C8.62431 4.86772 8.70836 4.9531 8.81209 4.9531H11.8122C11.916 4.9531 12 4.86772 12 4.76233V1.71457C12 1.60919 11.916 1.5238 11.8122 1.5238ZM11.6244 4.57156H8.9992V1.90465H11.6244V4.57156ZM10.1441 8.27606C10.1759 8.34068 10.241 8.38145 10.3122 8.38145C10.3834 8.38145 10.4485 8.34068 10.4803 8.27606L11.2299 6.75222C11.2587 6.69299 11.2557 6.62299 11.2216 6.56684C11.1875 6.51068 11.127 6.47607 11.0618 6.47607H9.56181C9.49669 6.47607 9.43612 6.50991 9.40204 6.56684C9.36797 6.62299 9.36494 6.69299 9.39371 6.75222L10.1433 8.27606H10.1441ZM10.7582 6.85761L10.3114 7.76531L9.8647 6.85761H10.7582ZM11.8115 5.71454H8.81135C8.70761 5.71454 8.62356 5.79992 8.62356 5.90531V8.95307C8.62356 9.05845 8.70761 9.14384 8.81135 9.14384H11.8115C11.9152 9.14384 11.9993 9.05845 11.9993 8.95307V5.90531C11.9993 5.79992 11.9152 5.71454 11.8115 5.71454ZM11.6237 8.7623H8.99846V6.09539H11.6237V8.7623ZM7.49849 10.1438L7.50001 1.90461C7.50001 0.854622 6.65876 0 5.62517 0C4.59159 0 3.75033 0.854602 3.75033 1.90461V10.1438C2.90529 10.7684 2.4169 11.7654 2.43886 12.8308C2.47369 14.5262 3.80637 15.917 5.47213 15.9962C5.52437 15.9985 5.57587 16 5.62735 16C6.45119 16 7.22657 15.6854 7.82554 15.1046C8.46236 14.4877 8.81295 13.6554 8.81295 12.7616C8.81295 11.724 8.3238 10.7532 7.50072 10.1432L7.49849 10.1438ZM7.56437 14.8292C7.00253 15.373 6.26501 15.6538 5.48733 15.6153C4.04184 15.5469 2.84175 14.2938 2.81132 12.8222C2.79163 11.8522 3.25125 10.9468 4.04102 10.3991C4.09251 10.3637 4.1228 10.3045 4.1228 10.2414L4.12507 1.9045C4.12507 1.06451 4.79824 0.380654 5.6251 0.380654C6.45196 0.380654 7.12512 1.06451 7.12512 1.9045V10.2422C7.12512 10.3053 7.15616 10.3637 7.20689 10.3999C7.97773 10.9337 8.43736 11.8168 8.43736 12.7621C8.43736 13.5506 8.12765 14.2852 7.56582 14.8298L7.56437 14.8292ZM6.37329 10.8092L6.37481 1.90461C6.37481 1.48462 6.03861 1.14307 5.62518 1.14307C5.21175 1.14307 4.87554 1.48462 4.87554 1.90461V10.8092C4.00929 11.1531 3.46866 12.0561 3.57694 13.01C3.68598 13.9654 4.44773 14.7369 5.38969 14.8431C5.46693 14.8516 5.54341 14.8562 5.62064 14.8562C6.12872 14.8562 6.62167 14.6677 7.00027 14.3231C7.43717 13.9254 7.68781 13.357 7.68781 12.7616C7.68781 11.8893 7.1661 11.1216 6.37558 10.8093L6.37329 10.8092ZM5.62366 1.52317C5.83038 1.52317 5.99848 1.69394 5.99848 1.90394V9.33243H5.24884L5.25036 1.90473C5.25036 1.69473 5.41846 1.52396 5.62518 1.52396L5.62366 1.52317ZM6.74887 14.0393C6.38617 14.3686 5.91821 14.5201 5.42982 14.4647C4.65973 14.3778 4.03732 13.7478 3.94798 12.9663C3.85484 12.1463 4.34627 11.3717 5.11786 11.1255C5.19586 11.1009 5.24886 11.027 5.24886 10.944V9.71397H5.99849V10.944C5.99849 11.027 6.0515 11.1009 6.12949 11.1255C6.83595 11.3509 7.31073 12.0086 7.31073 12.7609C7.31073 13.2478 7.10553 13.7139 6.74814 14.0386L6.74887 14.0393ZM0 2.66709C0 2.56171 0.0840487 2.47632 0.187786 2.47632H2.43734C2.54108 2.47632 2.62513 2.56171 2.62513 2.66709C2.62513 2.77248 2.54108 2.85786 2.43734 2.85786H0.187786C0.0840487 2.85786 0 2.77248 0 2.66709ZM2.62523 4.38169C2.62523 4.48708 2.54118 4.57246 2.43744 4.57246H1.31224C1.2085 4.57246 1.12445 4.48708 1.12445 4.38169C1.12445 4.27631 1.2085 4.19092 1.31224 4.19092H2.43744C2.54118 4.19092 2.62523 4.27631 2.62523 4.38169ZM0 6.09629C0 5.99091 0.0840487 5.90552 0.187786 5.90552H2.43734C2.54108 5.90552 2.62513 5.99091 2.62513 6.09629C2.62513 6.20168 2.54108 6.28706 2.43734 6.28706H0.187786C0.0840487 6.28706 0 6.20168 0 6.09629ZM2.62523 7.81089C2.62523 7.91628 2.54118 8.00166 2.43744 8.00166H1.31224C1.2085 8.00166 1.12445 7.91628 1.12445 7.81089C1.12445 7.70551 1.2085 7.62012 1.31224 7.62012H2.43744C2.54118 7.62012 2.62523 7.70551 2.62523 7.81089ZM2.43744 9.7155H0.187883C0.0841456 9.7155 9.68687e-05 9.63012 9.68687e-05 9.52473C9.68687e-05 9.41935 0.0841456 9.33397 0.187883 9.33397H2.43744C2.54118 9.33397 2.62523 9.41935 2.62523 9.52473C2.62523 9.63012 2.54118 9.7155 2.43744 9.7155Z" fill="#2F6CAD"/>
</svg>
