<svg width="12" height="12" viewBox="0 0 12 12" fill="none" xmlns="http://www.w3.org/2000/svg">
<path d="M6 0C2.6915 0 0 2.6915 0 6C0 9.30849 2.6915 12 6 12C9.3085 12 12 9.30849 12 6C12 2.6915 9.3085 0 6 0ZM6 0.878049C8.83396 0.878049 11.122 3.16604 11.122 6C11.122 8.83396 8.83396 11.122 6 11.122C3.16604 11.122 0.878049 8.83396 0.878049 6C0.878049 3.16604 3.16604 0.878049 6 0.878049ZM6 1.60976C5.75754 1.60976 5.56098 1.80632 5.56098 2.04878V6C5.56098 6.16235 5.64945 6.30361 5.78049 6.37956L8.94969 8.20883C9.15966 8.33006 9.42755 8.25877 9.54878 8.04878C9.67001 7.83881 9.59871 7.57092 9.38871 7.44969L6.43902 5.74847V2.04878C6.43902 1.80632 6.24247 1.60976 6 1.60976Z" fill="#2F6CAD"/>
</svg>
