<svg width="24" height="25" viewBox="0 0 24 25" fill="none" xmlns="http://www.w3.org/2000/svg">
<circle cx="12" cy="12.5" r="11.5" stroke="#2F6CAD"/>
<path d="M16 15C15.5389 14.9999 15.092 15.1591 14.7348 15.4507C14.3777 15.7422 14.1322 16.1483 14.04 16.6H8.4C7.97565 16.6 7.56869 16.4314 7.26863 16.1314C6.96857 15.8313 6.8 15.4243 6.8 15C6.8 14.5757 6.96857 14.1687 7.26863 13.8686C7.56869 13.5686 7.97565 13.4 8.4 13.4H15.6C16.2365 13.4 16.847 13.1471 17.2971 12.6971C17.7471 12.247 18 11.6365 18 11C18 10.3635 17.7471 9.75303 17.2971 9.30295C16.847 8.85286 16.2365 8.6 15.6 8.6H9.96C9.86087 8.11439 9.58496 7.68287 9.18576 7.38913C8.78656 7.09538 8.29251 6.96032 7.79939 7.01013C7.30627 7.05995 6.84921 7.29109 6.51683 7.65874C6.18444 8.0264 6.00041 8.50437 6.00041 9C6.00041 9.49563 6.18444 9.97361 6.51683 10.3413C6.84921 10.7089 7.30627 10.9401 7.79939 10.9899C8.29251 11.0397 8.78656 10.9046 9.18576 10.6109C9.58496 10.3171 9.86087 9.88562 9.96 9.4H15.6C15.917 9.39896 16.2271 9.49209 16.4911 9.66758C16.755 9.84307 16.9609 10.093 17.0826 10.3857C17.2043 10.6784 17.2364 11.0006 17.1746 11.3115C17.1129 11.6224 16.9603 11.908 16.736 12.132C16.5868 12.281 16.4097 12.3991 16.2147 12.4794C16.0198 12.5597 15.8109 12.6007 15.6 12.6H8.4C7.76348 12.6 7.15303 12.8529 6.70294 13.3029C6.25286 13.753 6 14.3635 6 15C6 15.6365 6.25286 16.247 6.70294 16.6971C7.15303 17.1471 7.76348 17.4 8.4 17.4H14.04C14.1157 17.7708 14.295 18.1125 14.5571 18.3854C14.8192 18.6583 15.1534 18.8513 15.5208 18.9418C15.8882 19.0324 16.2738 19.0169 16.6328 18.8971C16.9917 18.7773 17.3093 18.5582 17.5487 18.2651C17.788 17.972 17.9393 17.617 17.985 17.2413C18.0306 16.8657 17.9688 16.4848 17.8066 16.1429C17.6445 15.801 17.3886 15.5121 17.0688 15.3098C16.749 15.1075 16.3784 15.0001 16 15ZM8 10.2C7.76266 10.2 7.53065 10.1296 7.33332 9.99777C7.13598 9.86591 6.98217 9.6785 6.89134 9.45922C6.80052 9.23995 6.77676 8.99867 6.82306 8.7659C6.86936 8.53312 6.98365 8.3193 7.15147 8.15148C7.31929 7.98365 7.53311 7.86936 7.76589 7.82306C7.99867 7.77676 8.23995 7.80052 8.45922 7.89135C8.67849 7.98217 8.86591 8.13598 8.99776 8.33332C9.12962 8.53066 9.2 8.76267 9.2 9C9.2 9.31826 9.07357 9.62349 8.84853 9.84853C8.62348 10.0736 8.31826 10.2 8 10.2ZM16 18.2C15.7627 18.2 15.5307 18.1296 15.3333 17.9978C15.136 17.8659 14.9822 17.6785 14.8913 17.4592C14.8005 17.24 14.7768 16.9987 14.8231 16.7659C14.8694 16.5331 14.9836 16.3193 15.1515 16.1515C15.3193 15.9837 15.5331 15.8694 15.7659 15.8231C15.9987 15.7768 16.2399 15.8005 16.4592 15.8913C16.6785 15.9822 16.8659 16.136 16.9978 16.3333C17.1296 16.5307 17.2 16.7627 17.2 17C17.2 17.3183 17.0736 17.6235 16.8485 17.8485C16.6235 18.0736 16.3183 18.2 16 18.2Z" fill="#2F6CAD"/>
</svg>
