<svg width="24" height="24" viewBox="0 0 24 24" fill="none" xmlns="http://www.w3.org/2000/svg">
<circle cx="12" cy="12" r="11.5" stroke="#2F6CAD"/>
<path d="M10.4535 12.9893L10.4889 13.0129L10.5242 13.0247C10.5832 13.0482 10.7129 13.2133 10.7954 13.3666C10.9369 13.732 11.1845 13.8264 11.3495 13.8264C11.3731 13.8264 11.3967 13.8264 11.4203 13.8146L11.4674 13.8028C11.5853 13.7556 11.6796 13.6849 11.7622 13.6024C12.0098 14.0268 12.4578 14.3098 12.9765 14.3098C13.7547 14.3098 14.3913 13.6731 14.3913 12.895C14.3913 12.5766 14.2852 12.2819 14.1084 12.0461C14.1909 11.9871 14.297 11.8692 14.2734 11.6334C14.2027 11.0557 13.4128 9.74705 13.0709 9.20472C13.0237 8.94534 12.894 8.29689 12.8586 8.15541C12.7997 7.90782 12.6464 7.73098 12.4342 7.66024C12.4224 7.66024 12.4224 7.64845 10.5007 7.12969C10.2177 7 9.99369 7 9.9819 7H9.93474L9.88758 7.02358C8.63785 7.56592 7.90687 7.7074 7.90687 7.7074C7.55317 7.77813 6.95189 7.75456 6.59819 7.73098C6.55103 7.51876 6.36239 7.3537 6.13838 7.3537H4.95939C4.70001 7.3537 4.48779 7.56592 4.48779 7.82529V10.8907C4.48779 11.1501 4.70001 11.3623 4.95939 11.3623H6.13838C6.32702 11.3623 6.48029 11.2562 6.56282 11.0911L6.73967 11.1618C7.19948 11.5863 7.81255 11.7631 8.39026 11.94C8.77933 12.0579 9.1566 12.164 9.46314 12.3408C9.85221 12.5531 10.1705 12.7653 10.4535 12.9893ZM11.7268 12.2347C11.5971 11.9753 11.4556 11.7867 11.4203 11.7513C11.1727 11.3859 10.5124 10.8553 10.4771 10.8435C10.1587 10.5959 9.88758 10.1007 9.9819 9.71168C9.99369 9.67631 10.0173 9.64094 10.0408 9.62915C10.0526 9.61736 10.0644 9.61736 10.0762 9.62915C10.088 9.64094 11.55 10.3248 12.0098 10.5016C12.0333 10.5488 12.0687 10.6195 12.0805 10.6549C12.1041 10.702 12.1159 10.7256 12.1277 10.7374C12.2102 10.8789 12.3045 11.0204 12.4224 11.1501C12.5167 11.2797 12.6228 11.3859 12.729 11.492C12.3045 11.5745 11.9272 11.8574 11.7268 12.2347ZM12.0451 10.5134C12.1041 10.537 12.1395 10.5488 12.163 10.5488C12.1041 10.5488 12.0687 10.5252 12.0451 10.5134ZM12.9765 13.8382C12.4578 13.8382 12.0333 13.4137 12.0333 12.895C12.0333 12.3762 12.4578 11.9518 12.9765 11.9518C13.4953 11.9518 13.9197 12.3762 13.9197 12.895C13.9197 13.4137 13.4953 13.8382 12.9765 13.8382ZM12.3988 8.27331C12.4106 8.32047 12.4342 8.46195 12.4696 8.62701L11.5028 7.90782C11.8919 8.01393 12.2102 8.09646 12.2691 8.12004C12.3163 8.13183 12.3635 8.15541 12.3988 8.27331ZM4.95939 10.8907V7.82529H6.05585L6.02048 10.8671L6.07943 10.8907H4.95939ZM7.03442 10.7964L6.99905 10.761L6.60998 10.5959V8.20257C6.98726 8.22615 7.60033 8.24973 7.9894 8.1672C8.02477 8.15541 8.75575 8.01393 10.0173 7.4716C10.1116 7.48339 10.371 7.54234 10.6186 7.8135L12.5521 9.26367C12.5757 9.29904 12.5993 9.3344 12.6228 9.36977C12.6228 9.38156 12.6228 9.38156 12.6228 9.39335H12.6346C13.0001 9.98285 13.6957 11.1383 13.79 11.6216C13.6839 11.5981 13.5189 11.5273 13.4363 11.4566C13.2123 11.3033 13.0001 11.0911 12.7997 10.8435C12.7054 10.7256 12.6228 10.6077 12.5521 10.4898C12.5521 10.478 12.5403 10.4662 12.5285 10.4427C12.446 10.2658 12.387 10.1243 12.2574 10.0772C12.1277 10.0182 10.5242 9.29903 10.3002 9.19293C10.1587 9.12219 9.99369 9.12219 9.85221 9.19293C9.68715 9.27545 9.56925 9.42872 9.53388 9.60557C9.40419 10.2069 9.76968 10.8553 10.2059 11.1972C10.3828 11.3387 10.8779 11.7513 11.0548 12.0225C11.1963 12.2111 11.5853 12.8242 11.491 13.1661C11.4792 13.2133 11.4438 13.2958 11.3377 13.3548C11.3142 13.343 11.267 13.2958 11.2316 13.2015L11.2198 13.1779C11.1845 13.0954 10.9958 12.7181 10.7129 12.5884C10.4181 12.3526 10.0762 12.1286 9.68715 11.9164C9.32166 11.716 8.90901 11.5981 8.51995 11.4802C7.95403 11.3269 7.41169 11.1618 7.03442 10.7964Z" fill="#2F6CAD"/>
<path d="M13.2123 12.6828C13.2359 12.7417 13.2949 12.7771 13.3656 12.7535C13.4246 12.73 13.4599 12.671 13.4363 12.6003C13.3892 12.4588 13.2477 12.3527 13.0827 12.3173V12.3055C13.0827 12.2348 13.0355 12.1876 12.9648 12.1876C12.894 12.1876 12.8469 12.2348 12.8469 12.3055V12.3291C12.7525 12.3527 12.6582 12.3881 12.5993 12.4706C12.5167 12.5767 12.5167 12.7182 12.5993 12.8361C12.6582 12.9304 12.7525 12.9658 12.8586 13.0011V13.2133C12.7997 13.1898 12.7525 13.1544 12.729 13.0954C12.7054 13.0365 12.6346 13.0011 12.5757 13.0247C12.5167 13.0483 12.4814 13.119 12.5049 13.178C12.5639 13.3195 12.6936 13.4138 12.8469 13.4491V13.4845C12.8469 13.5553 12.894 13.6024 12.9648 13.6024C13.0355 13.6024 13.0827 13.5553 13.0827 13.4845V13.4727C13.118 13.4727 13.1416 13.4609 13.177 13.4491C13.3656 13.3784 13.4481 13.2133 13.3892 13.0601C13.3302 12.9186 13.2006 12.8596 13.0827 12.8243V12.5767C13.1534 12.5885 13.2006 12.6356 13.2123 12.6828ZM12.7997 12.7064C12.7879 12.6828 12.7761 12.6474 12.7997 12.6121C12.8115 12.5885 12.8351 12.5767 12.8586 12.5649V12.7417C12.8351 12.73 12.8115 12.7182 12.7997 12.7064ZM13.177 13.1308C13.1888 13.1662 13.1416 13.2016 13.0944 13.2251C13.0944 13.2251 13.0944 13.2251 13.0827 13.2251V13.0719C13.1416 13.0837 13.1652 13.1072 13.177 13.1308Z" fill="#2F6CAD"/>
<path d="M19.1074 13.6023H17.9284C17.7161 13.6023 17.5393 13.7438 17.4803 13.9324C17.3035 13.9442 17.0559 13.956 16.8791 13.9206C16.6904 13.8381 15.8533 13.4844 15.0516 13.9442L15.028 13.956C15.028 13.956 14.5329 14.3333 14.2027 14.463C13.9434 14.5691 13.5071 14.7223 13.3539 14.7223C13.0945 14.7223 11.998 14.7341 11.7033 15.2765C11.2671 15.1468 10.2885 14.8756 10.2413 14.8638C9.93479 14.7813 9.67541 14.7577 9.42782 14.8167C9.2274 14.8638 8.82654 15.0525 8.85012 15.3826C8.86191 15.4651 8.89728 15.5948 9.06234 15.7127C9.22739 15.8188 9.39245 15.9131 9.55751 16.0074L9.62825 16.0428C9.65183 16.0546 12.6583 17.5755 13.2595 17.8231C13.3303 17.8702 13.6015 17.9999 13.9552 17.9999C14.2145 17.9999 14.5329 17.9292 14.8394 17.6816C14.8512 17.6698 15.5586 17.0803 16.207 16.7974C16.431 16.7148 17.0323 16.5262 17.4568 16.538V16.6677C17.4568 16.9271 17.669 17.1393 17.9284 17.1393H19.1074C19.3667 17.1393 19.5789 16.9271 19.5789 16.6677V14.0739C19.5789 13.8145 19.3667 13.6023 19.1074 13.6023ZM16.0184 16.3611C15.2992 16.6795 14.5564 17.2925 14.5211 17.3161C14.0023 17.7288 13.4836 17.4222 13.4718 17.4104L13.4364 17.3869C12.9294 17.1864 9.95837 15.6891 9.84047 15.6302L9.76973 15.5948C9.62825 15.5123 9.48677 15.4415 9.35708 15.3472C9.40424 15.3236 9.46319 15.2883 9.52214 15.2765C9.6872 15.2411 9.87584 15.2529 10.1116 15.3236C10.147 15.3354 11.1374 15.6184 11.5736 15.7363C11.5972 15.8542 11.6561 16.0192 11.8094 16.1725C11.9862 16.3493 12.2456 16.4319 12.5757 16.4319C12.6465 16.4319 12.7172 16.4319 12.7997 16.4201H12.8115C12.9059 16.4083 13.0002 16.3965 13.0945 16.3847C13.3303 16.3729 13.5779 16.3493 13.8019 16.3258C13.908 16.314 14.0141 16.3022 14.1202 16.2904C14.4857 16.255 14.8512 16.1843 15.1931 16.09C15.4289 16.0192 15.6647 15.9367 15.8887 15.8306C16.0066 15.7716 16.0538 15.6302 15.9948 15.5123C15.9359 15.3944 15.7944 15.3472 15.6765 15.4062C15.4761 15.5005 15.2638 15.583 15.0516 15.642C14.7333 15.7363 14.3914 15.7952 14.0613 15.8306C13.9552 15.8424 13.849 15.8542 13.7429 15.866C13.5189 15.8895 13.2831 15.9131 13.0591 15.9249C12.953 15.9367 12.8351 15.9485 12.729 15.9603C12.446 15.9839 12.2338 15.9485 12.1159 15.8424C12.0688 15.7952 12.0452 15.7481 12.0334 15.7127L12.0688 15.583L12.0806 15.5476C12.1159 15.3472 12.7644 15.1939 13.3303 15.2057H13.3421H13.3539C13.6486 15.1939 14.2499 14.9581 14.3678 14.911C14.7333 14.7695 15.2049 14.4158 15.2992 14.3569C15.9477 13.9914 16.6904 14.3686 16.6904 14.3686L16.7258 14.3804L16.7612 14.3922C16.9852 14.4276 17.2563 14.4276 17.4568 14.4158V16.0664C16.8437 16.0428 16.1245 16.314 16.0184 16.3611ZM19.1074 16.6677H17.9284V16.6323V14.0739H19.1074V16.6677Z" fill="#2F6CAD"/>
</svg>
