<svg width="16" height="16" viewBox="0 0 16 16" fill="none" xmlns="http://www.w3.org/2000/svg">
<path d="M11.333 1.33301H4.66601C3.7838 1.33142 2.93709 1.68028 2.31206 2.30287C1.68703 2.92546 1.33486 3.77081 1.33301 4.65301V9.30601C1.33486 10.1882 1.68703 11.0336 2.31206 11.6562C2.93709 12.2787 3.7838 12.6276 4.66601 12.626H5.66601C5.76819 12.6326 5.868 12.6597 5.95955 12.7055C6.0511 12.7514 6.13252 12.8151 6.19901 12.893L7.19901 14.22C7.28444 14.3549 7.40258 14.466 7.54244 14.5429C7.68231 14.6199 7.83936 14.6603 7.99901 14.6603C8.15865 14.6603 8.31571 14.6199 8.45557 14.5429C8.59544 14.466 8.71358 14.3549 8.79901 14.22L9.79901 12.893C9.86163 12.8106 9.94235 12.7437 10.0349 12.6974C10.1275 12.6511 10.2295 12.6267 10.333 12.626H11.333C12.2152 12.6276 13.0619 12.2787 13.687 11.6562C14.312 11.0336 14.6642 10.1882 14.666 9.30601V4.65301C14.6642 3.77081 14.312 2.92546 13.687 2.30287C13.0619 1.68028 12.2152 1.33142 11.333 1.33301ZM5.33301 8.00001C5.20109 8.00001 5.07213 7.96089 4.96244 7.8876C4.85275 7.81431 4.76726 7.71014 4.71678 7.58826C4.6663 7.46638 4.65309 7.33227 4.67882 7.20289C4.70456 7.0735 4.76809 6.95465 4.86137 6.86137C4.95465 6.76809 5.0735 6.70457 5.20288 6.67883C5.33227 6.65309 5.46638 6.6663 5.58826 6.71679C5.71014 6.76727 5.81431 6.85276 5.8876 6.96245C5.96089 7.07214 6.00001 7.20109 6.00001 7.33301C6.0004 7.42072 5.98342 7.50763 5.95004 7.58873C5.91667 7.66984 5.86755 7.74352 5.80553 7.80554C5.74352 7.86755 5.66983 7.91667 5.58873 7.95005C5.50762 7.98343 5.42071 8.00041 5.33301 8.00001ZM8.00001 8.00001C7.86804 8.00021 7.73899 7.96126 7.62917 7.88809C7.51935 7.81492 7.4337 7.71082 7.38307 7.58896C7.33243 7.4671 7.31908 7.33295 7.3447 7.2035C7.37033 7.07405 7.43377 6.95511 7.52701 6.86173C7.62026 6.76835 7.7391 6.70472 7.86851 6.6789C7.99793 6.65309 8.13209 6.66624 8.25403 6.71669C8.37596 6.76714 8.48019 6.85263 8.55353 6.96234C8.62686 7.07205 8.66601 7.20105 8.66601 7.33301C8.6664 7.42063 8.64946 7.50746 8.61614 7.5885C8.58282 7.66954 8.5338 7.74318 8.47189 7.80518C8.40998 7.86719 8.33641 7.91632 8.25542 7.94976C8.17443 7.9832 8.08763 8.00028 8.00001 8.00001ZM10.667 8.00001C10.535 8.00021 10.406 7.96126 10.2962 7.88809C10.1864 7.81492 10.1007 7.71082 10.0501 7.58896C9.99943 7.4671 9.98608 7.33295 10.0117 7.2035C10.0373 7.07405 10.1008 6.95511 10.194 6.86173C10.2873 6.76835 10.4061 6.70472 10.5355 6.6789C10.6649 6.65309 10.7991 6.66624 10.921 6.71669C11.043 6.76714 11.1472 6.85263 11.2205 6.96234C11.2939 7.07205 11.333 7.20105 11.333 7.33301C11.3334 7.42072 11.3164 7.50763 11.283 7.58873C11.2497 7.66984 11.2005 7.74352 11.1385 7.80554C11.0765 7.86755 11.0028 7.91667 10.9217 7.95005C10.8406 7.98343 10.7547 8.00041 10.667 8.00001Z" fill="#008080"/>
</svg>
