<svg width="55" height="43" viewBox="0 0 55 43" fill="none" xmlns="http://www.w3.org/2000/svg">
<path d="M54.7676 27.6109C54.7654 30.5033 53.6154 33.2767 51.5701 35.3219C49.5248 37.3672 46.7515 38.5172 43.859 38.5195H34.7691V34.882H43.859C45.298 34.8792 46.704 34.4504 47.8996 33.6495C49.0951 32.8486 50.0267 31.7116 50.5769 30.3819C51.127 29.0522 51.271 27.5893 50.9907 26.1779C50.7105 24.7664 50.0185 23.4695 49.002 22.4509C48.3366 21.8057 47.5627 21.2827 46.7159 20.9058L45.5498 20.383L45.6439 19.1125C45.6599 18.915 45.6759 18.7241 45.6759 18.5191C45.6757 17.1308 45.2782 15.7715 44.5303 14.6018C43.7824 13.4321 42.7153 12.501 41.4552 11.9183C40.195 11.3356 38.7944 11.1258 37.4188 11.3137C36.0433 11.5015 34.7502 12.0791 33.6924 12.9783L31.4947 14.8497L30.7564 12.0586C30.0683 9.50628 28.4767 7.29071 26.2777 5.82374C24.0787 4.35677 21.4218 3.73821 18.8009 4.08306C16.1801 4.42791 13.7736 5.7127 12.0289 7.69858C10.2842 9.68447 9.31992 12.2363 9.31539 14.8798C9.31009 16.0789 9.50917 17.2702 9.90408 18.4025L10.5135 20.1319L8.77937 20.7272C7.14771 21.2823 5.76638 22.3991 4.88187 23.8784C3.99735 25.3576 3.6672 27.103 3.95033 28.8031C4.23345 30.5032 5.11143 32.0474 6.4276 33.1602C7.74376 34.2729 9.41249 34.8818 11.136 34.8783H20.224V38.5195H11.1341C8.69964 38.5204 6.33479 37.707 4.416 36.2087C2.49721 34.7104 1.13476 32.6133 0.545503 30.2512C-0.0437495 27.8891 0.174068 25.3978 1.16429 23.1738C2.1545 20.9498 3.86021 19.121 6.00989 17.9784C5.24683 14.4745 5.80473 10.8123 7.57651 7.69468C9.34829 4.57701 12.2091 2.22357 15.6099 1.08606C19.0106 -0.0514513 22.7117 0.107129 26.0027 1.53136C29.2936 2.95559 31.9427 5.54512 33.4413 8.80291C35.0768 7.96693 36.897 7.55748 38.733 7.61253C40.569 7.66757 42.3613 8.18534 43.9439 9.1178C45.5264 10.0503 46.8478 11.3672 47.7857 12.9466C48.7235 14.526 49.2473 16.3166 49.3086 18.1523C50.1292 18.6293 50.8873 19.2065 51.5656 19.8704C52.5808 20.8864 53.3857 22.0926 53.9344 23.42C54.483 24.7474 54.7645 26.1699 54.7629 27.6062L54.7676 27.6109ZM36.0123 27.1924L27.497 19.2272L18.9817 27.1924L21.4681 29.849L25.6792 25.9059V42.1541H29.3158V25.9059L33.5269 29.8462L36.0123 27.1924Z" fill="#2F6CAD"/>
</svg>
