<svg width="17" height="24" viewBox="0 0 17 24" fill="none" xmlns="http://www.w3.org/2000/svg">
<path d="M1.1272 4.76305H5.6362V0.930054H1.1272V4.76305ZM4.7352 2.50805V3.18405H3.83519V2.50805H4.7352ZM2.9352 2.50805V3.18405H2.0352V2.50805H2.9352Z" fill="#008080"/>
<path d="M7.89227 23.4031C6.57773 23.4588 5.29455 22.9921 4.32291 22.1049C3.35126 21.2178 2.7701 19.9822 2.7063 18.6681V16.9391H4.0593V18.6681C4.12385 19.623 4.56265 20.514 5.28036 21.1472C5.99808 21.7805 6.93669 22.1049 7.89227 22.0501C8.90852 22.049 9.88287 21.6448 10.6015 20.9262C11.3201 20.2076 11.7242 19.2333 11.7253 18.2171V13.1061C11.7266 11.7318 12.2727 10.4142 13.2439 9.44188C14.215 8.46959 15.532 7.92198 16.9063 7.91907V9.27206C15.89 9.27312 14.9157 9.67729 14.1971 10.3959C13.4785 11.1145 13.0743 12.0888 13.0733 13.1051V18.2191C13.0719 19.5941 12.5252 20.9124 11.5529 21.8847C10.5806 22.8569 9.26231 23.4037 7.8873 23.4051L7.89227 23.4031Z" fill="#008080"/>
<path d="M5.72424 5.66504H0.000244141V10.556C0.0193606 11.243 0.135848 11.9238 0.346237 12.578L1.38724 15.537C1.44374 15.6775 1.53895 15.7991 1.6618 15.8876C1.78465 15.9761 1.9301 16.0279 2.08124 16.037H4.68124C4.83238 16.0279 4.97783 15.9761 5.10068 15.8876C5.22353 15.7991 5.31874 15.6775 5.37524 15.537L6.41624 12.582C6.62648 11.926 6.74296 11.2436 6.76224 10.555V5.66504H5.72424ZM4.78024 9.34604H4.56424V9.54104C4.57082 9.77684 4.51772 10.0105 4.40985 10.2203C4.30198 10.4301 4.14286 10.6092 3.94725 10.741C3.80335 10.8256 3.68246 10.9442 3.59526 11.0866C3.50806 11.2289 3.45724 11.3904 3.44725 11.557V12.669C3.56543 12.7039 3.6698 12.7747 3.7458 12.8717C3.82181 12.9687 3.86566 13.087 3.87125 13.21C3.87125 13.3605 3.81146 13.5049 3.70503 13.6113C3.59861 13.7177 3.45425 13.7775 3.30374 13.7775C3.15323 13.7775 3.00889 13.7177 2.90247 13.6113C2.79604 13.5049 2.73624 13.3605 2.73624 13.21C2.74244 13.0872 2.78669 12.9694 2.86284 12.8728C2.93898 12.7762 3.04325 12.7057 3.16124 12.671V12.377C3.15526 12.2054 3.10568 12.0382 3.01715 11.891C2.92862 11.7439 2.80407 11.6217 2.65524 11.536C2.46111 11.4033 2.30355 11.2237 2.19711 11.014C2.09068 10.8043 2.03879 10.5711 2.04625 10.336V9.89304C1.97903 9.8624 1.92133 9.81417 1.87926 9.75344C1.83719 9.69271 1.81231 9.62175 1.80725 9.54804C1.80459 9.4959 1.81255 9.44376 1.83067 9.39479C1.8488 9.34583 1.87669 9.30106 1.91266 9.26321C1.94862 9.22537 1.99191 9.19523 2.03989 9.17464C2.08786 9.15404 2.13953 9.14342 2.19174 9.14342C2.24395 9.14342 2.29562 9.15404 2.3436 9.17464C2.39158 9.19523 2.43486 9.22537 2.47083 9.26321C2.50679 9.30106 2.53469 9.34583 2.55281 9.39479C2.57093 9.44376 2.57891 9.4959 2.57625 9.54804C2.57292 9.6209 2.54972 9.69146 2.50919 9.75209C2.46865 9.81272 2.41229 9.86112 2.34624 9.89204V10.397C2.34569 10.5867 2.39421 10.7734 2.48708 10.9388C2.57994 11.1042 2.71401 11.2427 2.87625 11.341C2.97621 11.4147 3.07201 11.4938 3.16324 11.578V7.94604H2.83824L3.30424 7.01604L3.77124 7.94604H3.44725V10.775C3.53786 10.6865 3.63297 10.6027 3.73224 10.524C3.89685 10.427 4.03366 10.2891 4.12947 10.1237C4.22528 9.95838 4.27688 9.77113 4.27925 9.58004V9.34404H4.06325V8.58004H4.78424L4.78024 9.34604Z" fill="#008080"/>
</svg>
