<svg width="22" height="13" viewBox="0 0 22 13" fill="none" xmlns="http://www.w3.org/2000/svg">
<path d="M14.5475 0.882812H1.22702C0.755356 0.882812 0.372559 1.22193 0.372559 1.64203V11.5746C0.372559 11.9947 0.755356 12.3338 1.22702 12.3338H14.5475C14.7742 12.3338 14.9918 12.2538 15.1513 12.1121C15.312 11.9694 15.402 11.776 15.402 11.5746V1.64204C15.402 1.4406 15.312 1.24726 15.1513 1.10452C14.9918 0.962798 14.7742 0.882812 14.5475 0.882812Z" fill="white"/>
<path d="M21.1223 2.53901C20.677 2.2383 20.1263 2.2383 19.681 2.53901L16.8333 4.43558V9.49897L19.681 11.3955V11.3944C20.1273 11.6917 20.6761 11.6917 21.1223 11.3944C21.5686 11.0982 21.843 10.5486 21.843 9.95509V3.97831C21.846 3.38366 21.5706 2.83295 21.1223 2.53901Z" fill="white"/>
</svg>
