<svg width="17" height="22" viewBox="0 0 17 22" fill="none" xmlns="http://www.w3.org/2000/svg">
<path d="M16.9999 9.81543H14.9691C14.9691 12.8008 12.5391 15.2308 9.55371 15.2308H8.19986C5.21451 15.2308 2.78444 12.8008 2.78444 9.81543H0.753662C0.753662 13.8096 3.91088 17.0751 7.8614 17.2511V19.9694H4.1383V22.0002H13.6153V19.9694H9.89218V17.2511C13.8427 17.0753 16.9999 13.8056 16.9999 9.81543Z" fill="white"/>
<path d="M8.87699 13.5385C11.118 13.5385 12.9386 11.718 12.9386 9.47698V4.06156C12.9386 1.82056 11.118 0 8.87699 0C6.63599 0 4.81543 1.82056 4.81543 4.06156V9.47698C4.81543 11.718 6.63599 13.5385 8.87699 13.5385ZM6.84621 4.06156C6.84621 2.94172 7.75715 2.03078 8.87699 2.03078C9.99683 2.03078 10.9078 2.94172 10.9078 4.06156V9.47698C10.9078 10.5968 9.99683 11.5078 8.87699 11.5078C7.75715 11.5078 6.84621 10.5968 6.84621 9.47698V4.06156Z" fill="white"/>
</svg>
