<svg width="26" height="29" viewBox="0 0 26 29" fill="none" xmlns="http://www.w3.org/2000/svg">
<path d="M4.98207 15.8306H5.02769C5.99685 15.8306 5.90227 17.1881 5.06663 17.2716C4.23099 17.355 3.49995 17.908 2.86348 19.5593C2.73785 19.8259 2.67189 20.1167 2.67021 20.4114C2.66852 20.7061 2.73114 20.9976 2.85372 21.2657C2.97629 21.5337 3.15585 21.7718 3.37989 21.9632C3.60393 22.1547 3.86704 22.2951 4.15088 22.3744C4.22673 22.3742 4.30199 22.361 4.37342 22.3355C5.13562 22.0384 6.30062 19.9398 6.68116 19.349C7.06171 18.7581 12.5284 12.1442 12.8678 11.8939C13.7296 10.6032 14.5075 9.25855 15.1967 7.86811C15.4659 7.36071 16.2982 4.99288 17.0082 3.29379C17.4911 3.88129 18.8096 5.20986 19.8166 5.20986C19.9514 5.21021 20.0852 5.18647 20.2116 5.13976C21.3243 4.71693 20.9393 2.32462 20.5755 0.834717C20.9706 0.854424 21.3629 0.911803 21.7472 1.00607C22.5006 1.27469 23.1355 1.79973 23.5408 2.48931C23.8379 2.87096 25.9999 2.87096 25.9999 3.42286C25.9027 4.20982 25.6585 4.97151 25.28 5.66829C24.3583 5.97909 23.4065 6.19241 22.4404 6.30476C22.0869 7.15852 21.854 8.05729 21.7483 8.97525C21.8114 9.9909 21.8114 11.0095 21.7483 12.0252C22.0257 13.6181 21.9432 15.2529 21.5068 16.8098C21.2119 17.7509 20.7187 18.6179 20.0603 19.3523C20.0458 17.5542 20.0291 15.1519 20.0291 15.1519H19.5051C19.5051 15.1519 19.5473 20.7476 19.5473 21.255C19.7334 22.9432 20.0372 24.6163 20.4564 26.2622C20.6181 26.5497 20.8551 26.7878 21.1418 26.9509C21.6214 27.297 22.1177 27.6575 22.062 28.3641H19.9268C19.4227 27.3816 18.7028 25.9406 18.6227 25.6324C18.4936 25.1606 18.0563 23.9633 18.0352 23.9155C17.7414 22.9886 16.9581 20.4661 16.888 20.0644C16.7395 19.6369 16.5284 19.2338 16.2615 18.8683C15.7271 18.1129 15.3228 17.2735 15.0654 16.3847C15.0556 16.3157 15.0189 16.2533 14.9631 16.2114C14.9074 16.1694 14.8373 16.1513 14.7683 16.1611C14.6992 16.1708 14.6369 16.2076 14.5949 16.2633C14.553 16.319 14.5349 16.3891 14.5446 16.4582C14.8031 17.4219 15.232 18.3316 15.8109 19.1442C16.0292 19.4607 16.2155 19.798 16.3672 20.1512C16.3984 20.3326 16.5453 20.8545 16.7244 21.4598C16.1158 21.739 15.6117 21.9672 15.2445 22.1797C14.9987 21.2875 14.4603 20.5037 13.7157 19.9543C11.5225 18.0382 7.73489 21.1504 7.57466 21.2895C7.52701 21.3356 7.49845 21.3979 7.49466 21.4641C7.49087 21.5302 7.51213 21.5954 7.55421 21.6466C7.59629 21.6978 7.65611 21.7313 7.72175 21.7403C7.7874 21.7494 7.85406 21.7335 7.90847 21.6957C7.94297 21.6645 11.5103 18.7336 13.3674 20.3604C15.2245 21.9872 15.0431 22.983 13.9059 24.5887C12.8466 26.0786 10.1851 26.6272 10.1572 26.6316C10.0916 26.6451 10.0335 26.6828 9.99456 26.7373C9.95557 26.7917 9.93857 26.8589 9.94695 26.9254C9.95664 26.9918 9.9915 27.0519 10.0443 27.0934C10.0971 27.1348 10.1639 27.1543 10.2307 27.1479C11.1208 27.0745 13.6055 26.9699 14.3788 27.3927C14.5706 27.4813 14.7361 27.6181 14.8594 27.7897C14.9826 27.9613 15.0593 28.1618 15.0821 28.3719H7.04836C6.92799 28.3865 6.80587 28.3747 6.69055 28.3372C6.57523 28.2997 6.46949 28.2375 6.38073 28.1549C6.27791 27.9648 6.22031 27.7536 6.2124 27.5377C6.20449 27.3217 6.24648 27.1069 6.33511 26.9098C6.55765 26.0986 7.83504 25.3075 8.30793 25.0705C8.36926 25.0383 8.41536 24.9831 8.4362 24.917C8.45705 24.851 8.45093 24.7793 8.4192 24.7178C8.38747 24.6559 8.33287 24.6089 8.26701 24.5866C8.20114 24.5644 8.1292 24.5687 8.06648 24.5987C7.9897 24.6376 6.16376 25.5601 5.82438 26.764C5.7999 26.8519 5.7821 26.932 5.76541 27.0121C5.43162 26.6609 5.14917 26.2642 4.92643 25.8338C3.65968 25.2645 2.55315 24.3911 1.70516 23.2913C1.12906 22.5584 0.788754 21.668 0.729157 20.7377C0.66956 19.8074 0.893477 18.8809 1.37135 18.0805C1.69641 17.4022 2.20712 16.8299 2.84424 16.4301C3.48136 16.0303 4.21878 15.8194 4.97094 15.8217L4.98207 15.8306Z" fill="white"/>
<path d="M20.025 4.64027C19.9576 4.66449 19.8863 4.67619 19.8147 4.67477C18.8634 4.67477 17.2054 2.81433 17.2555 2.70974C17.267 2.3883 17.3462 2.0729 17.4879 1.78414C17.6296 1.49539 17.8306 1.23978 18.0778 1.03401C18.5559 0.78596 19.0848 0.651906 19.6233 0.642334C19.8459 0.642334 20.005 0.681279 20.025 0.779196C20.025 0.779196 20.9152 4.29756 20.025 4.6336V4.64027Z" fill="white"/>
</svg>
