<svg width="15" height="17" viewBox="0 0 15 17" fill="none" xmlns="http://www.w3.org/2000/svg">
<path d="M5.58958 16.835C5.50595 16.835 5.42567 16.8021 5.36609 16.7434C5.30651 16.6847 5.27241 16.605 5.27116 16.5214C5.24628 15.2094 4.72427 13.9558 3.81062 13.014C3.16226 12.3546 2.34868 11.8815 1.45492 11.6442C1.00683 11.5225 0.616064 11.2465 0.351468 10.865C0.086872 10.4834 -0.0345784 10.0207 0.00851219 9.55836C0.095281 8.62301 0.348821 7.6381 0.762366 6.6329C1.3196 5.27962 2.07007 4.04575 2.73158 3.01806C3.48882 1.84151 4.31551 1.1195 5.33305 0.745954C6.21626 0.420571 7.13649 0.323652 8.24657 0.277283H14.6806C14.765 0.277283 14.846 0.31083 14.9058 0.370545C14.9655 0.43026 14.999 0.511251 14.999 0.5957V16.5136C14.999 16.598 14.9655 16.679 14.9058 16.7387C14.846 16.7985 14.765 16.832 14.6806 16.832L10.052 16.8334L5.58958 16.835ZM8.26627 0.914118C7.21888 0.957701 6.35577 1.04746 5.55256 1.34239C4.6596 1.67036 3.9549 2.29307 3.26712 3.36195C2.62113 4.36517 1.88797 5.56719 1.35064 6.8739C0.961377 7.82099 0.722962 8.74361 0.642163 9.61627C0.611427 9.92935 0.69276 10.2432 0.871688 10.5019C1.05062 10.7606 1.31554 10.9475 1.61931 11.0293C2.62354 11.2961 3.53767 11.8278 4.26615 12.5688C5.21464 13.539 5.79854 14.8473 5.89526 16.199L10.052 16.1976L14.3624 16.1964V0.914118H8.26627Z" fill="#2F6CAD"/>
<path d="M12.987 7.59291H2.77535C2.72484 7.59291 2.67506 7.5809 2.6301 7.55786C2.58515 7.53482 2.54633 7.50142 2.51683 7.46042C2.48734 7.41942 2.46802 7.37198 2.46048 7.32204C2.45294 7.2721 2.45738 7.22108 2.47345 7.17319C2.49116 7.12045 2.91585 5.86688 3.70911 4.59938C4.18156 3.84433 4.68765 3.24213 5.21343 2.80828C5.89664 2.24608 6.61646 1.96647 7.35201 1.97781H12.987C13.0715 1.97781 13.1524 2.01136 13.2122 2.07107C13.2719 2.13079 13.3054 2.21178 13.3054 2.29623V7.27449C13.3054 7.35894 13.2719 7.43993 13.2122 7.49964C13.1524 7.55936 13.0715 7.59291 12.987 7.59291ZM3.23546 6.95607H12.6686V2.61564H7.34424H7.30942C5.17284 2.61524 3.70254 5.79265 3.23586 6.95607H3.23546Z" fill="#2F6CAD"/>
<path d="M14.6816 13.6829H4.55194C4.46749 13.6829 4.3865 13.6493 4.32678 13.5896C4.26707 13.5299 4.23352 13.4489 4.23352 13.3644C4.23352 13.28 4.26707 13.199 4.32678 13.1393C4.3865 13.0796 4.46749 13.046 4.55194 13.046H14.6816C14.766 13.046 14.847 13.0796 14.9068 13.1393C14.9665 13.199 15 13.28 15 13.3644C15 13.4489 14.9665 13.5299 14.9068 13.5896C14.847 13.6493 14.766 13.6829 14.6816 13.6829Z" fill="#2F6CAD"/>
<path d="M14.6815 15.292H5.32403C5.23958 15.292 5.15859 15.2585 5.09888 15.1988C5.03916 15.1391 5.00562 15.0581 5.00562 14.9736C5.00562 14.8892 5.03916 14.8082 5.09888 14.7485C5.15859 14.6888 5.23958 14.6552 5.32403 14.6552H14.6815C14.766 14.6552 14.847 14.6888 14.9067 14.7485C14.9664 14.8082 14.9999 14.8892 14.9999 14.9736C14.9999 15.0581 14.9664 15.1391 14.9067 15.1988C14.847 15.2585 14.766 15.292 14.6815 15.292Z" fill="#2F6CAD"/>
<path d="M6.15851 10.5921H3.37236C3.12957 10.5921 2.89672 10.4956 2.72504 10.3239C2.55336 10.1523 2.45691 9.91941 2.45691 9.67662C2.45691 9.43383 2.55336 9.20098 2.72504 9.0293C2.89672 8.85762 3.12957 8.76117 3.37236 8.76117H6.15851C6.40131 8.76117 6.63415 8.85762 6.80583 9.0293C6.97752 9.20098 7.07396 9.43383 7.07396 9.67662C7.07396 9.91941 6.97752 10.1523 6.80583 10.3239C6.63415 10.4956 6.40131 10.5921 6.15851 10.5921ZM3.37236 9.398C3.29847 9.398 3.2276 9.42736 3.17535 9.47961C3.1231 9.53186 3.09374 9.60273 3.09374 9.67662C3.09374 9.75051 3.1231 9.82138 3.17535 9.87363C3.2276 9.92588 3.29847 9.95524 3.37236 9.95524H6.15851C6.23241 9.95524 6.30327 9.92588 6.35552 9.87363C6.40778 9.82138 6.43713 9.75051 6.43713 9.67662C6.43713 9.60273 6.40778 9.53186 6.35552 9.47961C6.30327 9.42736 6.23241 9.398 6.15851 9.398H3.37236Z" fill="#2F6CAD"/>
</svg>
